<svg width="48" height="48" viewBox="0 0 48 48" fill="none" xmlns="http://www.w3.org/2000/svg">
<rect width="48" height="48" rx="12" fill="#EDF2F7"/>
<g clip-path="url(#clip0_148_5557)">
<path d="M6 26.6302C6 27.6645 6.81426 28.5062 7.81511 28.5062H13.5289C14.5298 28.5062 15.3441 27.6645 15.3441 26.6305V20.7253C15.3441 19.691 14.5295 18.8496 13.5289 18.8496H7.81511C6.81426 18.8496 6 19.691 6 20.7253V26.6305V26.6302Z" fill="url(#paint0_linear_148_5557)"/>
<path d="M12.2123 19.3277L7.72961 21.6048L14.3215 21.4811L13.516 19.7874C13.4012 19.5474 13.1996 19.3643 12.9554 19.2782C12.7112 19.192 12.4442 19.2099 12.2126 19.3277H12.2123Z" fill="#8BC53F"/>
<path d="M13.2423 20.1642L7.396 21.6842L14.6562 21.8802L14.424 20.8948C14.3598 20.6353 14.1995 20.4128 13.978 20.2759C13.7565 20.139 13.4919 20.0988 13.242 20.1642H13.2423Z" fill="#008F4C"/>
<path d="M13.8265 25.8582C13.915 25.8585 14.0027 25.8407 14.0846 25.8058C14.1664 25.7708 14.2409 25.7195 14.3037 25.6546C14.3664 25.5898 14.4163 25.5127 14.4504 25.4279C14.4846 25.343 14.5023 25.2519 14.5026 25.1599C14.5026 24.7742 14.1997 24.4614 13.8265 24.4614C13.7381 24.4611 13.6504 24.479 13.5685 24.5139C13.4867 24.5489 13.4123 24.6003 13.3495 24.6651C13.2868 24.73 13.2369 24.8071 13.2028 24.892C13.1687 24.9769 13.151 25.0679 13.1508 25.1599C13.1508 25.5457 13.4534 25.8582 13.8268 25.8582H13.8265ZM13.6317 21.5608H7.40921C7.3886 21.5607 7.36817 21.5648 7.34909 21.5729C7.33001 21.581 7.31265 21.5929 7.29801 21.608C7.28336 21.623 7.27171 21.641 7.26372 21.6607C7.25574 21.6805 7.25157 21.7017 7.25146 21.7231C7.25146 21.8125 7.32209 21.8854 7.40921 21.8854H13.6314C14.5696 21.8854 15.3325 22.6848 15.3325 23.6671L15.349 23.8742V22.5668C14.9945 21.9639 14.3569 21.5611 13.6314 21.5611L13.6317 21.5608Z" fill="white"/>
<g opacity="0.65">
<path opacity="0.65" d="M7.21389 27.3844C7.39747 27.3844 7.54641 27.2301 7.54641 27.0407C7.54641 26.851 7.39747 26.6973 7.21389 26.6973C7.03032 26.6973 6.88137 26.851 6.88137 27.0407C6.88137 27.2304 7.03032 27.3841 7.21389 27.3841V27.3844ZM7.11359 26.5401C7.29771 26.4978 7.41478 26.3133 7.37493 26.1281C7.33508 25.943 7.15316 25.8273 6.96904 25.8696C6.78492 25.9121 6.66757 26.0967 6.7077 26.2818C6.74754 26.467 6.92919 26.5827 7.11359 26.5401ZM7.99353 27.7376C8.1771 27.7376 8.32605 27.5836 8.32605 27.3938C8.32605 27.2041 8.1771 27.0504 7.99353 27.0504C7.80995 27.0504 7.66101 27.2041 7.66101 27.3938C7.66101 27.5836 7.80995 27.7376 7.99353 27.7376ZM7.90614 26.8516C8.08971 26.8516 8.23866 26.6978 8.23866 26.5081C8.23866 26.3184 8.08971 26.1647 7.90614 26.1647C7.72257 26.1647 7.57362 26.3184 7.57362 26.5081C7.57362 26.6978 7.72257 26.8516 7.90614 26.8516Z" fill="#BA3827"/>
</g>
<path d="M19.1283 25.7707H18.1219L20.0135 20.5296H20.8989L22.791 25.7707H21.7843L21.4221 24.6893H19.4902L19.128 25.7707H19.1283ZM21.1003 23.7744L20.4565 21.861L19.8126 23.7744H21.1003ZM25.0851 21.9021C25.3159 21.9021 25.5357 21.9507 25.7454 22.0479C25.9546 22.145 26.1384 22.281 26.297 22.4556C26.4587 22.6363 26.5869 22.8464 26.6751 23.0756C26.7691 23.3141 26.8164 23.5744 26.8164 23.8576C26.8164 24.1404 26.7691 24.4013 26.6751 24.6396C26.587 24.8688 26.4588 25.079 26.297 25.2596C26.141 25.4322 25.9535 25.5707 25.7454 25.667C25.5366 25.7641 25.3162 25.8127 25.0851 25.8127C24.9295 25.8127 24.7938 25.7933 24.6786 25.7547C24.5751 25.7211 24.4741 25.6795 24.3766 25.6301C24.2837 25.5774 24.1973 25.5131 24.1194 25.4387V27.1021H23.1936V21.9439H23.8778L24.0389 22.3181C24.1242 22.237 24.2188 22.1672 24.3205 22.1101C24.4121 22.0604 24.5217 22.013 24.6503 21.969C24.7909 21.9228 24.9376 21.9002 25.0851 21.9021ZM24.0389 23.8576C24.0389 24.1739 24.1274 24.4261 24.3046 24.6144C24.4819 24.803 24.7017 24.8973 24.965 24.8973C25.2277 24.8973 25.4478 24.803 25.6253 24.6144C25.8026 24.4259 25.8911 24.1733 25.8911 23.8573C25.8911 23.5413 25.8026 23.289 25.6253 23.1007C25.4484 22.9121 25.2282 22.8179 24.965 22.8179C24.702 22.8179 24.4819 22.9121 24.3046 23.1007C24.1274 23.2893 24.0389 23.5413 24.0389 23.8576ZM30.8005 24.6061C30.7471 24.7606 30.6725 24.9062 30.579 25.0384C30.4796 25.1827 30.3589 25.3116 30.2169 25.4253C30.0695 25.5417 29.9068 25.6355 29.7337 25.7039C29.5473 25.7772 29.3494 25.8141 29.15 25.8124C28.9047 25.8139 28.6618 25.7613 28.4375 25.6581C28.2179 25.5577 28.0185 25.4153 27.8496 25.2381C27.6799 25.0592 27.5435 24.8491 27.4473 24.6184C27.347 24.3784 27.2962 24.1192 27.2981 23.8576C27.2981 23.5859 27.3478 23.3321 27.4473 23.0964C27.5435 22.8658 27.6799 22.6557 27.8496 22.4767C28.0183 22.2994 28.2178 22.1569 28.4375 22.0567C28.6618 21.9535 28.9047 21.9009 29.15 21.9024C29.385 21.9012 29.6177 21.9493 29.8343 22.0439C30.0487 22.1381 30.2366 22.2713 30.3977 22.4433C30.5627 22.6221 30.6927 22.8327 30.7802 23.0633C30.8742 23.3044 30.9212 23.5693 30.9212 23.8576C30.9212 23.9021 30.9184 23.9447 30.9132 23.9861C30.9077 24.0279 30.9022 24.0681 30.8976 24.107L30.8816 24.2319H28.3053C28.3481 24.4204 28.4394 24.5784 28.579 24.7059C28.7186 24.8336 28.9088 24.8973 29.1506 24.8973C29.2737 24.8973 29.377 24.8833 29.4606 24.8556C29.5436 24.8279 29.6145 24.7947 29.6736 24.7561C29.7381 24.7119 29.7917 24.6619 29.8346 24.6061H30.8005ZM29.1506 22.8173C28.9088 22.8173 28.7117 22.8896 28.5587 23.0333C28.4081 23.1732 28.3052 23.3601 28.2652 23.5659H30.036C29.9955 23.3601 29.8924 23.1734 29.742 23.0333C29.5892 22.8896 29.3919 22.8173 29.1506 22.8173ZM32.531 25.7707H31.6055V20.5296H32.531V25.7707ZM34.1013 24.5644C34.1227 24.6924 34.1818 24.8001 34.2783 24.889C34.3744 24.9779 34.5036 25.0221 34.6646 25.0221C34.8257 25.0221 34.9535 24.979 35.0472 24.8933C35.1412 24.8076 35.1884 24.7113 35.1884 24.6061C35.1884 24.5176 35.1412 24.4479 35.0472 24.3981C34.9349 24.341 34.8177 24.2951 34.6971 24.261C34.546 24.2162 34.3944 24.1733 34.2423 24.1324C34.0825 24.09 33.9295 24.024 33.7877 23.9364C33.6498 23.8523 33.5304 23.739 33.4373 23.6039C33.3436 23.4679 33.2964 23.289 33.2964 23.0673C33.2957 22.9121 33.3278 22.7587 33.3904 22.6178C33.453 22.4769 33.5445 22.352 33.6586 22.2519C33.7828 22.1427 33.9243 22.0568 34.0768 21.9981C34.2379 21.9344 34.4203 21.9027 34.6245 21.9027C35.0697 21.9027 35.4121 22.0136 35.6509 22.2353C35.8855 22.4491 36.0361 22.7453 36.0739 23.0673H35.1884C35.167 22.9841 35.1093 22.9007 35.0156 22.8176C34.9216 22.7347 34.8048 22.693 34.6652 22.693C34.5256 22.693 34.4168 22.7287 34.3393 22.8013C34.3021 22.8339 34.2724 22.8746 34.2522 22.9205C34.232 22.9665 34.2219 23.0165 34.2225 23.067C34.2225 23.1561 34.2692 23.2253 34.3637 23.2753C34.4574 23.325 34.5742 23.3707 34.7138 23.4124C34.8534 23.4539 35.0051 23.4984 35.1686 23.5453C35.3285 23.5908 35.4815 23.6594 35.6232 23.749C35.7628 23.8379 35.8796 23.953 35.9736 24.0941C36.0673 24.2353 36.1145 24.4201 36.1145 24.6473C36.1145 24.8027 36.0824 24.9507 36.0181 25.0924C35.9531 25.2346 35.8598 25.3608 35.7444 25.4627C35.6167 25.5735 35.4708 25.6594 35.3137 25.7161C35.1447 25.7799 34.9554 25.8119 34.7463 25.8119C34.2631 25.8119 33.8971 25.6984 33.647 25.4707C33.3978 25.2433 33.254 24.9413 33.2164 24.5641H34.1013V24.5644ZM37.2808 21.4444C37.1412 21.4444 37.0189 21.3907 36.9145 21.2824C36.8098 21.1739 36.7576 21.0481 36.7576 20.9039C36.7576 20.7596 36.8098 20.6333 36.9145 20.5256C37.0195 20.417 37.1412 20.3633 37.2808 20.3633C37.4204 20.3633 37.5424 20.4173 37.6469 20.5256C37.7513 20.6341 37.8041 20.7599 37.8041 20.9039C37.8041 21.0481 37.7518 21.1744 37.6469 21.2824C37.5424 21.391 37.4204 21.4447 37.2808 21.4447V21.4444ZM37.7235 25.7707H36.7977V21.9439H37.7235V25.7707ZM40.5008 21.9021C40.7209 21.9021 40.9223 21.9396 41.1045 22.0147C41.2822 22.0863 41.4429 22.197 41.5755 22.3393C41.7066 22.4804 41.8091 22.6513 41.8817 22.8507C41.9542 23.0504 41.9905 23.2747 41.9905 23.5241V25.7701H41.0649V23.649C41.0649 23.3996 40.9938 23.1987 40.8517 23.0456C40.7096 22.8933 40.5258 22.8167 40.3001 22.8167C40.0745 22.8167 39.8907 22.8933 39.7486 23.0456C39.6065 23.1981 39.5354 23.3996 39.5354 23.649V25.7701H38.6098V21.9433H39.2941L39.4551 22.3176C39.5479 22.2388 39.6476 22.1692 39.7527 22.1096C39.8576 22.0537 39.9666 22.0065 40.0787 21.9684C40.215 21.9228 40.3575 21.9004 40.5008 21.9021Z" fill="#00527D"/>
</g>
<defs>
<linearGradient id="paint0_linear_148_5557" x1="14.4476" y1="19.2696" x2="6.40986" y2="28.057" gradientUnits="userSpaceOnUse">
<stop stop-color="#FCB94D"/>
<stop offset="0.306" stop-color="#F7903F"/>
<stop offset="0.775" stop-color="#F1562B"/>
<stop offset="1" stop-color="#EE4023"/>
</linearGradient>
<clipPath id="clip0_148_5557">
<rect width="36" height="10" fill="white" transform="translate(6 18.6216)"/>
</clipPath>
</defs>
</svg>
