<svg width="96" height="26" viewBox="0 0 96 26" fill="none" xmlns="http://www.w3.org/2000/svg">
<g clip-path="url(#clip0_6_5719)">
<path d="M0 20.5411C0 23.1939 2.17136 25.3528 4.84031 25.3528H20.0772C22.7461 25.3528 24.9175 23.1939 24.9175 20.5418V5.39579C24.9175 2.74296 22.7454 0.584793 20.0772 0.584793H4.84031C2.17136 0.584793 0 2.74296 0 5.39579V20.5418V20.5411Z" fill="url(#paint0_linear_6_5719)"/>
<path d="M16.5662 1.81082L4.6124 7.65143L22.1907 7.33412L20.0427 2.98993C19.7365 2.37425 19.1991 1.9047 18.5479 1.68379C17.8967 1.46289 17.1846 1.50855 16.567 1.81082H16.5662Z" fill="#8BC53F"/>
<path d="M19.3129 3.95653L3.72275 7.85515L23.0832 8.35787L22.464 5.83036C22.293 5.16484 21.8654 4.59411 21.2748 4.24297C20.6841 3.89183 19.9785 3.78884 19.3121 3.95653H19.3129Z" fill="#008F4C"/>
<path d="M20.8708 18.561C21.1068 18.5617 21.3406 18.516 21.5589 18.4264C21.7772 18.3368 21.9757 18.2051 22.1431 18.0388C22.3106 17.8725 22.4436 17.6748 22.5346 17.4571C22.6256 17.2394 22.6728 17.0059 22.6736 16.7699C22.6736 15.7806 21.866 14.9782 20.8708 14.9782C20.6349 14.9775 20.4011 15.0233 20.1828 15.113C19.9645 15.2027 19.7661 15.3345 19.5987 15.5008C19.4314 15.6672 19.2985 15.8649 19.2076 16.0827C19.1166 16.3004 19.0695 16.534 19.0688 16.7699C19.0688 17.7593 19.8757 18.561 20.8716 18.561H20.8708ZM20.3513 7.53855H3.75792C3.70297 7.53826 3.6485 7.5488 3.59762 7.56956C3.54674 7.59032 3.50045 7.6209 3.46139 7.65955C3.42233 7.6982 3.39127 7.74417 3.36997 7.79483C3.34868 7.84549 3.33757 7.89984 3.33728 7.95479C3.33728 8.18417 3.52562 8.37104 3.75792 8.37104H20.3505C22.8524 8.37104 24.8867 10.4215 24.8867 12.9409L24.9307 13.4722V10.1188C23.9853 8.57256 22.2852 7.53928 20.3505 7.53928L20.3513 7.53855Z" fill="white"/>
<g opacity="0.65">
<path opacity="0.65" d="M3.2369 22.4757C3.72642 22.4757 4.12361 22.08 4.12361 21.5941C4.12361 21.1075 3.72642 20.7133 3.2369 20.7133C2.74737 20.7133 2.35018 21.1075 2.35018 21.5941C2.35018 22.0807 2.74737 22.475 3.2369 22.475V22.4757ZM2.96942 20.3102C3.46041 20.2018 3.77259 19.7284 3.66633 19.2535C3.56007 18.7786 3.07494 18.4818 2.58395 18.5903C2.09296 18.6995 1.78004 19.1729 1.88703 19.6477C1.99329 20.1226 2.47769 20.4194 2.96942 20.3102ZM5.31592 23.3815C5.80545 23.3815 6.20264 22.9865 6.20264 22.4999C6.20264 22.0133 5.80545 21.619 5.31592 21.619C4.82639 21.619 4.4292 22.0133 4.4292 22.4999C4.4292 22.9865 4.82639 23.3815 5.31592 23.3815ZM5.08288 21.109C5.57241 21.109 5.9696 20.7147 5.9696 20.2281C5.9696 19.7415 5.57241 19.3473 5.08288 19.3473C4.59335 19.3473 4.19616 19.7415 4.19616 20.2281C4.19616 20.7147 4.59335 21.109 5.08288 21.109Z" fill="#BA3827"/>
</g>
<path d="M35.0085 18.3367H32.3249L37.3689 4.89379H39.7301L44.7756 18.3367H42.0912L41.1254 15.563H35.9736L35.0078 18.3367H35.0085ZM40.2672 13.2165L38.5502 8.30875L36.8332 13.2165H40.2672ZM50.8932 8.41428C51.5088 8.41428 52.095 8.53886 52.6542 8.78802C53.2119 9.03718 53.7021 9.386 54.125 9.83376C54.5562 10.2972 54.898 10.8363 55.1333 11.424C55.3839 12.0359 55.51 12.7035 55.51 13.4297C55.51 14.1552 55.3839 14.8243 55.1333 15.4355C54.8983 16.0233 54.5564 16.5625 54.125 17.0257C53.7091 17.4685 53.2091 17.8237 52.6542 18.0707C52.0972 18.3199 51.5095 18.4444 50.8932 18.4444C50.4784 18.4444 50.1164 18.3946 49.8093 18.2957C49.5332 18.2096 49.264 18.1028 49.004 17.9762C48.7563 17.8409 48.5259 17.6761 48.318 17.4852V21.7517H45.8492V8.52127H47.6739L48.1033 9.48127C48.3308 9.27321 48.5831 9.09402 48.8545 8.94777C49.0985 8.82026 49.3909 8.69861 49.7339 8.58576C50.1087 8.46719 50.5001 8.4093 50.8932 8.41428ZM48.1033 13.4297C48.1033 14.241 48.3393 14.888 48.812 15.371C49.2846 15.8546 49.8709 16.0965 50.573 16.0965C51.2735 16.0965 51.8605 15.8546 52.3339 15.371C52.8066 14.8873 53.0426 14.2395 53.0426 13.429C53.0426 12.6185 52.8066 11.9714 52.3339 11.4885C51.862 11.0048 51.275 10.763 50.573 10.763C49.8716 10.763 49.2846 11.0048 48.812 11.4885C48.3393 11.9721 48.1033 12.6185 48.1033 13.4297ZM66.1345 15.3497C65.9921 15.7459 65.7931 16.1193 65.5438 16.4585C65.2785 16.8286 64.9568 17.1591 64.578 17.4507C64.1849 17.7494 63.7511 17.99 63.2897 18.1652C62.7925 18.3535 62.2647 18.4479 61.7331 18.4437C61.0789 18.4475 60.4313 18.3126 59.8329 18.048C59.2474 17.7905 58.7157 17.425 58.2654 16.9707C57.8127 16.5117 57.4489 15.9728 57.1926 15.3812C56.9251 14.7656 56.7896 14.1009 56.7946 13.4297C56.7946 12.7328 56.9273 12.0821 57.1926 11.4775C57.4489 10.8859 57.8127 10.347 58.2654 9.88799C58.7152 9.43315 59.2471 9.06762 59.8329 8.81073C60.4313 8.54609 61.0789 8.41122 61.7331 8.41501C62.3596 8.41187 62.9802 8.53525 63.5579 8.77776C64.1295 9.01959 64.6307 9.36109 65.0602 9.80225C65.5004 10.261 65.8469 10.8011 66.0802 11.3925C66.3309 12.011 66.4562 12.6903 66.4562 13.4297C66.4562 13.544 66.4489 13.6532 66.4349 13.7595C66.4203 13.8665 66.4056 13.9698 66.3932 14.0695L66.3507 14.3897H59.4804C59.5948 14.8734 59.8381 15.2786 60.2103 15.6055C60.5826 15.9331 61.0897 16.0965 61.7346 16.0965C62.0629 16.0965 62.3384 16.0606 62.5612 15.9895C62.7825 15.9184 62.9716 15.8334 63.1292 15.7345C63.3014 15.6209 63.4443 15.4926 63.5586 15.3497H66.1345ZM61.7346 10.7615C61.0897 10.7615 60.5643 10.9469 60.1561 11.3155C59.7547 11.6745 59.4801 12.1537 59.3734 12.6815H64.0958C63.9876 12.1539 63.7127 11.675 63.3116 11.3155C62.9042 10.9469 62.378 10.7615 61.7346 10.7615ZM70.7491 18.3367H68.2809V4.89379H70.7491V18.3367ZM74.9364 15.2427C74.9936 15.571 75.1511 15.8473 75.4084 16.0752C75.6649 16.3031 76.0093 16.4167 76.4387 16.4167C76.8682 16.4167 77.2089 16.3061 77.4588 16.0862C77.7094 15.8664 77.8355 15.6194 77.8355 15.3497C77.8355 15.1226 77.7094 14.9437 77.4588 14.8162C77.1595 14.6696 76.8469 14.5518 76.5252 14.4645C76.1223 14.3495 75.718 14.2396 75.3124 14.1347C74.8864 14.0258 74.4783 13.8565 74.1003 13.632C73.7324 13.4163 73.4141 13.1257 73.1659 12.779C72.916 12.4302 72.79 11.9714 72.79 11.4027C72.7883 11.0047 72.8739 10.6112 73.0408 10.2498C73.2077 9.88844 73.4518 9.56807 73.7559 9.31125C74.0871 9.03125 74.4645 8.81105 74.8712 8.66051C75.3006 8.49709 75.7872 8.41574 76.3317 8.41574C77.5189 8.41574 78.432 8.70008 79.0688 9.26875C79.6944 9.81715 80.096 10.5769 80.1966 11.4027H77.8355C77.7783 11.1895 77.6244 10.9755 77.3745 10.7622C77.1239 10.5497 76.8125 10.4427 76.4402 10.4427C76.0679 10.4427 75.7777 10.5343 75.5711 10.7205C75.4721 10.8041 75.3928 10.9085 75.339 11.0263C75.2851 11.1442 75.258 11.2725 75.2596 11.402C75.2596 11.6306 75.3842 11.808 75.6363 11.9362C75.8862 12.0637 76.1976 12.181 76.5699 12.288C76.9422 12.3942 77.3467 12.5086 77.7827 12.6287C78.2091 12.7456 78.6171 12.9215 78.9948 13.1513C79.3671 13.3792 79.6785 13.6745 79.9292 14.0365C80.1791 14.3985 80.3051 14.8727 80.3051 15.4553C80.3051 15.8539 80.2194 16.2335 80.0479 16.597C79.8745 16.9617 79.6258 17.2854 79.318 17.5467C78.9776 17.831 78.5885 18.0512 78.1697 18.1967C77.719 18.3602 77.214 18.4422 76.6564 18.4422C75.3681 18.4422 74.3919 18.1513 73.7251 17.5673C73.0604 16.9839 72.6771 16.2093 72.5767 15.242H74.9364V15.2427ZM83.4152 7.24029C83.0429 7.24029 82.7168 7.10252 82.4384 6.82478C82.1592 6.54631 82.0199 6.22387 82.0199 5.85379C82.0199 5.48371 82.1592 5.1598 82.4384 4.88353C82.7183 4.60506 83.0429 4.46729 83.4152 4.46729C83.7875 4.46729 84.1129 4.60579 84.3913 4.88353C84.6698 5.162 84.8105 5.48445 84.8105 5.85379C84.8105 6.22387 84.6713 6.54777 84.3913 6.82478C84.1129 7.10325 83.7875 7.24102 83.4152 7.24102V7.24029ZM84.5958 18.3367H82.1269V8.52127H84.5958V18.3367ZM92.0017 8.41428C92.5887 8.41428 93.1259 8.51028 93.6117 8.70301C94.0856 8.88651 94.5142 9.17053 94.8678 9.5355C95.2174 9.89751 95.4907 10.3357 95.6842 10.8473C95.8776 11.3595 95.9744 11.9348 95.9744 12.5745V18.3353H93.5062V12.8948C93.5062 12.255 93.3164 11.7398 92.9375 11.347C92.5587 10.9564 92.0684 10.76 91.4668 10.76C90.8651 10.76 90.3748 10.9564 89.996 11.347C89.6171 11.7384 89.4273 12.255 89.4273 12.8948V18.3353H86.9592V8.5198H88.7839L89.2133 9.4798C89.4608 9.27783 89.7265 9.09923 90.007 8.94631C90.2867 8.80293 90.5773 8.68188 90.8761 8.58429C91.2397 8.4672 91.6198 8.40978 92.0017 8.41428Z" fill="#00527D"/>
</g>
<defs>
<linearGradient id="paint0_linear_6_5719" x1="22.527" y1="1.66205" x2="1.99768" y2="24.9966" gradientUnits="userSpaceOnUse">
<stop stop-color="#FCB94D"/>
<stop offset="0.306" stop-color="#F7903F"/>
<stop offset="0.775" stop-color="#F1562B"/>
<stop offset="1" stop-color="#EE4023"/>
</linearGradient>
<clipPath id="clip0_6_5719">
<rect width="96" height="25.6489" fill="white"/>
</clipPath>
</defs>
</svg>
