<svg width="48" height="48" viewBox="0 0 48 48" fill="none" xmlns="http://www.w3.org/2000/svg">
<g clip-path="url(#clip0_146_5056)">
<rect width="48" height="48" rx="12" fill="#EDF2F7"/>
<g filter="url(#filter0_d_146_5056)">
<path fill-rule="evenodd" clip-rule="evenodd" d="M37.0001 16.82V32.1595C37.0001 32.8086 36.6841 33.364 36.128 33.7072C35.5718 34.0504 34.9272 34.0754 34.3394 33.7883L25.6433 29.5073H26.0162L34.251 33.5637C34.8008 33.832 35.4012 33.8071 35.9257 33.4888C36.444 33.1705 36.741 32.6525 36.741 32.0472V17.7312C36.741 17.1258 36.4503 16.6079 35.9257 16.2896C35.4075 15.9713 34.8008 15.9464 34.251 16.2147L27.6151 19.4848H25.637L34.3331 15.1975C34.9209 14.9104 35.5655 14.9354 36.1216 15.2786C36.6904 15.6156 37.0001 16.171 37.0001 16.82Z" fill="url(#paint0_linear_146_5056)"/>
<path fill-rule="evenodd" clip-rule="evenodd" d="M26.0603 19.385H27.5897L34.2066 16.1274C34.7817 15.8403 35.4264 15.8715 35.9762 16.2085C36.526 16.5455 36.8357 17.0946 36.8357 17.7374V32.0535C36.8357 32.69 36.526 33.2454 35.9762 33.5824C35.5591 33.8383 35.0851 33.9132 34.6301 33.8133C35.1167 33.9693 35.6286 33.9132 36.0773 33.6386C36.6082 33.3141 36.9052 32.7899 36.9052 32.172V16.8201C36.9052 16.2085 36.6082 15.678 36.0773 15.3535C35.5528 15.029 34.9334 15.004 34.3836 15.2786L26.0603 19.385Z" fill="url(#paint1_linear_146_5056)"/>
<path fill-rule="evenodd" clip-rule="evenodd" d="M14.5834 28.3716H11V20.6145H14.5391C15.3102 20.6145 15.9169 20.808 16.3656 21.1886C16.8143 21.5693 17.0418 22.0748 17.0418 22.7051C17.0418 23.092 16.947 23.4353 16.7511 23.7286C16.5552 24.0219 16.2961 24.2278 15.9737 24.3402C16.3909 24.4587 16.7258 24.6709 16.9786 24.9892C17.2314 25.3012 17.3578 25.6569 17.3578 26.0563C17.3578 26.7678 17.1113 27.3294 16.6121 27.7475C16.1191 28.1594 15.4429 28.3716 14.5834 28.3716ZM13.035 22.287V23.6287H14.1536C14.4064 23.6287 14.6087 23.5726 14.7603 23.454C14.912 23.3354 14.9878 23.1732 14.9878 22.9672C14.9878 22.5117 14.7098 22.287 14.1599 22.287H13.035ZM13.035 25.2139V26.6929H14.2927C14.6023 26.6929 14.8425 26.618 15.0131 26.4745C15.1901 26.3309 15.2722 26.1499 15.2722 25.9378C15.2722 25.7256 15.1901 25.5508 15.0194 25.4136C14.8488 25.2763 14.6087 25.2139 14.2863 25.2139H13.035ZM23.6903 28.3716H18.4638V20.6145H23.6903V22.4243H20.5936V23.5726H23.2859V25.2076H20.5936V26.5618H23.6903V28.3716ZM29.6184 28.3716L27.0651 25.2263V28.3716H24.9417V20.6145H27.0651V23.7036L29.5173 20.6145H31.3184V21.4195L28.9737 24.2965L31.6407 27.5541V28.3716H29.6184Z" fill="url(#paint2_linear_146_5056)"/>
<path fill-rule="evenodd" clip-rule="evenodd" d="M11.1959 20.8017V28.1781H14.5834C15.2596 28.1781 15.9611 28.0408 16.492 27.5977C16.9723 27.1921 17.1682 26.6679 17.1682 26.05C17.1682 25.6943 17.0545 25.376 16.8333 25.0952C16.5994 24.8019 16.2897 24.6147 15.9232 24.5148L15.3354 24.3526L15.9106 24.1529C16.2013 24.053 16.4225 23.872 16.5868 23.6162C16.7701 23.3354 16.8459 23.0296 16.8459 22.6988C16.8459 22.1496 16.6626 21.6878 16.2392 21.3259C15.7652 20.9202 15.1458 20.7954 14.5391 20.7954H11.1959V20.8017ZM12.8391 22.0997H14.1663C14.7477 22.0997 15.1838 22.3493 15.1838 22.9734C15.1838 23.2293 15.089 23.4539 14.8804 23.6099C14.6719 23.7722 14.4127 23.8284 14.1536 23.8284H12.8391V22.0997ZM12.8391 25.0266H14.2927C14.5897 25.0266 14.912 25.0827 15.1458 25.2699C15.3607 25.4384 15.4682 25.6693 15.4682 25.9377C15.4682 26.2123 15.3481 26.4432 15.1395 26.6179C14.8994 26.8176 14.596 26.88 14.2927 26.88H12.8391V25.0266ZM23.5007 28.1781V26.749H20.404V25.0141H23.0963V23.7597H20.404V22.2308H23.5007V20.8017H18.6597V28.1781H23.5007ZM29.7132 28.1781H31.4511V27.6164L28.7273 24.2902L31.1288 21.3508V20.8017H29.6121L26.8756 24.2527V20.8017H25.1313V28.1781H26.8756V24.6833L29.7132 28.1781Z" fill="url(#paint3_linear_146_5056)"/>
<path fill-rule="evenodd" clip-rule="evenodd" d="M35.7929 22.2118C35.7929 22.2555 35.7866 22.293 35.7613 22.3304C35.7423 22.3678 35.7171 22.3991 35.6855 22.424C35.6539 22.449 35.616 22.4739 35.5717 22.4927C35.5275 22.5114 35.4896 22.5239 35.4453 22.5239C35.2052 22.5426 34.965 22.5738 34.7312 22.6175C34.4973 22.6612 34.2572 22.7236 34.0233 22.7922C33.8527 23.2166 33.7073 23.6472 33.5873 24.0903C33.4672 24.5334 33.3661 24.9827 33.2966 25.4445C33.2713 25.5943 33.246 25.7503 33.227 25.9001C33.2081 26.0498 33.1954 26.1996 33.1954 26.3494C33.1954 26.3743 33.1828 26.3931 33.1575 26.3931C33.1133 26.3993 33.069 26.3868 33.0311 26.3681C32.9932 26.3494 32.9616 26.3182 32.93 26.287C32.9047 26.2495 32.8794 26.2121 32.8668 26.1684C32.8542 26.1247 32.8478 26.081 32.8478 26.0311C32.8478 25.8688 32.8605 25.7128 32.8731 25.5568C32.8858 25.4008 32.8984 25.2448 32.9174 25.0888C32.9616 24.7455 33.0122 24.4085 33.069 24.0715C33.1322 23.7345 33.2018 23.3976 33.2902 23.0606C33.107 23.1417 32.9237 23.2353 32.753 23.3351C32.5761 23.4412 32.4118 23.5598 32.2475 23.6971C32.2348 23.7096 32.2159 23.7158 32.1969 23.7096C32.1779 23.7096 32.1653 23.6971 32.1463 23.6846C32.1147 23.6472 32.0831 23.6097 32.0452 23.5723C32.0073 23.5348 31.982 23.4912 31.9567 23.4475C31.9315 23.4038 31.9188 23.3539 31.9188 23.3102C31.9125 23.2603 31.9251 23.2103 31.9567 23.1542C31.982 23.1105 32.0136 23.0793 32.0515 23.0543C32.2664 22.917 32.4939 22.7985 32.7341 22.6924C32.9742 22.5925 33.2207 22.5051 33.4735 22.4365C33.4798 22.4178 33.4861 22.3991 33.4925 22.3803C33.4988 22.3616 33.5051 22.3491 33.5114 22.3304C33.5177 22.3117 33.5304 22.2992 33.5493 22.2867C33.5683 22.2805 33.5873 22.2742 33.6062 22.2867L33.7769 22.3554C33.9412 22.3242 34.1055 22.293 34.2761 22.2618C34.4405 22.2306 34.6237 22.2056 34.8133 22.1931C34.9713 22.1806 35.1293 22.1681 35.2873 22.1619C35.4453 22.1557 35.6033 22.1557 35.7613 22.1619C35.7739 22.1619 35.7866 22.1681 35.7929 22.1744C35.7929 22.1869 35.7929 22.1994 35.7929 22.2118ZM34.1687 25.9749C34.2635 25.9562 34.3583 25.9063 34.4531 25.8314C34.5479 25.7565 34.6427 25.6691 34.7312 25.5693C34.8196 25.4694 34.9081 25.3634 34.9903 25.251C35.0724 25.1387 35.1483 25.0326 35.2241 24.9328C35.3505 24.7518 35.458 24.5895 35.5528 24.4397C35.6412 24.29 35.7234 24.1464 35.7992 23.9967C35.8182 23.9467 35.8119 23.8906 35.7613 23.8344C35.7487 23.8219 35.736 23.8094 35.7234 23.797C35.7107 23.7845 35.6855 23.772 35.6602 23.7533C35.6349 23.7345 35.597 23.7221 35.5528 23.6971C35.5085 23.6784 35.4516 23.6534 35.3821 23.6285C35.3632 23.6222 35.3442 23.6222 35.3316 23.6222C35.3189 23.6222 35.3063 23.6285 35.3063 23.6409C35.281 23.7158 35.2494 23.7907 35.2178 23.8718C35.1862 23.9467 35.1546 24.0279 35.123 24.1027C35.1104 24.1402 35.0724 24.2151 35.0219 24.3212C34.9713 24.4273 34.9144 24.5458 34.8449 24.6769C34.7754 24.8079 34.6996 24.9452 34.6237 25.0825C34.5479 25.2198 34.4721 25.3446 34.3962 25.4445C34.3267 25.5506 34.2635 25.6255 34.2066 25.6754C34.1497 25.7253 34.1118 25.7316 34.0865 25.6879C34.0613 25.6442 34.0613 25.5755 34.0865 25.4694C34.1118 25.3634 34.1497 25.2323 34.194 25.07C34.2066 25.0326 34.2193 24.9827 34.2382 24.9328C34.2572 24.8828 34.2825 24.8329 34.3014 24.7767C34.3204 24.7206 34.3457 24.6769 34.3646 24.6332C34.3836 24.5895 34.4025 24.5458 34.4215 24.5146C34.4531 24.4397 34.4594 24.3649 34.4341 24.29C34.4152 24.2151 34.3709 24.1652 34.3014 24.1215L34.1434 24.0341C34.1308 24.0279 34.1118 24.0279 34.0929 24.0341C34.0739 24.0403 34.0613 24.0591 34.0549 24.0778C34.017 24.1527 33.9917 24.2213 33.9601 24.2962C33.9349 24.3711 33.9096 24.4397 33.8843 24.5146C33.859 24.5833 33.8401 24.6582 33.8085 24.7393C33.7832 24.8204 33.7579 24.9015 33.7389 24.9889C33.72 25.0763 33.701 25.1699 33.6947 25.2635C33.6821 25.3571 33.6821 25.457 33.6947 25.5568C33.701 25.6192 33.72 25.6754 33.7453 25.7316C33.7705 25.7877 33.8021 25.8314 33.8401 25.8688C33.878 25.9063 33.9285 25.9375 33.9791 25.95C34.0423 25.9812 34.0992 25.9874 34.1687 25.9749Z" fill="url(#paint4_linear_146_5056)"/>
<path fill-rule="evenodd" clip-rule="evenodd" d="M35.6916 22.2618C35.5589 22.2555 35.4199 22.2555 35.2872 22.2618C35.1292 22.268 34.9775 22.2742 34.8195 22.293C34.6425 22.3117 34.4656 22.3304 34.2886 22.3616C34.1243 22.3928 33.96 22.424 33.7957 22.4552L33.7704 22.4615L33.5997 22.3928C33.5934 22.3991 33.5934 22.4115 33.5871 22.4178C33.5808 22.4365 33.5745 22.4552 33.5681 22.4677L33.5492 22.5176L33.4986 22.5301C33.2522 22.5988 33.0057 22.6799 32.7718 22.7797C32.538 22.8796 32.3168 22.9982 32.1083 23.1292C32.083 23.1479 32.064 23.1729 32.0451 23.1979C32.0324 23.2291 32.0198 23.2603 32.0198 23.2977C32.0261 23.3352 32.0324 23.3664 32.0514 23.4038C32.0703 23.4412 32.0956 23.4787 32.1272 23.5099C32.1525 23.5411 32.1841 23.5723 32.2094 23.6035C32.361 23.4724 32.5254 23.3539 32.7023 23.2478C32.8793 23.1417 33.0626 23.0481 33.2522 22.967L33.4354 22.8858L33.3849 23.0793C33.2964 23.41 33.2269 23.747 33.1637 24.0778C33.1005 24.4148 33.0499 24.7518 33.012 25.0888C32.993 25.2448 32.9804 25.3946 32.9678 25.5506C32.9551 25.7066 32.9488 25.8626 32.9488 26.0186C32.9488 26.0561 32.9551 26.0873 32.9614 26.1247C32.9741 26.1559 32.9867 26.1871 33.012 26.2183C33.031 26.2433 33.0562 26.262 33.0815 26.2745C33.0878 26.2807 33.0942 26.2807 33.1068 26.287C33.1131 26.1497 33.1194 26.0186 33.1384 25.8813C33.1574 25.7253 33.1826 25.5755 33.2079 25.4258C33.2838 24.964 33.3785 24.5084 33.4986 24.0653C33.6187 23.6222 33.7641 23.1854 33.9347 22.761L33.9537 22.7173L33.9979 22.7048C34.2317 22.6362 34.4719 22.5738 34.7184 22.5301C34.9585 22.4864 35.1987 22.449 35.4452 22.4303C35.4768 22.4303 35.5084 22.4178 35.5399 22.4053C35.5715 22.3928 35.6031 22.3741 35.6284 22.3554C35.6537 22.3366 35.6663 22.3117 35.6853 22.2867C35.6853 22.2805 35.6853 22.2742 35.6916 22.2618ZM35.7106 23.9592C35.6347 24.109 35.5526 24.2525 35.4704 24.3898C35.3693 24.5583 35.2619 24.7143 35.1481 24.8766C35.0723 24.9827 34.9964 25.0888 34.9206 25.1949C34.8384 25.301 34.7563 25.407 34.6678 25.5069C34.5856 25.5943 34.4972 25.6816 34.4024 25.7565C34.3265 25.8127 34.2444 25.8626 34.1559 25.8813C34.1117 25.8876 34.0674 25.8938 34.0232 25.8751C33.9853 25.8626 33.9473 25.8439 33.9221 25.8127C33.8905 25.7815 33.8652 25.744 33.8462 25.7004C33.8273 25.6567 33.8083 25.6067 33.802 25.5568C33.7957 25.4694 33.7957 25.3758 33.802 25.2885C33.8083 25.2011 33.8273 25.1137 33.8462 25.0264C33.8652 24.9452 33.8841 24.8641 33.9157 24.783C33.941 24.7081 33.9663 24.6332 33.9853 24.5646C34.0105 24.4897 34.0358 24.421 34.0611 24.3461C34.0864 24.2837 34.1117 24.2151 34.1433 24.1527L34.2633 24.2151C34.3076 24.24 34.3329 24.2775 34.3518 24.3274C34.3708 24.3836 34.3645 24.4335 34.3392 24.4897C34.3202 24.5271 34.3076 24.5646 34.2886 24.602C34.2633 24.6519 34.2444 24.7018 34.2191 24.7518C34.1938 24.8017 34.1749 24.8579 34.1559 24.9078C34.1369 24.9577 34.118 25.0076 34.1053 25.0576C34.0674 25.1886 34.0295 25.3259 33.9979 25.457C33.9789 25.5443 33.96 25.6629 34.0042 25.744C34.0674 25.8626 34.1938 25.8252 34.276 25.7503C34.3518 25.6816 34.4213 25.588 34.4845 25.5007C34.5667 25.3821 34.6425 25.2573 34.712 25.1325C34.7879 24.9952 34.8637 24.8641 34.9332 24.7268C34.9964 24.6082 35.0533 24.4897 35.1102 24.3649C35.1418 24.29 35.1797 24.2151 35.2113 24.1402C35.2429 24.0653 35.2745 23.9842 35.3061 23.9093C35.3314 23.8531 35.3504 23.7907 35.3756 23.7346C35.4199 23.7533 35.4704 23.772 35.5147 23.7907C35.5463 23.8032 35.5842 23.8219 35.6158 23.8406C35.6347 23.8531 35.6537 23.8656 35.6663 23.8781C35.6727 23.8843 35.6853 23.8906 35.6916 23.903C35.6979 23.9093 35.7169 23.9343 35.7106 23.9592Z" fill="url(#paint5_linear_146_5056)"/>
</g>
</g>
<defs>
<filter id="filter0_d_146_5056" x="-2" y="6" width="52.0001" height="44.9858" filterUnits="userSpaceOnUse" color-interpolation-filters="sRGB">
<feFlood flood-opacity="0" result="BackgroundImageFix"/>
<feColorMatrix in="SourceAlpha" type="matrix" values="0 0 0 0 0 0 0 0 0 0 0 0 0 0 0 0 0 0 127 0" result="hardAlpha"/>
<feOffset dy="4"/>
<feGaussianBlur stdDeviation="6.5"/>
<feComposite in2="hardAlpha" operator="out"/>
<feColorMatrix type="matrix" values="0 0 0 0 0 0 0 0 0 0 0 0 0 0 0 0 0 0 0.25 0"/>
<feBlend mode="normal" in2="BackgroundImageFix" result="effect1_dropShadow_146_5056"/>
<feBlend mode="normal" in="SourceGraphic" in2="effect1_dropShadow_146_5056" result="shape"/>
</filter>
<linearGradient id="paint0_linear_146_5056" x1="25.8068" y1="27.2744" x2="36.8986" y2="27.0026" gradientUnits="userSpaceOnUse">
<stop stop-color="#EEC55D"/>
<stop offset="0.15" stop-color="#A77029"/>
<stop offset="0.32" stop-color="#E2B756"/>
<stop offset="0.46" stop-color="#F9F2B6"/>
<stop offset="0.63" stop-color="#E2B756"/>
<stop offset="0.81" stop-color="#905E25"/>
<stop offset="1" stop-color="#E2B756"/>
</linearGradient>
<linearGradient id="paint1_linear_146_5056" x1="26.2224" y1="27.2501" x2="36.8088" y2="27.0002" gradientUnits="userSpaceOnUse">
<stop stop-color="#EEC55D"/>
<stop offset="0.15" stop-color="#A77029"/>
<stop offset="0.32" stop-color="#E2B756"/>
<stop offset="0.46" stop-color="#F9F2B6"/>
<stop offset="0.63" stop-color="#E2B756"/>
<stop offset="0.81" stop-color="#905E25"/>
<stop offset="1" stop-color="#E2B756"/>
</linearGradient>
<linearGradient id="paint2_linear_146_5056" x1="11.3086" y1="25.6295" x2="31.2318" y2="23.4587" gradientUnits="userSpaceOnUse">
<stop stop-color="#EEC55D"/>
<stop offset="0.15" stop-color="#A77029"/>
<stop offset="0.32" stop-color="#E2B756"/>
<stop offset="0.46" stop-color="#F9F2B6"/>
<stop offset="0.63" stop-color="#E2B756"/>
<stop offset="0.81" stop-color="#905E25"/>
<stop offset="1" stop-color="#E2B756"/>
</linearGradient>
<linearGradient id="paint3_linear_146_5056" x1="11.4987" y1="25.5684" x2="31.0354" y2="23.3734" gradientUnits="userSpaceOnUse">
<stop stop-color="#EEC55D"/>
<stop offset="0.15" stop-color="#A77029"/>
<stop offset="0.32" stop-color="#E2B756"/>
<stop offset="0.46" stop-color="#F9F2B6"/>
<stop offset="0.63" stop-color="#E2B756"/>
<stop offset="0.81" stop-color="#905E25"/>
<stop offset="1" stop-color="#E2B756"/>
</linearGradient>
<linearGradient id="paint4_linear_146_5056" x1="31.9754" y1="24.8968" x2="35.7712" y2="24.754" gradientUnits="userSpaceOnUse">
<stop stop-color="#EEC55D"/>
<stop offset="0.15" stop-color="#A77029"/>
<stop offset="0.32" stop-color="#E2B756"/>
<stop offset="0.46" stop-color="#F9F2B6"/>
<stop offset="0.63" stop-color="#E2B756"/>
<stop offset="0.81" stop-color="#905E25"/>
<stop offset="1" stop-color="#E2B756"/>
</linearGradient>
<linearGradient id="paint5_linear_146_5056" x1="32.075" y1="24.8624" x2="35.676" y2="24.7273" gradientUnits="userSpaceOnUse">
<stop stop-color="#EEC55D"/>
<stop offset="0.15" stop-color="#A77029"/>
<stop offset="0.32" stop-color="#E2B756"/>
<stop offset="0.46" stop-color="#F9F2B6"/>
<stop offset="0.63" stop-color="#E2B756"/>
<stop offset="0.81" stop-color="#905E25"/>
<stop offset="1" stop-color="#E2B756"/>
</linearGradient>
<clipPath id="clip0_146_5056">
<rect width="48" height="48" rx="12" fill="white"/>
</clipPath>
</defs>
</svg>
