<svg width="26" height="19" viewBox="0 0 26 19" fill="none" xmlns="http://www.w3.org/2000/svg">
<path fill-rule="evenodd" clip-rule="evenodd" d="M26.0001 1.82004V17.1595C26.0001 17.8086 25.6841 18.364 25.128 18.7072C24.5718 19.0504 23.9272 19.0754 23.3395 18.7883L14.6433 14.5073H15.0162L23.251 18.5637C23.8008 18.832 24.4012 18.8071 24.9258 18.4888C25.444 18.1705 25.741 17.6525 25.741 17.0472V2.73117C25.741 2.12583 25.4503 1.60786 24.9258 1.28959C24.4075 0.971313 23.8008 0.946351 23.251 1.2147L16.6151 4.48479H14.637L23.3332 0.197474C23.9209 -0.0895948 24.5655 -0.0646321 25.1217 0.278603C25.6905 0.615597 26.0001 1.17101 26.0001 1.82004Z" fill="url(#paint0_linear_0_91)"/>
<path fill-rule="evenodd" clip-rule="evenodd" d="M15.0603 4.38496H16.5897L23.2066 1.12735C23.7817 0.840281 24.4263 0.871483 24.9762 1.20848C25.526 1.54547 25.8357 2.09465 25.8357 2.73743V17.0535C25.8357 17.69 25.526 18.2454 24.9762 18.5824C24.5591 18.8383 24.0851 18.9132 23.63 18.8133C24.1167 18.9693 24.6286 18.9132 25.0773 18.6386C25.6082 18.3141 25.9052 17.7899 25.9052 17.172V1.82006C25.9052 1.20848 25.6082 0.678024 25.0773 0.353511C24.5527 0.0289975 23.9334 0.00403507 23.3836 0.278623L15.0603 4.38496Z" fill="url(#paint1_linear_0_91)"/>
<path fill-rule="evenodd" clip-rule="evenodd" d="M3.58337 13.3715H0V5.61438H3.53913C4.31016 5.61438 4.91687 5.80784 5.36558 6.18852C5.81429 6.5692 6.04181 7.07469 6.04181 7.70499C6.04181 8.09191 5.94701 8.43515 5.75109 8.72846C5.55518 9.02177 5.29606 9.22771 4.97375 9.34004C5.39086 9.45861 5.72581 9.67079 5.97861 9.98907C6.2314 10.3011 6.3578 10.6568 6.3578 11.0562C6.3578 11.7676 6.11133 12.3293 5.61206 12.7474C5.1191 13.1593 4.44288 13.3715 3.58337 13.3715ZM2.035 7.28687V8.62861H3.15362C3.40642 8.62861 3.60865 8.57244 3.76033 8.45387C3.91201 8.3353 3.98785 8.17304 3.98785 7.9671C3.98785 7.51153 3.70977 7.28687 3.15994 7.28687H2.035ZM2.035 10.2137V11.6928H3.29266C3.60233 11.6928 3.84249 11.6179 4.01312 11.4743C4.19008 11.3308 4.27224 11.1498 4.27224 10.9376C4.27224 10.7255 4.19008 10.5507 4.01945 10.4134C3.84881 10.2761 3.60865 10.2137 3.28634 10.2137H2.035ZM12.6903 13.3715H7.46378V5.61438H12.6903V7.42416H9.59358V8.57244H12.2859V10.2075H9.59358V11.5617H12.6903V13.3715ZM18.6184 13.3715L16.0651 10.2262V13.3715H13.9417V5.61438H16.0651V8.7035L18.5173 5.61438H20.3184V6.41942L17.9737 9.29636L20.6407 12.554V13.3715H18.6184Z" fill="url(#paint2_linear_0_91)"/>
<path fill-rule="evenodd" clip-rule="evenodd" d="M0.195908 5.80159V13.178H3.58337C4.25959 13.178 4.9611 13.0407 5.49197 12.5976C5.97228 12.192 6.1682 11.6678 6.1682 11.05C6.1682 10.6943 6.05444 10.376 5.83324 10.0951C5.59941 9.80184 5.28973 9.61462 4.92318 9.51477L4.33543 9.35251L4.91054 9.15281C5.20126 9.05296 5.42245 8.87198 5.58677 8.61612C5.77004 8.33529 5.84588 8.0295 5.84588 7.69874C5.84588 7.14957 5.66261 6.68776 5.23917 6.3258C4.76518 5.92016 4.14583 5.79535 3.53913 5.79535H0.195908V5.80159ZM1.83908 7.09964H3.16625C3.74768 7.09964 4.18375 7.34927 4.18375 7.97333C4.18375 8.2292 4.08896 8.45386 3.8804 8.60988C3.67184 8.77213 3.41273 8.8283 3.15361 8.8283H1.83908V7.09964ZM1.83908 10.0265H3.29265C3.58968 10.0265 3.912 10.0827 4.14583 10.2699C4.36071 10.4384 4.46815 10.6693 4.46815 10.9376C4.46815 11.2122 4.34807 11.4431 4.13951 11.6179C3.89936 11.8176 3.596 11.88 3.29265 11.88H1.83908V10.0265ZM12.5007 13.178V11.7489H9.40398V10.014H12.0962V8.75965H9.40398V7.2307H12.5007V5.80159H7.65969V13.178H12.5007ZM18.7132 13.178H20.4511V12.6164L17.7273 9.29011L20.1288 6.35077V5.80159H18.612L15.8755 9.25266V5.80159H14.1313V13.178H15.8755V9.68327L18.7132 13.178Z" fill="url(#paint3_linear_0_91)"/>
<path fill-rule="evenodd" clip-rule="evenodd" d="M24.7929 7.21189C24.7929 7.25558 24.7866 7.29302 24.7613 7.33047C24.7423 7.36791 24.717 7.39911 24.6854 7.42408C24.6538 7.44904 24.6159 7.474 24.5717 7.49272C24.5274 7.51144 24.4895 7.52393 24.4453 7.52393C24.2051 7.54265 23.965 7.57385 23.7311 7.61754C23.4973 7.66122 23.2571 7.72363 23.0233 7.79227C22.8527 8.21664 22.7073 8.64724 22.5872 9.09033C22.4672 9.53341 22.366 9.98274 22.2965 10.4445C22.2712 10.5943 22.246 10.7503 22.227 10.9001C22.208 11.0499 22.1954 11.1997 22.1954 11.3494C22.1954 11.3744 22.1828 11.3931 22.1575 11.3931C22.1132 11.3994 22.069 11.3869 22.0311 11.3682C21.9932 11.3494 21.9616 11.3182 21.93 11.287C21.9047 11.2496 21.8794 11.2121 21.8668 11.1685C21.8541 11.1248 21.8478 11.0811 21.8478 11.0312C21.8478 10.8689 21.8604 10.7129 21.8731 10.5569C21.8857 10.4009 21.8984 10.2448 21.9173 10.0888C21.9616 9.74559 22.0121 9.4086 22.069 9.0716C22.1322 8.73461 22.2017 8.39762 22.2902 8.06062C22.1069 8.14175 21.9236 8.23536 21.753 8.33521C21.5761 8.4413 21.4117 8.55987 21.2474 8.69717C21.2348 8.70965 21.2158 8.71589 21.1969 8.70965C21.1779 8.70965 21.1653 8.69717 21.1463 8.68469C21.1147 8.64724 21.0831 8.6098 21.0452 8.57235C21.0073 8.53491 20.982 8.49122 20.9567 8.44754C20.9314 8.40386 20.9188 8.35393 20.9188 8.31025C20.9125 8.26032 20.9251 8.2104 20.9567 8.15423C20.982 8.11055 21.0136 8.07934 21.0515 8.05438C21.2664 7.91709 21.4939 7.79851 21.7341 7.69242C21.9742 7.59257 22.2207 7.5052 22.4735 7.43656C22.4798 7.41784 22.4861 7.39911 22.4924 7.38039C22.4988 7.36167 22.5051 7.34919 22.5114 7.33047C22.5177 7.31174 22.5304 7.29926 22.5493 7.28678C22.5683 7.28054 22.5872 7.2743 22.6062 7.28678L22.7768 7.35543C22.9411 7.32423 23.1055 7.29302 23.2761 7.26182C23.4404 7.23062 23.6237 7.20565 23.8133 7.19317C23.9713 7.18069 24.1293 7.16821 24.2873 7.16197C24.4453 7.15573 24.6033 7.15573 24.7613 7.16197C24.7739 7.16197 24.7866 7.16821 24.7929 7.17445C24.7929 7.18693 24.7929 7.19941 24.7929 7.21189ZM23.1687 10.975C23.2635 10.9563 23.3583 10.9064 23.4531 10.8315C23.5479 10.7566 23.6427 10.6692 23.7311 10.5694C23.8196 10.4695 23.9081 10.3634 23.9903 10.2511C24.0724 10.1388 24.1482 10.0327 24.2241 9.93281C24.3505 9.75183 24.4579 9.58958 24.5527 9.4398C24.6412 9.29003 24.7234 9.14649 24.7992 8.99672C24.8182 8.94679 24.8118 8.89063 24.7613 8.83446C24.7486 8.82198 24.736 8.8095 24.7234 8.79702C24.7107 8.78453 24.6854 8.77205 24.6602 8.75333C24.6349 8.73461 24.597 8.72213 24.5527 8.69717C24.5085 8.67844 24.4516 8.65348 24.3821 8.62852C24.3631 8.62228 24.3442 8.62228 24.3315 8.62228C24.3189 8.62228 24.3062 8.62852 24.3062 8.641C24.281 8.71589 24.2494 8.79078 24.2178 8.8719C24.1862 8.94679 24.1546 9.02792 24.123 9.10281C24.1103 9.14025 24.0724 9.21514 24.0218 9.32123C23.9713 9.42732 23.9144 9.54589 23.8449 9.67695C23.7754 9.808 23.6995 9.94529 23.6237 10.0826C23.5479 10.2199 23.472 10.3447 23.3962 10.4445C23.3267 10.5506 23.2635 10.6255 23.2066 10.6754C23.1497 10.7254 23.1118 10.7316 23.0865 10.6879C23.0612 10.6442 23.0612 10.5756 23.0865 10.4695C23.1118 10.3634 23.1497 10.2324 23.1939 10.0701C23.2066 10.0327 23.2192 9.98274 23.2382 9.93281C23.2571 9.88289 23.2824 9.83296 23.3014 9.7768C23.3203 9.72063 23.3456 9.67695 23.3646 9.63326C23.3835 9.58958 23.4025 9.54589 23.4215 9.51469C23.4531 9.4398 23.4594 9.36491 23.4341 9.29003C23.4151 9.21514 23.3709 9.16521 23.3014 9.12153L23.1434 9.03416C23.1307 9.02792 23.1118 9.02792 23.0928 9.03416C23.0739 9.0404 23.0612 9.05912 23.0549 9.07784C23.017 9.15273 22.9917 9.22138 22.9601 9.29627C22.9348 9.37115 22.9096 9.4398 22.8843 9.51469C22.859 9.58334 22.84 9.65822 22.8084 9.73935C22.7832 9.82048 22.7579 9.90161 22.7389 9.98898C22.72 10.0763 22.701 10.17 22.6947 10.2636C22.682 10.3572 22.682 10.457 22.6947 10.5569C22.701 10.6193 22.72 10.6754 22.7452 10.7316C22.7705 10.7878 22.8021 10.8315 22.84 10.8689C22.8779 10.9064 22.9285 10.9376 22.9791 10.95C23.0423 10.9812 23.0991 10.9875 23.1687 10.975Z" fill="url(#paint4_linear_0_91)"/>
<path fill-rule="evenodd" clip-rule="evenodd" d="M24.6917 7.26182C24.559 7.25558 24.4199 7.25558 24.2872 7.26182C24.1292 7.26806 23.9775 7.2743 23.8195 7.29302C23.6426 7.31175 23.4656 7.33047 23.2887 7.36167C23.1243 7.39288 22.96 7.42408 22.7957 7.45528L22.7704 7.46152L22.5998 7.39288C22.5935 7.39912 22.5935 7.4116 22.5872 7.41784C22.5808 7.43656 22.5745 7.45528 22.5682 7.46776L22.5492 7.51769L22.4987 7.53017C22.2522 7.59882 22.0057 7.67995 21.7719 7.7798C21.5381 7.87965 21.3169 7.99822 21.1083 8.12927C21.083 8.14799 21.0641 8.17295 21.0451 8.19792C21.0325 8.22912 21.0198 8.26032 21.0198 8.29777C21.0261 8.33521 21.0325 8.36642 21.0514 8.40386C21.0704 8.4413 21.0957 8.47875 21.1273 8.50995C21.1525 8.54115 21.1841 8.57236 21.2094 8.60356C21.3611 8.47251 21.5254 8.35393 21.7024 8.24784C21.8793 8.14175 22.0626 8.04814 22.2522 7.96701L22.4355 7.88589L22.3849 8.07935C22.2964 8.4101 22.2269 8.74709 22.1637 9.07785C22.1005 9.41484 22.05 9.75184 22.012 10.0888C21.9931 10.2448 21.9804 10.3946 21.9678 10.5506C21.9552 10.7067 21.9488 10.8627 21.9488 11.0187C21.9488 11.0561 21.9552 11.0873 21.9615 11.1248C21.9741 11.156 21.9868 11.1872 22.012 11.2184C22.031 11.2433 22.0563 11.2621 22.0816 11.2746C22.0879 11.2808 22.0942 11.2808 22.1068 11.287C22.1132 11.1497 22.1195 11.0187 22.1384 10.8814C22.1574 10.7254 22.1827 10.5756 22.208 10.4258C22.2838 9.96402 22.3786 9.50845 22.4987 9.06537C22.6188 8.62228 22.7641 8.18544 22.9347 7.76107L22.9537 7.71739L22.9979 7.70491C23.2318 7.63626 23.4719 7.57385 23.7184 7.53017C23.9586 7.48649 24.1987 7.44904 24.4452 7.43032C24.4768 7.43032 24.5084 7.41784 24.54 7.40536C24.5716 7.39288 24.6032 7.37415 24.6285 7.35543C24.6538 7.33671 24.6664 7.31175 24.6854 7.28678C24.6854 7.28054 24.6854 7.2743 24.6917 7.26182ZM24.7106 8.95928C24.6348 9.10905 24.5526 9.25259 24.4705 9.38988C24.3694 9.55838 24.2619 9.71439 24.1482 9.87665C24.0723 9.98274 23.9965 10.0888 23.9206 10.1949C23.8385 10.301 23.7563 10.4071 23.6679 10.507C23.5857 10.5943 23.4972 10.6817 23.4024 10.7566C23.3266 10.8127 23.2444 10.8627 23.1559 10.8814C23.1117 10.8876 23.0675 10.8939 23.0232 10.8751C22.9853 10.8627 22.9474 10.8439 22.9221 10.8127C22.8905 10.7815 22.8652 10.7441 22.8463 10.7004C22.8273 10.6567 22.8083 10.6068 22.802 10.5569C22.7957 10.4695 22.7957 10.3759 22.802 10.2885C22.8083 10.2012 22.8273 10.1138 22.8463 10.0264C22.8652 9.9453 22.8842 9.86417 22.9158 9.78304C22.9411 9.70815 22.9663 9.63326 22.9853 9.56462C23.0106 9.48973 23.0359 9.42108 23.0611 9.34619C23.0864 9.28379 23.1117 9.21514 23.1433 9.15274L23.2634 9.21514C23.3076 9.2401 23.3329 9.27755 23.3519 9.32747C23.3708 9.38364 23.3645 9.43356 23.3392 9.48973C23.3203 9.52717 23.3076 9.56462 23.2887 9.60206C23.2634 9.65199 23.2444 9.70191 23.2191 9.75184C23.1939 9.80176 23.1749 9.85793 23.1559 9.90785C23.137 9.95778 23.118 10.0077 23.1054 10.0576C23.0675 10.1887 23.0295 10.326 22.9979 10.457C22.979 10.5444 22.96 10.663 23.0043 10.7441C23.0675 10.8627 23.1939 10.8252 23.276 10.7503C23.3519 10.6817 23.4214 10.5881 23.4846 10.5007C23.5667 10.3821 23.6426 10.2573 23.7121 10.1325C23.7879 9.99522 23.8638 9.86417 23.9333 9.72687C23.9965 9.6083 24.0534 9.48973 24.1102 9.36492C24.1418 9.29003 24.1798 9.21514 24.2114 9.14025C24.243 9.06537 24.2746 8.98424 24.3062 8.90935C24.3314 8.85318 24.3504 8.79078 24.3757 8.73461C24.4199 8.75333 24.4705 8.77206 24.5147 8.79078C24.5463 8.80326 24.5842 8.82198 24.6158 8.8407C24.6348 8.85319 24.6538 8.86566 24.6664 8.87815C24.6727 8.88439 24.6854 8.89063 24.6917 8.90311C24.698 8.90935 24.717 8.93431 24.7106 8.95928Z" fill="url(#paint5_linear_0_91)"/>
<defs>
<linearGradient id="paint0_linear_0_91" x1="14.8069" y1="12.2744" x2="25.8986" y2="12.0026" gradientUnits="userSpaceOnUse">
<stop stop-color="#EEC55D"/>
<stop offset="0.15" stop-color="#A77029"/>
<stop offset="0.32" stop-color="#E2B756"/>
<stop offset="0.46" stop-color="#F9F2B6"/>
<stop offset="0.63" stop-color="#E2B756"/>
<stop offset="0.81" stop-color="#905E25"/>
<stop offset="1" stop-color="#E2B756"/>
</linearGradient>
<linearGradient id="paint1_linear_0_91" x1="15.2224" y1="12.2501" x2="25.8087" y2="12.0002" gradientUnits="userSpaceOnUse">
<stop stop-color="#EEC55D"/>
<stop offset="0.15" stop-color="#A77029"/>
<stop offset="0.32" stop-color="#E2B756"/>
<stop offset="0.46" stop-color="#F9F2B6"/>
<stop offset="0.63" stop-color="#E2B756"/>
<stop offset="0.81" stop-color="#905E25"/>
<stop offset="1" stop-color="#E2B756"/>
</linearGradient>
<linearGradient id="paint2_linear_0_91" x1="0.308581" y1="10.6294" x2="20.2318" y2="8.45855" gradientUnits="userSpaceOnUse">
<stop stop-color="#EEC55D"/>
<stop offset="0.15" stop-color="#A77029"/>
<stop offset="0.32" stop-color="#E2B756"/>
<stop offset="0.46" stop-color="#F9F2B6"/>
<stop offset="0.63" stop-color="#E2B756"/>
<stop offset="0.81" stop-color="#905E25"/>
<stop offset="1" stop-color="#E2B756"/>
</linearGradient>
<linearGradient id="paint3_linear_0_91" x1="0.498725" y1="10.5683" x2="20.0354" y2="8.37337" gradientUnits="userSpaceOnUse">
<stop stop-color="#EEC55D"/>
<stop offset="0.15" stop-color="#A77029"/>
<stop offset="0.32" stop-color="#E2B756"/>
<stop offset="0.46" stop-color="#F9F2B6"/>
<stop offset="0.63" stop-color="#E2B756"/>
<stop offset="0.81" stop-color="#905E25"/>
<stop offset="1" stop-color="#E2B756"/>
</linearGradient>
<linearGradient id="paint4_linear_0_91" x1="20.9754" y1="9.89683" x2="24.7712" y2="9.75408" gradientUnits="userSpaceOnUse">
<stop stop-color="#EEC55D"/>
<stop offset="0.15" stop-color="#A77029"/>
<stop offset="0.32" stop-color="#E2B756"/>
<stop offset="0.46" stop-color="#F9F2B6"/>
<stop offset="0.63" stop-color="#E2B756"/>
<stop offset="0.81" stop-color="#905E25"/>
<stop offset="1" stop-color="#E2B756"/>
</linearGradient>
<linearGradient id="paint5_linear_0_91" x1="21.075" y1="9.86249" x2="24.676" y2="9.72739" gradientUnits="userSpaceOnUse">
<stop stop-color="#EEC55D"/>
<stop offset="0.15" stop-color="#A77029"/>
<stop offset="0.32" stop-color="#E2B756"/>
<stop offset="0.46" stop-color="#F9F2B6"/>
<stop offset="0.63" stop-color="#E2B756"/>
<stop offset="0.81" stop-color="#905E25"/>
<stop offset="1" stop-color="#E2B756"/>
</linearGradient>
</defs>
</svg>
