<svg xmlns="http://www.w3.org/2000/svg" width="244" height="67" viewBox="0 0 244 67" fill="none">
<path fill-rule="evenodd" clip-rule="evenodd" d="M0 0.0400391L22.6173 11.3698H17.5962L2.25008 3.68183V63.3557L12.2178 58.357L12.4064 40.7211H14.881L25.5136 51.6899L34.396 47.2356L24.5833 37.9563C26.5307 36.8077 28.049 35.2857 29.138 33.3904C30.2271 31.4938 30.7716 29.4844 30.7716 27.3621C30.7716 25.2398 30.3809 23.1944 29.6019 21.4727C29.1665 20.3973 28.6009 19.3417 27.8988 18.409C26.5617 16.6327 24.7272 15.3006 22.425 13.9498H39.494C44.1479 13.9498 47.8269 15.1678 50.5335 17.6027C53.24 20.0376 54.5933 23.3259 54.5933 27.4663C54.5933 31.2929 53.2735 34.5725 50.6327 37.3038C47.9919 40.0352 44.2794 41.4008 39.494 41.4008H36.2268V46.3177L61.7801 33.5033L56.8198 31.0188C56.9773 30.2522 57.0827 29.4671 57.1348 28.6608L66.7999 33.502C44.432 44.7189 22.3928 55.7708 0.00127188 67V0.0400391H0ZM12.2067 22.8731V32.2666H15.6723C17.2241 32.2666 18.4533 31.8139 19.36 30.9096C20.268 30.0054 20.722 28.8221 20.722 27.3609C20.722 25.8997 20.2767 24.8726 19.3848 24.0726C18.4942 23.2725 17.2563 22.8719 15.6723 22.8719H12.2067V22.8731ZM36.0284 22.821V32.4762H39.4444C40.9961 32.4762 42.2328 32.0148 43.1569 31.0932C44.081 30.1716 44.5437 28.9622 44.5437 27.4663C44.5437 25.9704 44.0897 24.9086 43.1817 24.0738C42.2738 23.2391 41.0284 22.821 39.4444 22.821H36.0284Z" fill="#AD1F58"/>
<path fill-rule="evenodd" clip-rule="evenodd" d="M0.555664 0.939453V66.0984C22.2228 55.2326 43.8899 44.3667 65.5571 33.5009L57.6161 29.523C57.5727 29.9199 57.5156 30.3156 57.4449 30.7088L63.0205 33.5022L35.6711 47.2172V40.844H39.494C43.4992 40.844 47.3791 39.8691 50.2333 36.917C52.7835 34.2786 54.0375 31.133 54.0375 27.4664C54.0375 23.7998 52.9349 20.5116 50.1626 18.0159C47.2167 15.3639 43.3677 14.5056 39.4952 14.5056H24.3761C25.8683 15.4954 27.2576 16.6316 28.3441 18.0742C29.0735 19.0429 29.6577 20.1308 30.1129 21.2521C30.9824 23.1759 31.3285 25.2598 31.3285 27.361C31.3285 29.6098 30.7418 31.7148 29.6205 33.6659C28.5885 35.462 27.198 36.917 25.4888 38.0457L35.3548 47.3759L25.3982 52.3685L14.6453 41.2769H12.9559L12.7698 58.7019L1.69436 64.2564V2.78144L17.7276 10.813H20.2667L0.556936 0.939453H0.555664ZM35.4714 22.2642H39.4432C40.949 22.2642 42.425 22.6215 43.5575 23.6634C44.6503 24.6693 45.0981 25.9966 45.0981 27.4652C45.0981 28.9338 44.6441 30.3925 43.5489 31.4853C42.435 32.5967 40.9961 33.0308 39.4432 33.0308H35.4714V22.2642ZM12.7611 23.4277H15.6711C16.8631 23.4277 18.0998 23.6659 19.0127 24.4858C19.8562 25.2424 20.165 26.2447 20.165 27.3598C20.165 28.5667 19.8313 29.6532 18.9668 30.5153C18.075 31.4047 16.9065 31.7098 15.6711 31.7098H12.7611V23.4277Z" fill="url(#paint0_linear_4801_2749)"/>
<path fill-rule="evenodd" clip-rule="evenodd" d="M97.0829 34.5441L103.006 44.3941H96.4478L90.5075 34.6123H87.1287V44.3941H81.1997V19.0789H96.2555C97.5418 19.0789 98.6532 19.5404 99.5612 20.452C100.465 21.3588 100.921 22.4764 100.921 23.7564V29.9373C100.921 31.2174 100.459 32.335 99.555 33.2417C98.8492 33.95 98.0206 34.3866 97.0816 34.5466L97.0829 34.5441ZM87.1287 29.0356H94.3031C94.4607 29.0356 94.581 28.9884 94.6926 28.8768C94.8043 28.7651 94.8514 28.651 94.8514 28.4935V25.2325C94.8514 25.0651 94.7969 24.941 94.6815 24.8195C94.5736 24.7066 94.4594 24.6545 94.3031 24.6545H87.1287V29.0343V29.0356ZM104.335 44.3941V19.0789H110.335V44.3941H104.335ZM122.544 26.5064L127.011 19.043H133.425L125.231 32.5483V44.3941H119.302V32.5483L111.114 19.043H118.121L122.544 26.5064ZM147.943 39.6446L149.626 44.3941H156.247L146.862 19.043H141.217L131.826 44.3941H137.967L139.651 39.6446H147.943ZM141.489 34.4201L143.757 27.98L146.063 34.4201H141.488H141.489ZM168.399 32.9949V44.3941H165.284V19.0789H177.9C179.183 19.0789 180.301 19.5428 181.206 20.452C182.114 21.3637 182.577 22.4739 182.577 23.7614V28.3298C182.577 29.616 182.115 30.7274 181.204 31.6354C180.297 32.5397 179.179 32.9949 177.899 32.9949H168.397H168.399ZM168.399 30.0924H177.738C178.22 30.0924 178.612 29.9162 178.951 29.5726C179.296 29.2228 179.465 28.821 179.465 28.3298V23.7614C179.465 23.2739 179.3 22.872 178.955 22.5272C178.614 22.1861 178.22 22.0162 177.738 22.0162H168.399V30.0911V30.0924ZM189.267 41.4568H201.019V44.3593H186.153V19.0789H189.267V41.4556V41.4568ZM218.869 36.4084H209.213L206.018 44.3953H202.713L213.187 19.0802H215.223L225.431 44.3953H222.078L218.871 36.4084H218.869ZM210.376 33.5059H217.721L214.069 24.3308L210.376 33.5059ZM233.605 29.4722L227.392 19.1149H223.776L231.993 32.8063V44.3953H235.107V32.8063L243.331 19.1149H239.846L233.605 29.4722Z" fill="#AD1F58"/>
<path fill-rule="evenodd" clip-rule="evenodd" d="M81.8596 43.7339V19.7386H96.2556C97.3695 19.7386 98.3134 20.1318 99.0936 20.917C99.8738 21.6972 100.261 22.6473 100.261 23.755V29.9359C100.261 31.0448 99.8676 31.9936 99.0874 32.7738C98.3072 33.559 97.3632 33.9522 96.2494 33.9522H95.9566L101.839 43.7339H96.8187L90.8785 33.9522H86.4689V43.7339H81.8596ZM86.4689 29.6952H94.3032C94.6369 29.6952 94.9246 29.5774 95.159 29.3429C95.3935 29.1085 95.5114 28.8269 95.5114 28.492V25.231C95.5114 24.8974 95.3935 24.6096 95.159 24.3628C94.9246 24.1159 94.6369 23.9931 94.3032 23.9931H86.4689V29.6927V29.6952ZM104.995 43.7339V19.7386H109.675V43.7339H104.995ZM112.285 19.7026H117.744L122.541 27.7949L127.384 19.7026H132.252L124.57 32.3633V43.7339H119.961V32.3633L112.285 19.7026ZM132.775 43.7339L141.676 19.7026H146.402L155.298 43.7339H150.091L148.408 38.9845H139.184L137.501 43.7339H132.775ZM140.557 35.0785H147.002L143.754 26.0063L140.557 35.0785Z" fill="url(#paint1_linear_4801_2749)"/>
<path fill-rule="evenodd" clip-rule="evenodd" d="M165.946 43.7341V19.7388H177.903C179.012 19.7388 179.961 20.132 180.741 20.9171C181.527 21.7023 181.919 22.6475 181.919 23.7614V28.3297C181.919 29.4436 181.526 30.3875 180.741 31.1677C179.961 31.9479 179.011 32.3349 177.903 32.3349H167.74V43.7341H165.946ZM167.74 30.751H177.739C178.39 30.751 178.954 30.5103 179.422 30.0352C179.891 29.5602 180.126 28.9908 180.126 28.3285V23.7601C180.126 23.0978 179.891 22.5284 179.422 22.0595C178.954 21.5907 178.39 21.3562 177.739 21.3562H167.74V30.751ZM186.814 43.6994V19.7388H188.609V42.1154H200.36V43.6981H186.814V43.6994ZM203.701 43.7341L213.629 19.7388H214.778L224.455 43.7341H222.526L219.318 35.7472H208.769L205.572 43.7341H203.702H203.701ZM209.4 34.1645H218.694L214.074 22.5532L209.4 34.1645ZM224.943 19.7747H227.02L233.605 30.7522L240.22 19.7747H242.168L234.451 32.6227V43.7354H232.656V32.6227L224.945 19.7747H224.943Z" fill="url(#paint2_linear_4801_2749)"/>
<path fill-rule="evenodd" clip-rule="evenodd" d="M2.24887 14.3453V63.3543L12.2166 58.3556L12.4039 40.7197H14.8797L25.5124 51.6872L34.3948 47.233L24.5821 37.9536C26.5295 36.805 28.0477 35.2831 29.1367 33.3878C30.2258 31.4912 30.7704 29.483 30.7704 27.3595C30.7704 25.2359 30.3796 23.1918 29.6007 21.4701C29.1653 20.3947 28.5997 19.3391 27.8976 18.4063C27.5987 18.0094 27.2749 17.6336 26.9264 17.2763L52.8059 20.3513C53.9967 22.3471 54.592 24.7187 54.592 27.4649C54.592 31.2915 53.2723 34.5711 50.6315 37.3024C47.9907 40.0338 44.2782 41.3994 39.4928 41.3994H36.2256V46.3163L61.7789 33.5019L56.8186 31.0174C56.9761 30.2508 57.0815 29.4657 57.1336 28.6594L66.7987 33.5006C44.4308 44.7175 22.3915 55.7694 0 66.9986V14.0786L2.24887 14.3453ZM12.2067 22.873V32.2664H15.6723C17.2241 32.2664 18.4533 31.8137 19.36 30.9095C20.268 30.0052 20.722 28.8219 20.722 27.3607C20.722 25.8995 20.2767 24.8737 19.3848 24.0724C18.4942 23.2724 17.2563 22.8717 15.6723 22.8717H12.2067V22.873ZM36.0284 22.8209V32.4761H39.4444C40.9961 32.4761 42.2328 32.0147 43.1569 31.093C44.081 30.1714 44.5437 28.9621 44.5437 27.4661C44.5437 25.9702 44.0897 24.9085 43.1817 24.0737C42.2738 23.2389 41.0284 22.8209 39.4444 22.8209H36.0284Z" fill="#AD1F58"/>
<path fill-rule="evenodd" clip-rule="evenodd" d="M97.0829 34.544L103.006 44.3939H96.4478L90.5075 34.6122H87.1287V44.3939H81.1997V23.7266L89.0203 24.6556H87.1287V29.0354H94.3031C94.4607 29.0354 94.581 28.9883 94.6926 28.8767C94.8043 28.765 94.8514 28.6509 94.8514 28.4934V25.3477L100.921 26.0684V29.9347C100.921 31.2148 100.459 32.3324 99.555 33.2391C98.8492 33.9474 98.0206 34.384 97.0816 34.544H97.0829ZM104.335 26.4753L110.335 27.1885V44.3952H104.335V26.4765V26.4753ZM116.496 27.9203L127.263 29.1992L125.231 32.5482V44.3939H119.302V32.5482L116.496 27.9203ZM137.027 30.3602L142.683 31.0325L141.49 34.42H146.066L144.95 31.3016L151.698 32.1029L156.248 44.3952H149.627L147.944 39.6457H139.652L137.969 44.3952H131.827L137.026 30.3602H137.027ZM165.287 33.7179L168.402 34.0875V44.3952H165.287V33.7179ZM186.155 36.1974L189.27 36.5671V41.4567H201.021V44.3592H186.155V36.1962V36.1974ZM205.172 38.4562L208.249 38.8221L206.019 44.3952H202.714L205.172 38.4562ZM220.422 40.2684L223.936 40.6864L225.432 44.3952H222.079L220.422 40.2684ZM231.998 41.644L235.112 42.0136V44.3952H231.998V41.644Z" fill="#AD1F58"/>
<path fill-rule="evenodd" clip-rule="evenodd" d="M0.555664 14.1445V66.0983C22.2228 55.2324 43.8899 44.3666 65.5571 33.5008L57.6161 29.5229C57.5727 29.9198 57.5156 30.3155 57.4449 30.7087L63.0205 33.5021L35.6711 47.217V40.8439H39.494C43.4992 40.8439 47.3791 39.869 50.2333 36.9168C52.7835 34.2785 54.0375 31.1329 54.0375 27.4663C54.0375 24.8044 53.4633 22.3609 52.1001 20.2696L27.7773 17.3795C27.9732 17.6027 28.163 17.8347 28.3429 18.0741C29.0722 19.0428 29.6565 20.1307 30.1117 21.252C30.9812 23.1758 31.3273 25.2597 31.3273 27.3609C31.3273 29.6097 30.7406 31.7147 29.6192 33.6658C28.5872 35.4619 27.1968 36.9168 25.4875 38.0456L35.3536 47.3758L25.397 52.3684L14.644 41.2768H12.9546L12.7685 58.7018L1.69309 64.2563V14.2797L0.555664 14.1445V14.1445ZM35.4714 22.2654H39.4432C40.949 22.2654 42.425 22.6226 43.5575 23.6645C44.6503 24.6705 45.0981 25.9977 45.0981 27.4663C45.0981 28.9349 44.6441 30.3936 43.5489 31.4864C42.435 32.5978 40.9961 33.0319 39.4432 33.0319H35.4714V22.2654V22.2654ZM12.7611 23.4288H15.6711C16.8631 23.4288 18.0998 23.667 19.0127 24.4869C19.8562 25.2435 20.165 26.2458 20.165 27.3609C20.165 28.5678 19.8313 29.6544 18.9668 30.5164C18.075 31.4058 16.9065 31.7109 15.6711 31.7109H12.7611V23.4288V23.4288Z" fill="url(#paint3_linear_4801_2749)"/>
<path fill-rule="evenodd" clip-rule="evenodd" d="M81.8596 43.734V23.8047L86.4689 24.3517V29.6953H94.3032C94.6369 29.6953 94.9246 29.5775 95.159 29.343C95.3935 29.1086 95.5114 28.827 95.5114 28.4921V25.4259L100.261 25.9903V29.9347C100.261 31.0436 99.8676 31.9925 99.0886 32.7727C98.3084 33.5579 97.3645 33.9511 96.2506 33.9511H95.9579L101.84 43.7328H96.8199L90.8797 33.9511H86.4701V43.7328H81.8608L81.8596 43.734ZM104.994 26.5534L109.674 27.1091V43.734H104.994V26.5534ZM117.326 28.0183L126.542 29.1136L124.57 32.3634V43.734H119.961V32.3634L117.326 28.0183V28.0183ZM137.7 30.4383L142.01 30.9506L140.556 35.0786H147.001L145.679 31.3872L150.96 32.0148L155.299 43.734H150.092L148.409 38.9846H139.185L137.502 43.734H132.776L137.701 30.4395L137.7 30.4383Z" fill="url(#paint4_linear_4801_2749)"/>
<path fill-rule="evenodd" clip-rule="evenodd" d="M165.946 43.7342V33.7949L167.74 34.0083V43.7342H165.946V43.7342ZM186.814 36.2745L188.609 36.4878V42.1155H200.36V43.6982H186.814V36.2732V36.2745ZM205.851 38.5357L207.569 38.7404L205.571 43.7342H203.701L205.851 38.5357V38.5357ZM221.168 40.3553L223.188 40.596L224.453 43.7342H222.525L221.168 40.3553ZM232.655 41.7198L234.45 41.9331V43.7329H232.655V41.7198Z" fill="url(#paint5_linear_4801_2749)"/>
<defs>
<linearGradient id="paint0_linear_4801_2749" x1="31.4042" y1="2.52715" x2="34.1529" y2="81.1815" gradientUnits="userSpaceOnUse">
<stop stop-color="#E20B7E"/>
<stop offset="0.52" stop-color="#7F1A55"/>
<stop offset="1" stop-color="#E20B7E"/>
</linearGradient>
<linearGradient id="paint1_linear_4801_2749" x1="116.088" y1="20.463" x2="119.298" y2="50.4494" gradientUnits="userSpaceOnUse">
<stop stop-color="#E20B7E"/>
<stop offset="0.52" stop-color="#7F1A55"/>
<stop offset="1" stop-color="#E20B7E"/>
</linearGradient>
<linearGradient id="paint2_linear_4801_2749" x1="202.771" y1="20.2089" x2="206.019" y2="49.3928" gradientUnits="userSpaceOnUse">
<stop stop-color="#E20B7E"/>
<stop offset="0.52" stop-color="#7F1A55"/>
<stop offset="1" stop-color="#E20B7E"/>
</linearGradient>
<linearGradient id="paint3_linear_4801_2749" x1="28.0092" y1="57.6897" x2="32.6346" y2="26.6514" gradientUnits="userSpaceOnUse">
<stop stop-color="#C21C70"/>
<stop offset="1" stop-color="#E20B7E"/>
</linearGradient>
<linearGradient id="paint4_linear_4801_2749" x1="114.24" y1="62.8832" x2="118.041" y2="37.3832" gradientUnits="userSpaceOnUse">
<stop stop-color="#C21C70"/>
<stop offset="1" stop-color="#E20B7E"/>
</linearGradient>
<linearGradient id="paint5_linear_4801_2749" x1="195.894" y1="67.6402" x2="199.07" y2="46.3278" gradientUnits="userSpaceOnUse">
<stop stop-color="#C21C70"/>
<stop offset="1" stop-color="#E20B7E"/>
</linearGradient>
</defs>
</svg>