<svg width="48" height="48" viewBox="0 0 48 48" fill="none" xmlns="http://www.w3.org/2000/svg">
<rect width="48" height="48" rx="24" fill="#1A1D1F"/>
<path d="M18 19H31.79C32.0694 19 32.3457 19.0586 32.6011 19.1719C32.8565 19.2852 33.0854 19.4508 33.2729 19.658C33.4603 19.8652 33.6023 20.1094 33.6897 20.3748C33.777 20.6402 33.8078 20.921 33.78 21.199L33.18 27.199C33.1307 27.6925 32.8997 28.1501 32.532 28.4829C32.1642 28.8157 31.686 29 31.19 29H21.64C21.1775 29.0002 20.7292 28.84 20.3714 28.5469C20.0137 28.2537 19.7687 27.8456 19.678 27.392L18 19Z" stroke="#FCFCFC" stroke-width="2" stroke-linejoin="round"/>
<path d="M29 33H31M18 19L17.19 15.757C17.1358 15.5408 17.011 15.3488 16.8352 15.2117C16.6595 15.0745 16.4429 15 16.22 15H15L18 19ZM21 33H23H21Z" stroke="#FCFCFC" stroke-width="2" stroke-linecap="round" stroke-linejoin="round"/>
</svg>
