<svg width="48" height="48" viewBox="0 0 48 48" fill="none" xmlns="http://www.w3.org/2000/svg">
<rect width="48" height="48" rx="24" fill="#1A1D1F"/>
<path d="M23.931 14.058C24.0548 13.903 24.2082 13.7742 24.3822 13.6789C24.5561 13.5836 24.7473 13.5237 24.9445 13.5028C25.1418 13.4819 25.3412 13.5003 25.5313 13.557C25.7214 13.6136 25.8984 13.7075 26.052 13.833L30.945 17.829C31.2141 18.0487 31.3986 18.355 31.467 18.6956C31.5354 19.0362 31.4834 19.3899 31.32 19.6965C30.8922 19.5657 30.4473 19.4995 30 19.5H29.55L29.997 18.99L27.42 16.8855L25.2945 19.5015H23.361L26.2575 15.9375L25.1025 14.994L21.5055 19.5H19.5855L23.931 14.058ZM27.75 27C27.5511 27 27.3603 27.079 27.2197 27.2197C27.079 27.3603 27 27.5511 27 27.75C27 27.9489 27.079 28.1397 27.2197 28.2803C27.3603 28.421 27.5511 28.5 27.75 28.5H29.25C29.4489 28.5 29.6397 28.421 29.7803 28.2803C29.921 28.1397 30 27.9489 30 27.75C30 27.5511 29.921 27.3603 29.7803 27.2197C29.6397 27.079 29.4489 27 29.25 27H27.75ZM16.5 20.25C16.5 20.0511 16.579 19.8603 16.7197 19.7197C16.8603 19.579 17.0511 19.5 17.25 19.5H18.087L19.2795 18H17.25C16.6533 18 16.081 18.237 15.659 18.659C15.2371 19.081 15 19.6533 15 20.25V29.25C15 30.2446 15.3951 31.1984 16.0983 31.9016C16.8016 32.6049 17.7554 33 18.75 33H30C30.7956 33 31.5587 32.6839 32.1213 32.1213C32.6839 31.5587 33 30.7956 33 30V24C33 23.2043 32.6839 22.4413 32.1213 21.8787C31.5587 21.3161 30.7956 21 30 21H17.25C17.0511 21 16.8603 20.921 16.7197 20.7803C16.579 20.6397 16.5 20.4489 16.5 20.25ZM16.5 29.25V22.3725C16.734 22.455 16.9875 22.5 17.25 22.5H30C30.3978 22.5 30.7794 22.658 31.0607 22.9393C31.342 23.2206 31.5 23.6022 31.5 24V30C31.5 30.3978 31.342 30.7793 31.0607 31.0607C30.7794 31.342 30.3978 31.5 30 31.5H18.75C18.1533 31.5 17.581 31.2629 17.159 30.841C16.7371 30.419 16.5 29.8467 16.5 29.25Z" fill="#FCFCFC"/>
</svg>
