<svg width="48" height="48" viewBox="0 0 48 48" fill="none" xmlns="http://www.w3.org/2000/svg">
<rect width="48" height="48" rx="24" fill="#1A1D1F"/>
<path fill-rule="evenodd" clip-rule="evenodd" d="M23.0258 12.0268C22.0081 12.1156 20.7955 12.3837 19.8741 12.7237C18.6404 13.1789 18.6407 13.1783 19.1742 14.2474C19.3859 14.6718 19.6059 15.0698 19.6628 15.1317C19.8019 15.2827 19.9638 15.2739 20.405 15.0914C21.719 14.5478 23.4348 14.2975 24.8768 14.4391C28.2931 14.7744 31.1705 16.7785 32.6564 19.8574C34.0467 22.7382 33.8929 26.1436 32.2482 28.8972C32.1071 29.1335 31.9831 29.3366 31.9727 29.3486C31.9623 29.3606 31.6428 29.0623 31.2628 28.6857C30.663 28.0915 30.5506 28.0011 30.411 28.0011C30.3069 28.0011 30.2068 28.0444 30.1274 28.1239L30.0046 28.2467V30.6025V32.9583L30.1274 33.0811L30.2502 33.2039H32.606H34.9618L35.0846 33.0811C35.1642 33.0016 35.2074 32.9016 35.2074 32.7971C35.2074 32.6563 35.1125 32.5403 34.457 31.8798C34.0443 31.464 33.7066 31.1089 33.7066 31.0907C33.7066 31.0726 33.854 30.8371 34.0341 30.5675C34.4595 29.9309 35.1007 28.6299 35.3485 27.9011C36.835 23.5268 35.7356 18.7755 32.4828 15.5165C30.2029 13.2323 27.1037 11.9615 23.9085 12.0009C23.5331 12.0055 23.1359 12.0171 23.0258 12.0268ZM12.9181 14.9168C12.8385 14.9964 12.7953 15.0963 12.7953 15.2008C12.7953 15.3416 12.8901 15.4576 13.5457 16.1181C13.9584 16.5339 14.2961 16.8857 14.2961 16.8997C14.2961 16.9138 14.1478 17.1493 13.9666 17.423C13.2676 18.4785 12.6214 19.9812 12.3217 21.2475C12.0371 22.4504 11.9352 23.8097 12.0406 24.9995C12.4712 29.8628 15.709 33.9267 20.3494 35.4284C23.0055 36.2879 25.9748 36.1711 28.5533 35.1055C29.3319 34.7837 29.3354 34.7664 28.8266 33.7468C28.6159 33.3244 28.3968 32.9282 28.3398 32.8662C28.198 32.7123 28.0333 32.7238 27.5418 32.9219C25.4816 33.7525 23.0942 33.8167 20.9247 33.0998C20.3384 32.9061 19.2916 32.3914 18.7235 32.0174C14.2933 29.1015 13.0724 23.143 15.9939 18.6964C16.0334 18.6362 16.1782 18.7556 16.7369 19.3092C17.3394 19.9062 17.452 19.9968 17.5917 19.9968C17.6957 19.9968 17.7958 19.9535 17.8753 19.874L17.9981 19.7512V17.3954V15.0396L17.8753 14.9168L17.7525 14.794H15.3967H13.0409L12.9181 14.9168ZM23.301 17.6267C22.2616 17.759 21.2665 18.1308 20.3994 18.7108C19.9173 19.0332 19.0356 19.915 18.7131 20.397C18.2368 21.1092 17.8996 21.9059 17.718 22.7483C17.5898 23.3429 17.5898 24.6551 17.718 25.2496C17.995 26.5348 18.5638 27.5792 19.4925 28.5078C20.2599 29.2753 21.0112 29.7423 22.0167 30.0769C22.9347 30.3824 23.962 30.4724 24.9018 30.3296C26.331 30.1126 27.4912 29.5268 28.5102 28.5078C29.4389 27.5792 30.0076 26.5348 30.2847 25.2496C30.4128 24.6551 30.4128 23.3429 30.2847 22.7483C30.005 21.4508 29.45 20.4332 28.5085 19.4918C27.5838 18.567 26.6111 18.0273 25.3521 17.7403C24.9344 17.6451 23.6955 17.5764 23.301 17.6267ZM24.2787 19.3192C24.3928 19.4332 24.4016 19.4777 24.4016 19.9435V20.4451L24.5391 20.4783C25.2685 20.6539 25.912 21.4248 25.9854 22.2109C26.014 22.5175 26.0075 22.5476 25.8865 22.6687C25.6299 22.9253 25.202 22.7533 25.202 22.3936C25.202 22.0827 25.0864 21.8289 24.8248 21.5657C24.5003 21.2392 24.1703 21.1437 23.7174 21.2451C23.4823 21.2977 23.3895 21.3528 23.1779 21.5657C22.6827 22.0639 22.6744 22.7602 23.1578 23.2437C23.387 23.4729 23.6685 23.5769 24.1715 23.6181C25.2585 23.7072 26.087 24.699 25.9852 25.7892C25.9473 26.1946 25.7361 26.6617 25.4505 26.9715C25.2545 27.1842 24.6338 27.5509 24.4699 27.5509C24.4167 27.5509 24.4016 27.662 24.4016 28.0534C24.4016 28.5203 24.3928 28.5647 24.2787 28.6787C24.2013 28.7562 24.0988 28.8015 24.0013 28.8015C23.9039 28.8015 23.8013 28.7562 23.7239 28.6787C23.6098 28.5647 23.6011 28.5203 23.6011 28.0534C23.6011 27.662 23.586 27.5509 23.5328 27.5509C23.3693 27.5509 22.7483 27.1842 22.5532 26.9726C22.1832 26.5712 21.9265 25.8505 22.0204 25.4766C22.0591 25.3222 22.3165 25.1802 22.4822 25.2218C22.6706 25.2691 22.8007 25.4301 22.8007 25.6159C22.8007 26.0225 23.0889 26.4882 23.459 26.6795C23.8888 26.9018 24.4875 26.7966 24.8401 26.4369C25.3115 25.9562 25.3217 25.3048 24.8659 24.7978C24.6176 24.5217 24.3772 24.4246 23.8312 24.3798C23.1325 24.3225 22.5342 23.9084 22.214 23.2604C22.0355 22.8993 22.0253 22.8525 22.0253 22.4007C22.0253 21.9671 22.0401 21.8916 22.185 21.5856C22.436 21.0558 22.9639 20.5986 23.4635 20.4783L23.6011 20.4451V19.9435C23.6011 19.4777 23.6099 19.4332 23.7239 19.3192C23.8013 19.2417 23.9039 19.1964 24.0013 19.1964C24.0988 19.1964 24.2013 19.2417 24.2787 19.3192Z" fill="#FCFCFC"/>
</svg>
