<svg width="55" height="16" viewBox="0 0 55 16" fill="none" xmlns="http://www.w3.org/2000/svg">
<path d="M9.05904 1.57428C8.86703 1.26348 8.61664 0.992793 8.32172 0.77718C8.02385 0.573516 7.69749 0.415038 7.35324 0.30689C6.9792 0.184519 6.59302 0.103006 6.20143 0.0637743C5.74315 0.0191031 5.28289 -0.0021805 4.82245 6.14148e-06H0.836939C0.744554 -0.00872028 0.651357 0.00118365 0.562869 0.0291313C0.474381 0.0570789 0.392403 0.102502 0.321789 0.162709C0.251176 0.222916 0.193364 0.296683 0.151779 0.37964C0.110194 0.462596 0.0856809 0.553055 0.0796924 0.645658C0.0796924 0.645658 0.0796924 0.669571 0.0796924 0.681528V7.15399C0.632252 8.33967 1.54985 9.31733 2.69817 9.94385V8.64457C2.68942 8.54432 2.70053 8.44333 2.73087 8.34738C2.7612 8.25143 2.81016 8.16241 2.87495 8.08541C2.93973 8.0084 3.01907 7.94494 3.10842 7.89864C3.19776 7.85234 3.29537 7.82412 3.39563 7.81559H4.59129C6.22269 7.81559 7.46749 7.47416 8.32571 6.79131C9.18392 6.10846 9.61967 5.09614 9.63295 3.75435C9.63435 3.36767 9.58885 2.98225 9.49744 2.60653C9.40634 2.24159 9.25839 1.89325 9.05904 1.57428V1.57428ZM6.72353 4.90218C6.58453 5.14135 6.37793 5.33409 6.12969 5.45617C5.86072 5.58463 5.5701 5.66168 5.27281 5.68334C4.94626 5.724 4.61746 5.74397 4.28839 5.74312H3.14056C2.86556 5.74312 2.69418 5.51993 2.69418 5.19312V2.52283C2.69022 2.46424 2.69925 2.4055 2.72063 2.35081C2.74202 2.29612 2.77522 2.24683 2.81787 2.20646C2.86052 2.1661 2.91156 2.13566 2.96735 2.11732C3.02313 2.09897 3.08228 2.09319 3.14056 2.10037H4.28839C4.66037 2.10037 5.01109 2.111 5.34056 2.13225C5.63419 2.14634 5.92238 2.2167 6.18947 2.3395C6.43522 2.44891 6.64022 2.63299 6.77534 2.86559C6.92793 3.17746 6.99791 3.52327 6.9786 3.86993C6.98635 4.22925 6.89831 4.58416 6.72353 4.89819V4.90218ZM2.70216 10.3344C1.71931 9.97983 0.82473 9.41698 0.0796924 8.68443V11.813C0.0713462 11.8726 0.0751367 11.9333 0.0908362 11.9914C0.106536 12.0495 0.13382 12.1038 0.171049 12.1511C0.208277 12.1984 0.254682 12.2377 0.307473 12.2665C0.360264 12.2954 0.418351 12.3133 0.478243 12.3192H2.27969C2.75795 12.3192 2.70216 11.8091 2.70216 11.8091V10.3344ZM27.4601 3.40761H25.9058C25.7574 3.39791 25.6104 3.441 25.4908 3.52926C25.3712 3.61752 25.2867 3.74526 25.2522 3.88986L23.4467 8.86377C23.4467 8.86377 21.8525 4.33225 21.733 3.98153C21.6994 3.8197 21.6115 3.67419 21.484 3.5691C21.3564 3.46401 21.1968 3.40563 21.0315 3.40363H19.6007C19.0906 3.40363 19.0906 3.80218 19.1583 3.95761C19.2261 4.11305 21.183 9.47754 21.9482 11.5301C22.0687 11.7827 22.1532 12.0511 22.1993 12.3272C22.1496 12.5997 22.0467 12.8597 21.8964 13.0924C21.8382 13.191 21.7715 13.2844 21.6971 13.3714C23.1717 12.933 24.8855 11.3348 25.7464 9.60906C26.6152 7.21776 27.759 4.02935 27.8108 3.86595C27.8666 3.61486 27.8666 3.40761 27.4601 3.40761ZM20.5333 13.8576C20.4 13.854 20.267 13.8434 20.1348 13.8257C19.9714 13.8018 19.6605 13.8257 19.6605 14.1047V15.3004C19.6605 15.7587 19.8837 15.7906 19.9993 15.8225C20.3684 15.9034 20.7453 15.9435 21.1232 15.942C21.5697 15.9538 22.013 15.8624 22.4185 15.675C22.7894 15.4876 23.1188 15.2273 23.3869 14.9098C23.691 14.5622 23.9482 14.1763 24.1522 13.762C24.3727 13.3209 24.5826 12.8333 24.7819 12.2993L25.013 11.6656C24.5507 12.1239 22.5101 14.0489 20.5333 13.8576ZM18.1819 4.83841C18.0972 4.63702 17.9815 4.4501 17.8391 4.28443C17.6951 4.13096 17.5316 3.99697 17.3529 3.88588C17.1598 3.75439 16.9542 3.64225 16.7391 3.55109C16.5201 3.46623 16.2949 3.39827 16.0656 3.34783C15.8031 3.28976 15.5366 3.25113 15.2685 3.23225C14.9815 3.20303 14.66 3.18841 14.304 3.18841C11.9286 3.18841 10.5762 3.93769 10.2467 5.43624C10.2327 5.49209 10.2309 5.55033 10.2415 5.60694C10.2521 5.66355 10.2749 5.71719 10.3082 5.76416C10.3415 5.81113 10.3847 5.85032 10.4346 5.87902C10.4845 5.90773 10.5401 5.92527 10.5974 5.93044H12.0601C12.4587 5.93044 12.4587 5.80689 12.6101 5.46414C12.6765 5.27753 12.7956 5.11417 12.9529 4.99385C13.3266 4.75261 13.7686 4.63931 14.2123 4.67102C14.6261 4.62873 15.0417 4.73158 15.388 4.96196C15.6522 5.20854 15.8083 5.54944 15.8224 5.91051C15.8224 6.40472 15.671 6.73153 15.0572 6.73153C13.6025 6.67972 12.0402 6.84312 11.1594 7.34928C10.7258 7.61395 10.3699 7.98854 10.1277 8.43509C9.88556 8.88163 9.76574 9.38426 9.78042 9.89204C9.77039 10.2876 9.85082 10.6801 10.0156 11.0399C10.1707 11.3525 10.3957 11.6252 10.6732 11.837C10.9644 12.0745 11.3006 12.2507 11.6616 12.3551C12.0694 12.4655 12.4905 12.5191 12.913 12.5145C13.4814 12.5233 14.0476 12.4426 14.5909 12.2754C15.0711 12.0786 15.525 11.8229 15.942 11.5141V11.7931C15.942 12.0681 16.0257 12.3152 16.3406 12.3152H18.0344C18.3772 12.3152 18.4569 12.0721 18.4569 11.7692V6.55218C18.4589 6.22678 18.4363 5.90169 18.3891 5.57972C18.3515 5.32488 18.2819 5.07581 18.1819 4.83841V4.83841ZM15.8663 9.96377C15.8663 9.96377 15.4279 10.8804 13.8735 10.8804C13.5008 10.8976 13.1323 10.7957 12.8214 10.5895C12.6845 10.4832 12.5764 10.3444 12.5068 10.1857C12.4371 10.027 12.4083 9.85348 12.4228 9.6808C12.4057 9.4489 12.4594 9.21727 12.5768 9.01657C12.6942 8.81587 12.8699 8.65557 13.0804 8.55689C13.7092 8.31533 14.3801 8.20283 15.0532 8.22609C15.1563 8.21055 15.2614 8.2175 15.3615 8.24647C15.4615 8.27544 15.5541 8.32574 15.6329 8.39391C15.7117 8.46208 15.7748 8.54651 15.8178 8.64138C15.8608 8.73625 15.8828 8.83931 15.8822 8.94348L15.8663 9.96377Z" fill="#333333"/>
<path d="M54.6014 6.608C54.7978 6.92382 54.9018 7.28828 54.9018 7.66017C54.9018 8.03205 54.7978 8.39652 54.6014 8.71234C54.2029 9.31814 52.0308 11.6377 51.3134 12.383C50.6916 13.0286 49.8507 13.6823 49.0177 13.6823H31.7645C29.429 13.6823 29.2895 12.8852 29.2895 11.1076V3.858C29.2895 2.03662 29.8275 1.50655 31.4257 1.50655H49.0576C49.8826 1.50655 50.6199 1.92901 51.4489 2.78191C52.1742 3.51126 54.3145 6.17756 54.6014 6.608Z" fill="#33CCCC"/>
<path d="M33.2073 4.30834V4.2645C33.2073 4.02936 33.2073 3.80219 32.8087 3.80219H31.362C31.0232 3.80219 31.0073 3.98552 31.0073 4.27248V6.18552C31.5779 5.39104 32.3329 4.74688 33.2073 4.30834V4.30834Z" fill="white"/>
<path d="M42.896 11.2272V11.1236V6.50836C42.896 4.57672 42.0431 3.6109 40.3373 3.6109C39.8625 3.61653 39.3988 3.75455 38.9982 4.00945C38.5568 4.28478 38.1625 4.62927 37.8304 5.02974C37.6801 4.5969 37.388 4.22753 37.0014 3.98155C36.5618 3.73925 36.0642 3.62208 35.5627 3.64278C34.825 3.64556 34.109 3.89218 33.5261 4.34423C33.3985 4.47177 31.0033 6.33699 31.0033 8.28192V11.2352C31.0033 11.3268 30.9554 11.6855 31.358 11.6855H32.8605C33.3268 11.6855 33.283 11.3787 33.283 11.2511V6.46851C33.5341 6.12974 34.0482 5.32068 34.8971 5.32068C35.0329 5.30833 35.1695 5.33248 35.2928 5.39064C35.4162 5.4488 35.5217 5.53885 35.5985 5.65148C35.769 5.99175 35.8434 6.37206 35.8138 6.75148V10.4779V11.2431C35.8138 11.3348 35.7659 11.6935 36.1685 11.6935H37.6551C38.1214 11.6935 38.0775 11.3866 38.0775 11.2591V11.1555V6.45257C38.3485 6.1138 38.8746 5.30474 39.6917 5.30474C39.829 5.2935 39.967 5.31807 40.092 5.37604C40.217 5.43402 40.3249 5.52343 40.4051 5.63554C40.5782 5.97495 40.6541 6.35567 40.6243 6.73554V10.462V11.2272C40.6243 11.3189 40.5764 11.6776 40.979 11.6776H42.4815C42.9518 11.6537 42.896 11.3508 42.896 11.2272Z" fill="white"/>
<path d="M51.1819 9.35001C50.9266 10.0366 50.4588 10.6236 49.8466 11.0258C49.2344 11.428 48.5098 11.6242 47.7783 11.5859C45.4827 11.5859 43.9522 10.0236 43.9522 7.68009C43.9522 5.33661 45.5464 3.69458 47.6986 3.69458C49.8508 3.69458 51.2856 5.18516 51.3772 7.58842C51.3772 7.8953 51.3015 8.16632 50.9149 8.16632H46.0446C46.0765 9.45364 46.6943 10.1591 47.7943 10.1591C48.0863 10.1664 48.3744 10.09 48.6244 9.93884C48.8744 9.7877 49.0759 9.56817 49.2051 9.30617C49.256 9.23203 49.3246 9.17172 49.4046 9.13067C49.4846 9.08962 49.5736 9.06913 49.6635 9.07103H50.9189C50.9566 9.06925 50.9942 9.07597 51.0289 9.0907C51.0636 9.10544 51.0945 9.1278 51.1194 9.15613C51.1443 9.18447 51.1625 9.21804 51.1726 9.25437C51.1828 9.29069 51.1846 9.32883 51.178 9.36596L51.1819 9.35001ZM47.7066 5.18117C46.7939 5.18117 46.1762 5.81487 46.0406 6.85907H49.3088C49.2251 5.94639 48.7309 5.18117 47.7066 5.18117Z" fill="white"/>
</svg>
