<svg width="48" height="48" viewBox="0 0 48 48" fill="none" xmlns="http://www.w3.org/2000/svg">
<rect width="48" height="48" rx="12" fill="#EDF2F7"/>
<g clip-path="url(#clip0_148_5510)">
<path d="M12.7648 20.9839C12.6427 20.7896 12.4833 20.6205 12.2956 20.4857C12.1061 20.3584 11.8984 20.2594 11.6793 20.1918C11.4413 20.1153 11.1956 20.0643 10.9464 20.0398C10.6547 20.0119 10.3618 19.9986 10.0688 20H7.5326C7.47381 19.9945 7.41451 20.0007 7.35819 20.0182C7.30188 20.0356 7.24972 20.064 7.20478 20.1017C7.15984 20.1393 7.12306 20.1854 7.09659 20.2372C7.07013 20.2891 7.05453 20.3456 7.05072 20.4035C7.05072 20.4035 7.05072 20.4184 7.05072 20.4259V24.4712C7.40235 25.2123 7.98627 25.8233 8.71702 26.2149V25.4028C8.71145 25.3402 8.71852 25.277 8.73783 25.2171C8.75713 25.1571 8.78829 25.1015 8.82952 25.0533C8.87074 25.0052 8.92123 24.9656 8.97809 24.9366C9.03494 24.9077 9.09706 24.89 9.16086 24.8847H9.92174C10.9599 24.8847 11.752 24.6713 12.2982 24.2445C12.8443 23.8178 13.1216 23.1851 13.1301 22.3464C13.131 22.1048 13.102 21.8639 13.0438 21.629C12.9859 21.401 12.8917 21.1832 12.7648 20.9839ZM11.2786 23.0638C11.1902 23.2133 11.0587 23.3338 10.9007 23.4101C10.7296 23.4904 10.5446 23.5385 10.3554 23.5521C10.1476 23.5775 9.93839 23.5899 9.72898 23.5894H8.99854C8.82354 23.5894 8.71448 23.4499 8.71448 23.2457V21.5767C8.71196 21.5401 8.71771 21.5034 8.73132 21.4692C8.74493 21.435 8.76605 21.4042 8.7932 21.379C8.82034 21.3538 8.85282 21.3348 8.88832 21.3233C8.92382 21.3118 8.96146 21.3082 8.99854 21.3127H9.72898C9.9657 21.3127 10.1889 21.3193 10.3985 21.3326C10.5854 21.3414 10.7688 21.3854 10.9388 21.4622C11.0951 21.5305 11.2256 21.6456 11.3116 21.791C11.4087 21.9859 11.4532 22.202 11.4409 22.4187C11.4459 22.6432 11.3898 22.8651 11.2786 23.0613V23.0638ZM8.71956 26.459C8.09411 26.2374 7.52483 25.8856 7.05072 25.4277V27.3831C7.04541 27.4203 7.04782 27.4583 7.05781 27.4946C7.0678 27.5309 7.08516 27.5648 7.10885 27.5944C7.13255 27.624 7.16208 27.6485 7.19567 27.6665C7.22926 27.6846 7.26623 27.6958 7.30434 27.6995H8.45072C8.75506 27.6995 8.71956 27.3807 8.71956 27.3807V26.459ZM24.4746 22.1297H23.4855C23.3911 22.1237 23.2975 22.1506 23.2214 22.2058C23.1453 22.2609 23.0915 22.3408 23.0696 22.4311L21.9206 25.5398C21.9206 25.5398 20.9061 22.7076 20.8301 22.4884C20.8087 22.3873 20.7528 22.2963 20.6716 22.2307C20.5904 22.165 20.4889 22.1285 20.3837 22.1272H19.4732C19.1486 22.1272 19.1486 22.3763 19.1917 22.4735C19.2348 22.5706 20.4801 25.9234 20.967 27.2063C21.0437 27.3642 21.0975 27.5319 21.1268 27.7045C21.0952 27.8748 21.0297 28.0373 20.9341 28.1827C20.897 28.2443 20.8546 28.3027 20.8073 28.3571C21.7456 28.0831 22.8362 27.0842 23.3841 26.0056C23.937 24.5111 24.6648 22.5183 24.6978 22.4162C24.7333 22.2593 24.7333 22.1297 24.4746 22.1297ZM20.0667 28.661C19.9818 28.6587 19.8972 28.6521 19.8131 28.641C19.7091 28.6261 19.5112 28.641 19.5112 28.8154V29.5627C19.5112 29.8492 19.6533 29.8691 19.7268 29.889C19.9617 29.9396 20.2016 29.9647 20.442 29.9637C20.7262 29.9711 21.0083 29.914 21.2663 29.7968C21.5024 29.6797 21.712 29.517 21.8826 29.3186C22.0761 29.1013 22.2398 28.8602 22.3696 28.6012C22.5099 28.3255 22.6435 28.0208 22.7703 27.687L22.9174 27.291C22.6232 27.5774 21.3246 28.7805 20.0667 28.661ZM18.5703 23.024C18.5164 22.8981 18.4428 22.7813 18.3522 22.6777C18.2605 22.5818 18.1565 22.4981 18.0428 22.4286C17.9199 22.3465 17.789 22.2764 17.6522 22.2194C17.5128 22.1664 17.3695 22.1239 17.2236 22.0924C17.0565 22.0561 16.8869 22.0319 16.7163 22.0201C16.5337 22.0019 16.3291 21.9927 16.1026 21.9927C14.5909 21.9927 13.7303 22.461 13.5206 23.3976C13.5117 23.4325 13.5106 23.4689 13.5173 23.5043C13.5241 23.5397 13.5386 23.5732 13.5598 23.6026C13.581 23.6319 13.6085 23.6564 13.6402 23.6744C13.672 23.6923 13.7073 23.7033 13.7438 23.7065H14.6746C14.9283 23.7065 14.9283 23.6293 15.0246 23.4151C15.0669 23.2984 15.1427 23.1963 15.2428 23.1211C15.4806 22.9703 15.7618 22.8995 16.0442 22.9194C16.3075 22.8929 16.572 22.9572 16.7924 23.1012C16.9605 23.2553 17.0598 23.4684 17.0688 23.694C17.0688 24.0029 16.9725 24.2072 16.5819 24.2072C15.6561 24.1748 14.662 24.2769 14.1014 24.5933C13.8255 24.7587 13.599 24.9928 13.4449 25.2719C13.2908 25.551 13.2146 25.8651 13.2239 26.1825C13.2175 26.4297 13.2687 26.675 13.3736 26.8999C13.4723 27.0953 13.6155 27.2657 13.792 27.3981C13.9774 27.5465 14.1913 27.6567 14.421 27.7219C14.6805 27.7909 14.9485 27.8244 15.2174 27.8215C15.5791 27.827 15.9394 27.7766 16.2851 27.6721C16.5907 27.5491 16.8796 27.3893 17.1449 27.1963V27.3707C17.1449 27.5425 17.1982 27.697 17.3986 27.697H18.4764C18.6946 27.697 18.7453 27.545 18.7453 27.3557V24.0951C18.7466 23.8917 18.7322 23.6885 18.7022 23.4873C18.6782 23.328 18.6339 23.1723 18.5703 23.024ZM17.0967 26.2273C17.0967 26.2273 16.8178 26.8002 15.8286 26.8002C15.5914 26.811 15.3569 26.7473 15.1591 26.6184C15.072 26.552 15.0032 26.4652 14.9589 26.366C14.9145 26.2668 14.8962 26.1584 14.9054 26.0505C14.8945 25.9055 14.9287 25.7608 15.0034 25.6353C15.0781 25.5099 15.1899 25.4097 15.3239 25.348C15.724 25.197 16.151 25.1267 16.5793 25.1413C16.6449 25.1316 16.7118 25.1359 16.7755 25.154C16.8391 25.1721 16.8981 25.2036 16.9482 25.2462C16.9984 25.2888 17.0385 25.3415 17.0659 25.4008C17.0932 25.4601 17.1072 25.5245 17.1069 25.5896L17.0967 26.2273Z" fill="#333333"/>
<path d="M41.7464 24.1301C41.8713 24.3274 41.9375 24.5552 41.9375 24.7877C41.9375 25.0201 41.8713 25.2479 41.7464 25.4453C41.4928 25.8239 40.1105 27.2736 39.654 27.7394C39.2583 28.1429 38.7232 28.5515 38.1931 28.5515H27.2138C25.7276 28.5515 25.6388 28.0533 25.6388 26.9423V22.4113C25.6388 21.2729 25.9812 20.9417 26.9982 20.9417H38.2185C38.7435 20.9417 39.2127 21.2057 39.7402 21.7388C40.2018 22.1946 41.5638 23.861 41.7464 24.1301Z" fill="#33CCCC"/>
<path d="M28.1319 22.6928V22.6654C28.1319 22.5184 28.1319 22.3765 27.8783 22.3765H26.9577C26.7421 22.3765 26.7319 22.491 26.7319 22.6704V23.866C27.095 23.3695 27.5755 22.9669 28.1319 22.6928Z" fill="white"/>
<path d="M34.2975 27.017V26.9523V24.0677C34.2975 22.8605 33.7547 22.2568 32.6692 22.2568C32.3671 22.2604 32.072 22.3466 31.8171 22.5059C31.5362 22.678 31.2853 22.8933 31.0739 23.1436C30.9783 22.8731 30.7924 22.6422 30.5464 22.4885C30.2666 22.3371 29.95 22.2638 29.6308 22.2768C29.1614 22.2785 28.7058 22.4326 28.3348 22.7152C28.2536 22.7949 26.7294 23.9606 26.7294 25.1762V27.022C26.7294 27.0793 26.6989 27.3035 26.9551 27.3035H27.9113C28.208 27.3035 28.1801 27.1117 28.1801 27.032V24.0428C28.3399 23.8311 28.6671 23.3254 29.2073 23.3254C29.2937 23.3177 29.3806 23.3328 29.4591 23.3692C29.5376 23.4055 29.6047 23.4618 29.6536 23.5322C29.7621 23.7449 29.8095 23.9826 29.7906 24.2197V26.5487V27.027C29.7906 27.0843 29.7601 27.3085 30.0163 27.3085H30.9624C31.2591 27.3085 31.2312 27.1166 31.2312 27.037V26.9722V24.0329C31.4036 23.8211 31.7384 23.3155 32.2584 23.3155C32.3458 23.3085 32.4336 23.3238 32.5131 23.36C32.5927 23.3963 32.6613 23.4522 32.7124 23.5222C32.8225 23.7344 32.8708 23.9723 32.8519 24.2097V26.5388V27.017C32.8519 27.0743 32.8214 27.2985 33.0776 27.2985H34.0337C34.333 27.2836 34.2975 27.0943 34.2975 27.017Z" fill="white"/>
<path d="M39.5703 25.8437C39.4079 26.2728 39.1102 26.6397 38.7206 26.8911C38.331 27.1425 37.8699 27.2651 37.4044 27.2412C35.9436 27.2412 34.9696 26.2647 34.9696 24.8C34.9696 23.3354 35.9841 22.3091 37.3537 22.3091C38.7233 22.3091 39.6363 23.2407 39.6946 24.7427C39.6946 24.9345 39.6464 25.1039 39.4004 25.1039H36.3011C36.3214 25.9085 36.7146 26.3494 37.4146 26.3494C37.6004 26.354 37.7837 26.3062 37.9428 26.2117C38.1019 26.1173 38.2301 25.9801 38.3124 25.8163C38.3447 25.77 38.3884 25.7323 38.4393 25.7066C38.4902 25.681 38.5469 25.6682 38.6041 25.6694H39.403C39.4269 25.6683 39.4509 25.6725 39.473 25.6817C39.495 25.6909 39.5147 25.7048 39.5305 25.7226C39.5464 25.7403 39.558 25.7612 39.5644 25.784C39.5709 25.8067 39.572 25.8305 39.5678 25.8537L39.5703 25.8437ZM37.3588 23.2382C36.778 23.2382 36.3849 23.6343 36.2986 24.2869H38.3783C38.3251 23.7165 38.0106 23.2382 37.3588 23.2382Z" fill="white"/>
</g>
<defs>
<clipPath id="clip0_148_5510">
<rect width="35" height="10" fill="white" transform="translate(7 20)"/>
</clipPath>
</defs>
</svg>
