<svg xmlns="http://www.w3.org/2000/svg" width="171" height="50" viewBox="0 0 171 50" fill="none"> 
    <path d="M41.1141 16.4456C39.0805 15.7825 36.9584 15.252 34.7038 14.8541V26.0389C34.7038 34.0849 31.2555 38.3289 24.9779 38.3289C18.7003 38.3289 15.252 34.0849 15.252 26.0389V14.8541C12.9973 15.252 10.8753 15.7825 8.84173 16.4456V26.0831C8.84173 34.9248 16.092 42.1751 24.9779 42.1751C33.8638 42.1751 41.1141 34.9248 41.1141 26.0831V16.4456ZM27.8957 8.7091C26.9673 8.62068 25.9947 8.57648 25.0221 8.57648C24.0495 8.57648 23.0769 8.62068 22.1485 8.7091V22.0601H27.8957V8.7091ZM50.0442 25.0221C50.0442 38.8152 38.8152 50 25.0221 50C11.1848 50 0 38.8152 0 25.0221C0 11.1848 11.229 0 25.0221 0C38.8152 0 50.0442 11.1848 50.0442 25.0221Z" fill="#7000ff"/> 
    <path d="M126.348 25.5088C126.348 28.736 124.536 30.2391 121.839 30.2391C119.142 30.2391 117.374 28.736 117.374 25.5088V14.8545H111.538V25.7298C111.538 32.8032 117.418 35.5884 121.883 35.5884C126.304 35.5884 132.228 32.8032 132.228 25.7298V14.8545H126.392L126.348 25.5088Z" fill="#7000ff"/> 
    <path d="M106.542 19.7616V14.8545H87.5769V19.7616H98.8059L87.0906 30.2391V35.1905H107.25V30.2391H94.8714L106.542 19.7616Z" fill="#7000ff"/> 
    <path d="M161.716 14.4558C158.002 14.4558 155.217 15.9589 153.847 18.2578C152.432 15.9589 149.382 14.4558 146.199 14.4558C139.965 14.4558 136.738 18.4346 136.738 23.386V35.1897H142.529V24.1817C142.529 21.8387 143.767 19.7608 146.597 19.7608C149.426 19.7608 150.885 21.7945 150.885 24.0933V35.1897H156.72V24.0933C156.72 21.7502 158.135 19.7608 160.92 19.7608C163.75 19.7608 165.076 21.8387 165.076 24.1817V35.1897H170.911V23.386C171 18.4346 167.949 14.4558 161.716 14.4558Z" fill="#7000ff"/> 
    <path d="M77.4093 25.5088C77.4093 28.736 75.5967 30.2391 72.9 30.2391C70.159 30.2391 68.4349 28.736 68.4349 25.5088V14.8545H62.5994V25.7298C62.5994 32.8032 68.4791 35.5884 72.9442 35.5884C77.3651 35.5884 83.289 32.8032 83.289 25.7298V14.8545H77.4535L77.4093 25.5088Z" fill="#7000ff"/> 
</svg>