<svg width="120" height="100" viewBox="0 0 120 100" fill="none" xmlns="http://www.w3.org/2000/svg">
<g clip-path="url(#clip0_240_25)">
<path fill-rule="evenodd" clip-rule="evenodd" d="M7.33398 0H112.656C114.658 0 116.494 0.718512 117.822 1.86813L117.832 1.87658L117.842 1.88504L117.852 1.89349C119.18 3.05156 120 4.63229 120 6.36517V93.6686C120 95.4184 119.17 97.0076 117.842 98.1572C116.514 99.3068 114.678 100.025 112.656 100.025H7.33398C5.33203 100.025 3.49609 99.3153 2.1582 98.1572L2.14844 98.1488L2.13867 98.1403L2.12891 98.1319C0.800781 96.9738 -0.0195312 95.3931 -0.0195312 93.6602V6.34827C0 4.59848 0.820313 3.0093 2.14844 1.85968C2.22656 1.79205 2.30469 1.72443 2.39258 1.66526C3.70117 0.633981 5.43945 0 7.33398 0ZM17.1777 29.3914H101.104V57.836H17.1777V29.3914ZM43.0469 49.5604H36.7676L35.8691 52.4852H30.2051L36.9629 34.7506H43.0273L49.7559 52.4852H43.9453L43.0469 49.5604ZM41.875 45.7227L39.9121 39.3491L37.9492 45.7227H41.875ZM52.4609 34.7506H60.7031C62.3242 34.7506 63.6426 34.9704 64.6387 35.4015C65.6348 35.8411 66.4649 36.4666 67.1191 37.2781C67.7734 38.0981 68.2422 39.0448 68.5352 40.1183C68.8281 41.2003 68.9746 42.3415 68.9746 43.5503C68.9746 45.4438 68.7598 46.9146 68.3203 47.9543C67.8906 49.0025 67.2852 49.8732 66.5039 50.5833C65.7227 51.2933 64.8926 51.7582 64.0039 51.9949C62.793 52.3161 61.6895 52.4768 60.7031 52.4768H52.4609V34.7506ZM57.9981 38.7574V48.4446H59.3555C60.5176 48.4446 61.3477 48.3178 61.8359 48.0642C62.3242 47.8106 62.7051 47.3626 62.9883 46.7371C63.2715 46.1031 63.4082 45.0803 63.4082 43.6602C63.4082 41.7836 63.0957 40.4987 62.4805 39.8056C61.8555 39.1124 60.8301 38.7658 59.3848 38.7658H57.9981V38.7574ZM71.8066 46.6188L77.0703 46.2891C77.1875 47.1344 77.4121 47.7768 77.7637 48.2164C78.3398 48.9265 79.1504 49.2899 80.2148 49.2899C81.0059 49.2899 81.6113 49.1124 82.041 48.7405C82.4707 48.377 82.6855 47.9459 82.6855 47.4641C82.6855 47.0076 82.4902 46.5934 82.0801 46.2299C81.6797 45.8664 80.7324 45.5283 79.248 45.1986C76.8164 44.6661 75.0879 43.9476 74.0527 43.0516C73.0078 42.164 72.4902 41.0228 72.4902 39.6365C72.4902 38.732 72.7539 37.8698 73.291 37.0583C73.8281 36.2468 74.6289 35.6128 75.7031 35.1479C76.7773 34.683 78.2422 34.4548 80.1172 34.4548C82.4121 34.4548 84.1602 34.8774 85.3613 35.7227C86.5625 36.568 87.2754 37.9036 87.5098 39.7464L82.2949 40.0507C82.1582 39.2477 81.8652 38.656 81.4258 38.2925C80.9766 37.929 80.3613 37.743 79.5801 37.743C78.9355 37.743 78.4473 37.8783 78.125 38.1488C77.8027 38.4193 77.6367 38.7489 77.6367 39.1378C77.6367 39.4167 77.7734 39.6703 78.0371 39.8986C78.291 40.1352 78.9063 40.3466 79.8828 40.5494C82.3047 41.0651 84.043 41.5892 85.0781 42.1217C86.1231 42.6543 86.8945 43.3052 87.3633 44.0828C87.8418 44.8605 88.0762 45.7396 88.0762 46.7117C88.0762 47.8445 87.7539 48.8926 87.1191 49.8563C86.4844 50.8115 85.5957 51.5469 84.4531 52.0372C83.3106 52.5359 81.875 52.7811 80.1367 52.7811C77.0898 52.7811 74.9707 52.1978 73.7988 51.0397C72.627 49.8732 71.9629 48.4024 71.8066 46.6188ZM17.7148 71.3356C16.4551 71.3356 15.4297 70.448 15.4297 69.3576C15.4297 68.2671 16.4551 67.3795 17.7148 67.3795H52.6172C53.877 67.3795 54.9023 68.2671 54.9023 69.3576C54.9023 70.448 53.877 71.3356 52.6172 71.3356H17.7148ZM62.6269 71.3356C61.3574 71.3356 60.332 70.448 60.332 69.3491C60.332 68.2502 61.3574 67.3626 62.6269 67.3626H100.273C101.543 67.3626 102.568 68.2502 102.568 69.3491C102.568 70.448 101.543 71.3356 100.273 71.3356H62.6269ZM62.6269 82.8318C61.3574 82.8318 60.332 81.9442 60.332 80.8453C60.332 79.7464 61.3574 78.8588 62.6269 78.8588H100.273C101.543 78.8588 102.568 79.7464 102.568 80.8453C102.568 81.9442 101.543 82.8318 100.273 82.8318H62.6269ZM18.8184 82.8233C17.5586 82.8233 16.5332 81.9358 16.5332 80.8453C16.5332 79.7549 17.5586 78.8673 18.8184 78.8673H53.7207C54.9805 78.8673 56.0059 79.7549 56.0059 80.8453C56.0059 81.9358 54.9805 82.8233 53.7207 82.8233H18.8184ZM48.9453 8.19949C51.582 8.19949 53.7109 10.0507 53.7109 12.3246C53.7109 14.5985 51.5723 16.4497 48.9453 16.4497C46.3184 16.4497 44.1797 14.5985 44.1797 12.3246C44.1797 10.0507 46.3184 8.19949 48.9453 8.19949ZM15.6152 8.19949C18.252 8.19949 20.3809 10.0507 20.3809 12.3246C20.3809 14.5985 18.2422 16.4497 15.6152 16.4497C12.9785 16.4497 10.8496 14.5985 10.8496 12.3246C10.8496 10.0507 12.9785 8.19949 15.6152 8.19949ZM32.2754 8.19949C34.9121 8.19949 37.041 10.0507 37.041 12.3246C37.041 14.5985 34.9023 16.4497 32.2754 16.4497C29.6387 16.4497 27.5098 14.5985 27.5098 12.3246C27.5098 10.0507 29.6484 8.19949 32.2754 8.19949ZM113.369 22.7642C113.135 22.798 112.9 22.8149 112.666 22.8149H7.33398C7.08984 22.8149 6.85547 22.798 6.63086 22.7642V93.6517C6.63086 93.8208 6.70898 93.9729 6.82617 94.0828L6.83594 94.0913C6.96289 94.2012 7.12891 94.2604 7.33398 94.2604H112.656C112.842 94.2604 113.018 94.1927 113.154 94.0744C113.281 93.9645 113.369 93.8123 113.369 93.6433V22.7642Z" fill="black"/>
<g clip-path="url(#clip1_240_25)">
<path fill-rule="evenodd" clip-rule="evenodd" d="M7.33398 0H112.656C114.658 0 116.494 0.718512 117.822 1.86813L117.832 1.87658L117.842 1.88504L117.852 1.89349C119.18 3.05156 120 4.63229 120 6.36517V93.6686C120 95.4184 119.17 97.0076 117.842 98.1572C116.514 99.3068 114.678 100.025 112.656 100.025H7.33398C5.33203 100.025 3.49609 99.3153 2.1582 98.1572L2.14844 98.1488L2.13867 98.1403L2.12891 98.1319C0.800781 96.9738 -0.0195312 95.3931 -0.0195312 93.6602V6.34827C0 4.59848 0.820313 3.0093 2.14844 1.85968C2.22656 1.79205 2.30469 1.72443 2.39258 1.66526C3.70117 0.633981 5.43945 0 7.33398 0ZM17.1777 29.3914H101.104V57.836H17.1777V29.3914ZM43.0469 49.5604H36.7676L35.8691 52.4852H30.2051L36.9629 34.7506H43.0273L49.7559 52.4852H43.9453L43.0469 49.5604ZM41.875 45.7227L39.9121 39.3491L37.9492 45.7227H41.875ZM52.4609 34.7506H60.7031C62.3242 34.7506 63.6426 34.9704 64.6387 35.4015C65.6348 35.8411 66.4649 36.4666 67.1191 37.2781C67.7734 38.0981 68.2422 39.0448 68.5352 40.1183C68.8281 41.2003 68.9746 42.3415 68.9746 43.5503C68.9746 45.4438 68.7598 46.9146 68.3203 47.9543C67.8906 49.0025 67.2852 49.8732 66.5039 50.5833C65.7227 51.2933 64.8926 51.7582 64.0039 51.9949C62.793 52.3161 61.6895 52.4768 60.7031 52.4768H52.4609V34.7506ZM57.9981 38.7574V48.4446H59.3555C60.5176 48.4446 61.3477 48.3178 61.8359 48.0642C62.3242 47.8106 62.7051 47.3626 62.9883 46.7371C63.2715 46.1031 63.4082 45.0803 63.4082 43.6602C63.4082 41.7836 63.0957 40.4987 62.4805 39.8056C61.8555 39.1124 60.8301 38.7658 59.3848 38.7658H57.9981V38.7574ZM71.8066 46.6188L77.0703 46.2891C77.1875 47.1344 77.4121 47.7768 77.7637 48.2164C78.3398 48.9265 79.1504 49.2899 80.2148 49.2899C81.0059 49.2899 81.6113 49.1124 82.041 48.7405C82.4707 48.377 82.6855 47.9459 82.6855 47.4641C82.6855 47.0076 82.4902 46.5934 82.0801 46.2299C81.6797 45.8664 80.7324 45.5283 79.248 45.1986C76.8164 44.6661 75.0879 43.9476 74.0527 43.0516C73.0078 42.164 72.4902 41.0228 72.4902 39.6365C72.4902 38.732 72.7539 37.8698 73.291 37.0583C73.8281 36.2468 74.6289 35.6128 75.7031 35.1479C76.7773 34.683 78.2422 34.4548 80.1172 34.4548C82.4121 34.4548 84.1602 34.8774 85.3613 35.7227C86.5625 36.568 87.2754 37.9036 87.5098 39.7464L82.2949 40.0507C82.1582 39.2477 81.8652 38.656 81.4258 38.2925C80.9766 37.929 80.3613 37.743 79.5801 37.743C78.9355 37.743 78.4473 37.8783 78.125 38.1488C77.8027 38.4193 77.6367 38.7489 77.6367 39.1378C77.6367 39.4167 77.7734 39.6703 78.0371 39.8986C78.291 40.1352 78.9063 40.3466 79.8828 40.5494C82.3047 41.0651 84.043 41.5892 85.0781 42.1217C86.1231 42.6543 86.8945 43.3052 87.3633 44.0828C87.8418 44.8605 88.0762 45.7396 88.0762 46.7117C88.0762 47.8445 87.7539 48.8926 87.1191 49.8563C86.4844 50.8115 85.5957 51.5469 84.4531 52.0372C83.3106 52.5359 81.875 52.7811 80.1367 52.7811C77.0898 52.7811 74.9707 52.1978 73.7988 51.0397C72.627 49.8732 71.9629 48.4024 71.8066 46.6188ZM17.7148 71.3356C16.4551 71.3356 15.4297 70.448 15.4297 69.3576C15.4297 68.2671 16.4551 67.3795 17.7148 67.3795H52.6172C53.877 67.3795 54.9023 68.2671 54.9023 69.3576C54.9023 70.448 53.877 71.3356 52.6172 71.3356H17.7148ZM62.6269 71.3356C61.3574 71.3356 60.332 70.448 60.332 69.3491C60.332 68.2502 61.3574 67.3626 62.6269 67.3626H100.273C101.543 67.3626 102.568 68.2502 102.568 69.3491C102.568 70.448 101.543 71.3356 100.273 71.3356H62.6269ZM62.6269 82.8318C61.3574 82.8318 60.332 81.9442 60.332 80.8453C60.332 79.7464 61.3574 78.8588 62.6269 78.8588H100.273C101.543 78.8588 102.568 79.7464 102.568 80.8453C102.568 81.9442 101.543 82.8318 100.273 82.8318H62.6269ZM18.8184 82.8233C17.5586 82.8233 16.5332 81.9358 16.5332 80.8453C16.5332 79.7549 17.5586 78.8673 18.8184 78.8673H53.7207C54.9805 78.8673 56.0059 79.7549 56.0059 80.8453C56.0059 81.9358 54.9805 82.8233 53.7207 82.8233H18.8184ZM48.9453 8.19949C51.582 8.19949 53.7109 10.0507 53.7109 12.3246C53.7109 14.5985 51.5723 16.4497 48.9453 16.4497C46.3184 16.4497 44.1797 14.5985 44.1797 12.3246C44.1797 10.0507 46.3184 8.19949 48.9453 8.19949ZM15.6152 8.19949C18.252 8.19949 20.3809 10.0507 20.3809 12.3246C20.3809 14.5985 18.2422 16.4497 15.6152 16.4497C12.9785 16.4497 10.8496 14.5985 10.8496 12.3246C10.8496 10.0507 12.9785 8.19949 15.6152 8.19949ZM32.2754 8.19949C34.9121 8.19949 37.041 10.0507 37.041 12.3246C37.041 14.5985 34.9023 16.4497 32.2754 16.4497C29.6387 16.4497 27.5098 14.5985 27.5098 12.3246C27.5098 10.0507 29.6484 8.19949 32.2754 8.19949ZM113.369 22.7642C113.135 22.798 112.9 22.8149 112.666 22.8149H7.33398C7.08984 22.8149 6.85547 22.798 6.63086 22.7642V93.6517C6.63086 93.8208 6.70898 93.9729 6.82617 94.0828L6.83594 94.0913C6.96289 94.2012 7.12891 94.2604 7.33398 94.2604H112.656C112.842 94.2604 113.018 94.1927 113.154 94.0744C113.281 93.9645 113.369 93.8123 113.369 93.6433V22.7642Z" fill="#2E79BD"/>
</g>
</g>
<defs>
<clipPath id="clip0_240_25">
<rect width="120" height="100" fill="white"/>
</clipPath>
<clipPath id="clip1_240_25">
<rect width="91" height="61" fill="white" transform="translate(13 26)"/>
</clipPath>
</defs>
</svg>
