<svg width="120" height="100" viewBox="0 0 120 100" fill="none" xmlns="http://www.w3.org/2000/svg">
<g clip-path="url(#clip0_240_20)">
<path d="M120.43 17.6067V-0.0666504H-0.428711V17.6067H3.78514V82.3934H-0.428711V100.067H120.43V82.395H116.214V17.6067H120.43ZM106.842 4.74335C106.842 4.37502 107.116 4.08168 107.451 4.08168H112.448C112.785 4.08168 113.057 4.37669 113.057 4.74335V12.8C113.057 13.165 112.784 13.46 112.448 13.46H107.451C107.114 13.46 106.842 13.165 106.842 12.8V4.74335ZM95.7421 4.74335C95.7421 4.37502 96.0159 4.08168 96.3513 4.08168H101.348C101.685 4.08168 101.957 4.37669 101.957 4.74335V12.8C101.957 13.165 101.684 13.46 101.348 13.46H96.3513C96.0144 13.46 95.7421 13.165 95.7421 12.8V4.74335ZM84.6436 4.74335C84.6436 4.37502 84.9175 4.08168 85.2528 4.08168H90.2467C90.5867 4.08168 90.859 4.37669 90.859 4.74335V12.8C90.859 13.165 90.5851 13.46 90.2467 13.46H85.2528C84.9159 13.46 84.6436 13.165 84.6436 12.8V4.74335ZM73.5436 4.74335C73.5436 4.37502 73.8175 4.08168 74.1528 4.08168H79.1467C79.4867 4.08168 79.7559 4.37669 79.7559 4.74335V12.8C79.7559 13.165 79.4851 13.46 79.1467 13.46H74.1528C73.8159 13.46 73.5436 13.165 73.5436 12.8V4.74335ZM62.4436 4.74335C62.4436 4.37502 62.7174 4.08168 63.0528 4.08168H68.0467C68.3836 4.08168 68.6559 4.37669 68.6559 4.74335V12.8C68.6559 13.165 68.3821 13.46 68.0467 13.46H63.0528C62.7159 13.46 62.4436 13.165 62.4436 12.8V4.74335ZM51.3421 4.74335C51.3421 4.37502 51.6174 4.08168 51.9528 4.08168H56.9467C57.2851 4.08168 57.5559 4.37669 57.5559 4.74335V12.8C57.5559 13.165 57.2836 13.46 56.9467 13.46H51.9528C51.6159 13.46 51.3421 13.165 51.3421 12.8V4.74335ZM40.2405 4.74335C40.2405 4.37502 40.5144 4.08168 40.8513 4.08168H45.8467C46.1836 4.08168 46.4574 4.37669 46.4574 4.74335V12.8C46.4574 13.165 46.1821 13.46 45.8467 13.46H40.8513C40.5144 13.46 40.2405 13.165 40.2405 12.8V4.74335ZM29.1405 4.74335C29.1405 4.37502 29.4144 4.08168 29.7513 4.08168H34.7467C35.0836 4.08168 35.3574 4.37669 35.3574 4.74335V12.8C35.3574 13.165 35.0836 13.46 34.7467 13.46H29.7513C29.4144 13.46 29.1405 13.165 29.1405 12.8V4.74335V4.74335ZM18.0405 4.74335C18.0405 4.37502 18.3144 4.08168 18.6513 4.08168H23.6467C23.9836 4.08168 24.2574 4.37669 24.2574 4.74335V12.8C24.2574 13.165 23.9836 13.46 23.6467 13.46H18.6513C18.3144 13.46 18.0405 13.165 18.0405 12.8V4.74335ZM6.94052 4.74335C6.94052 4.37502 7.21437 4.08168 7.55129 4.08168H12.5467C12.8836 4.08168 13.1574 4.37669 13.1574 4.74335V12.8C13.1574 13.165 12.8836 13.46 12.5467 13.46H7.55129C7.21437 13.46 6.94052 13.165 6.94052 12.8V4.74335V4.74335ZM13.1574 95.2584C13.1574 95.6234 12.8836 95.9184 12.5467 95.9184H7.55129C7.21437 95.9184 6.94052 95.6217 6.94052 95.2584V87.2C6.94052 86.835 7.21437 86.54 7.55129 86.54H12.5467C12.8836 86.54 13.1574 86.8367 13.1574 87.2V95.2584ZM24.2574 95.2584C24.2574 95.6234 23.9836 95.9184 23.6467 95.9184H18.6513C18.3144 95.9184 18.0405 95.6217 18.0405 95.2584V87.2C18.0405 86.835 18.3144 86.54 18.6513 86.54H23.6467C23.9836 86.54 24.2574 86.8367 24.2574 87.2V95.2584ZM35.3574 95.2584C35.3574 95.6234 35.0836 95.9184 34.7467 95.9184H29.7513C29.4144 95.9184 29.1405 95.6217 29.1405 95.2584V87.2C29.1405 86.835 29.4144 86.54 29.7513 86.54H34.7467C35.0836 86.54 35.3574 86.8367 35.3574 87.2V95.2584ZM46.459 95.2584C46.459 95.6234 46.1836 95.9184 45.8482 95.9184H40.8528C40.5159 95.9184 40.2421 95.6217 40.2421 95.2584V87.2C40.2421 86.835 40.5159 86.54 40.8528 86.54H45.8467C46.1836 86.54 46.4574 86.8367 46.4574 87.2V95.2584H46.459ZM57.5574 95.2584C57.5574 95.6234 57.2851 95.9184 56.9482 95.9184H51.9544C51.6174 95.9184 51.3436 95.6217 51.3436 95.2584V87.2C51.3436 86.835 51.619 86.54 51.9544 86.54H56.9482C57.2867 86.54 57.5574 86.8367 57.5574 87.2V95.2584ZM68.6574 95.2584C68.6574 95.6234 68.3836 95.9184 68.0482 95.9184H63.0544C62.7174 95.9184 62.4451 95.6217 62.4451 95.2584V87.2C62.4451 86.835 62.719 86.54 63.0544 86.54H68.0482C68.3851 86.54 68.6574 86.8367 68.6574 87.2V95.2584ZM79.7574 95.2584C79.7574 95.6234 79.4867 95.9184 79.1482 95.9184H74.1544C73.8175 95.9184 73.5451 95.6217 73.5451 95.2584V87.2C73.5451 86.835 73.819 86.54 74.1544 86.54H79.1482C79.4882 86.54 79.7574 86.8367 79.7574 87.2V95.2584ZM90.8605 95.2584C90.8605 95.6234 90.5867 95.9184 90.2482 95.9184H85.2544C84.9175 95.9184 84.6451 95.6217 84.6451 95.2584V87.2C84.6451 86.835 84.919 86.54 85.2544 86.54H90.2482C90.5882 86.54 90.8605 86.8367 90.8605 87.2V95.2584ZM101.959 95.2584C101.959 95.6234 101.685 95.9184 101.35 95.9184H96.3528C96.0159 95.9184 95.7436 95.6217 95.7436 95.2584V87.2C95.7436 86.835 96.0174 86.54 96.3528 86.54H101.35C101.687 86.54 101.959 86.8367 101.959 87.2V95.2584ZM113.059 95.2584C113.059 95.6234 112.785 95.9184 112.45 95.9184H107.453C107.116 95.9184 106.844 95.6217 106.844 95.2584V87.2C106.844 86.835 107.117 86.54 107.453 86.54H112.45C112.787 86.54 113.059 86.8367 113.059 87.2V95.2584ZM113.994 82.395H6.00514V17.6067H113.993V82.395H113.994Z" fill="black"/>
<path d="M45.6792 32.0867V67.9133L74.3223 50L45.6792 32.0867Z" fill="#2E79BD"/>
</g>
<defs>
<clipPath id="clip0_240_20">
<rect width="120" height="100" fill="white"/>
</clipPath>
</defs>
</svg>
