<svg width="120" height="120" viewBox="0 0 120 120" fill="none" xmlns="http://www.w3.org/2000/svg">
<path d="M116.194 106.425L106.875 69.15V43.125C106.87 41.6346 106.276 40.2064 105.223 39.1524C104.169 38.0985 102.74 37.5045 101.25 37.5H97.5V33.75H106.875C107.372 33.75 107.849 33.5524 108.201 33.2008C108.552 32.8493 108.75 32.3722 108.75 31.875V22.5C108.75 20.5108 107.96 18.6032 106.553 17.1967C105.147 15.7902 103.239 15 101.25 15H73.125C70.6386 15 68.2539 15.9877 66.4959 17.7459C64.7378 19.5039 63.75 21.8886 63.75 24.375V37.5H43.125V33.75H52.5C53.9904 33.7455 55.4186 33.1515 56.4726 32.0976C57.5265 31.0436 58.1205 29.6154 58.125 28.125V9.375C58.1205 7.88452 57.5265 6.45637 56.4726 5.40244C55.4186 4.34852 53.9904 3.75444 52.5 3.75H18.75C17.2595 3.75444 15.8314 4.34852 14.7774 5.40244C13.7235 6.45637 13.1294 7.88452 13.125 9.375V28.125C13.1294 29.6154 13.7235 31.0436 14.7774 32.0976C15.8314 33.1515 17.2595 33.7455 18.75 33.75H28.125V37.5H18.75C17.2595 37.5045 15.8314 38.0985 14.7774 39.1524C13.7235 40.2064 13.1294 41.6346 13.125 43.125V69.15L3.80625 106.425C3.80625 106.444 3.75 106.744 3.75 106.875V110.625C3.75444 112.115 4.34852 113.544 5.40244 114.598C6.45637 115.651 7.88452 116.245 9.375 116.25H110.625C112.115 116.245 113.544 115.651 114.598 114.598C115.651 113.544 116.245 112.115 116.25 110.625V106.875C116.24 106.724 116.221 106.574 116.194 106.425ZM97.5 22.5C97.5 21.5055 97.8951 20.5517 98.5984 19.8484C99.3017 19.1451 100.256 18.75 101.25 18.75C102.244 18.75 103.198 19.1451 103.902 19.8484C104.605 20.5517 105 21.5055 105 22.5V30H97.5V22.5ZM67.5 24.375C67.5045 22.8846 68.0985 21.4564 69.1524 20.4024C70.2064 19.3485 71.6346 18.7545 73.125 18.75H94.8C94.1181 19.8823 93.7552 21.1781 93.75 22.5V60H67.5V24.375ZM18.75 30C18.2527 30 17.7758 29.8024 17.4242 29.4508C17.0725 29.0993 16.875 28.6222 16.875 28.125V9.375C16.875 8.87771 17.0725 8.40081 17.4242 8.04917C17.7758 7.69755 18.2527 7.5 18.75 7.5H52.5C52.9972 7.5 53.4743 7.69755 53.8258 8.04917C54.1774 8.40081 54.375 8.87771 54.375 9.375V28.125C54.375 28.6222 54.1774 29.0993 53.8258 29.4508C53.4743 29.8024 52.9972 30 52.5 30H18.75ZM39.375 33.75V37.5H31.875V33.75H39.375ZM16.875 43.125C16.875 42.6278 17.0725 42.1507 17.4242 41.7992C17.7758 41.4476 18.2527 41.25 18.75 41.25H63.75V60H61.875C61.3778 60 60.9007 60.1976 60.5492 60.5492C60.1976 60.9007 60 61.3778 60 61.875C60 62.3722 60.1976 62.8493 60.5492 63.2008C60.9007 63.5524 61.3778 63.75 61.875 63.75H99.375C99.8723 63.75 100.349 63.5524 100.701 63.2008C101.052 62.8493 101.25 62.3722 101.25 61.875C101.25 61.3778 101.052 60.9007 100.701 60.5492C100.349 60.1976 99.8723 60 99.375 60H97.5V41.25H101.25C101.747 41.25 102.224 41.4476 102.576 41.7992C102.927 42.1507 103.125 42.6278 103.125 43.125V67.5H16.875V43.125ZM16.4625 71.25H103.538L111.975 105H8.025L16.4625 71.25ZM112.5 110.625C112.5 111.122 112.302 111.599 111.951 111.951C111.599 112.302 111.122 112.5 110.625 112.5H9.375C8.87771 112.5 8.40081 112.302 8.04917 111.951C7.69755 111.599 7.5 111.122 7.5 110.625V108.75H112.5V110.625Z" fill="#2D3E50"/>
<path d="M52.5 45H22.5C22.0028 45 21.5258 45.1976 21.1742 45.5492C20.8226 45.9008 20.625 46.3778 20.625 46.875V61.875C20.625 62.3722 20.8226 62.8493 21.1742 63.2008C21.5258 63.5524 22.0028 63.75 22.5 63.75H52.5C52.9972 63.75 53.4743 63.5524 53.8258 63.2008C54.1774 62.8493 54.375 62.3722 54.375 61.875V46.875C54.375 46.3778 54.1774 45.9008 53.8258 45.5492C53.4743 45.1976 52.9972 45 52.5 45ZM50.625 60H24.375V48.75H50.625V60Z" fill="#2E79BD"/>
<path d="M52.5 26.25V11.25C52.5 10.7527 52.3024 10.2758 51.9508 9.92417C51.5993 9.57255 51.1222 9.375 50.625 9.375H20.625C20.1278 9.375 19.6508 9.57255 19.2992 9.92417C18.9476 10.2758 18.75 10.7527 18.75 11.25V26.25C18.75 26.7472 18.9476 27.2243 19.2992 27.5758C19.6508 27.9274 20.1278 28.125 20.625 28.125H50.625C51.1222 28.125 51.5993 27.9274 51.9508 27.5758C52.3024 27.2243 52.5 26.7472 52.5 26.25ZM48.75 24.375H22.5V13.125H48.75V24.375Z" fill="#2E79BD"/>
<path d="M73.125 33.75H88.125C88.6222 33.75 89.0993 33.5524 89.4508 33.2008C89.8024 32.8492 90 32.3723 90 31.875C90 31.3778 89.8024 30.9008 89.4508 30.5492C89.0993 30.1976 88.6222 30 88.125 30H73.125C72.6278 30 72.1508 30.1976 71.7992 30.5492C71.4476 30.9008 71.25 31.3778 71.25 31.875C71.25 32.3723 71.4476 32.8492 71.7992 33.2008C72.1508 33.5524 72.6278 33.75 73.125 33.75Z" fill="#2E79BD"/>
<path d="M73.125 26.25H88.125C88.6222 26.25 89.0993 26.0524 89.4508 25.7008C89.8024 25.3492 90 24.8723 90 24.375C90 23.8778 89.8024 23.4008 89.4508 23.0492C89.0993 22.6976 88.6222 22.5 88.125 22.5H73.125C72.6278 22.5 72.1508 22.6976 71.7992 23.0492C71.4476 23.4008 71.25 23.8778 71.25 24.375C71.25 24.8723 71.4476 25.3492 71.7992 25.7008C72.1508 26.0524 72.6278 26.25 73.125 26.25Z" fill="#2E79BD"/>
<path d="M73.125 41.25H88.125C88.6222 41.25 89.0993 41.0524 89.4508 40.7008C89.8024 40.3492 90 39.8723 90 39.375C90 38.8778 89.8024 38.4008 89.4508 38.0492C89.0993 37.6976 88.6222 37.5 88.125 37.5H73.125C72.6278 37.5 72.1508 37.6976 71.7992 38.0492C71.4476 38.4008 71.25 38.8778 71.25 39.375C71.25 39.8723 71.4476 40.3492 71.7992 40.7008C72.1508 41.0524 72.6278 41.25 73.125 41.25Z" fill="#2E79BD"/>
<path d="M73.125 48.75H88.125C88.6222 48.75 89.0993 48.5524 89.4508 48.2008C89.8024 47.8492 90 47.3723 90 46.875C90 46.3778 89.8024 45.9008 89.4508 45.5492C89.0993 45.1976 88.6222 45 88.125 45H73.125C72.6278 45 72.1508 45.1976 71.7992 45.5492C71.4476 45.9008 71.25 46.3778 71.25 46.875C71.25 47.3723 71.4476 47.8492 71.7992 48.2008C72.1508 48.5524 72.6278 48.75 73.125 48.75Z" fill="#2E79BD"/>
<path d="M73.125 56.25H88.125C88.6222 56.25 89.0993 56.0524 89.4508 55.7008C89.8024 55.3492 90 54.8723 90 54.375C90 53.8778 89.8024 53.4008 89.4508 53.0492C89.0993 52.6976 88.6222 52.5 88.125 52.5H73.125C72.6278 52.5 72.1508 52.6976 71.7992 53.0492C71.4476 53.4008 71.25 53.8778 71.25 54.375C71.25 54.8723 71.4476 55.3492 71.7992 55.7008C72.1508 56.0524 72.6278 56.25 73.125 56.25Z" fill="#2E79BD"/>
<path d="M71.25 75H63.75C63.2528 75 62.7758 75.1976 62.4242 75.5492C62.0726 75.9008 61.875 76.3778 61.875 76.875V84.375C61.875 84.8722 62.0726 85.3492 62.4242 85.7008C62.7758 86.0524 63.2528 86.25 63.75 86.25H71.25C71.7472 86.25 72.2242 86.0524 72.5758 85.7008C72.9274 85.3492 73.125 84.8722 73.125 84.375V76.875C73.125 76.3778 72.9274 75.9008 72.5758 75.5492C72.2242 75.1976 71.7472 75 71.25 75ZM69.375 82.5H65.625V78.75H69.375V82.5Z" fill="#2E79BD"/>
<path d="M71.25 90H63.75C63.2528 90 62.7758 90.1976 62.4242 90.5492C62.0726 90.9008 61.875 91.3778 61.875 91.875V99.375C61.875 99.8722 62.0726 100.349 62.4242 100.701C62.7758 101.052 63.2528 101.25 63.75 101.25H71.25C71.7472 101.25 72.2242 101.052 72.5758 100.701C72.9274 100.349 73.125 99.8722 73.125 99.375V91.875C73.125 91.3778 72.9274 90.9008 72.5758 90.5492C72.2242 90.1976 71.7472 90 71.25 90ZM69.375 97.5H65.625V93.75H69.375V97.5Z" fill="#2E79BD"/>
<path d="M56.25 75H48.75C48.2528 75 47.7758 75.1976 47.4242 75.5492C47.0726 75.9008 46.875 76.3778 46.875 76.875V84.375C46.875 84.8722 47.0726 85.3492 47.4242 85.7008C47.7758 86.0524 48.2528 86.25 48.75 86.25H56.25C56.7472 86.25 57.2242 86.0524 57.5758 85.7008C57.9274 85.3492 58.125 84.8722 58.125 84.375V76.875C58.125 76.3778 57.9274 75.9008 57.5758 75.5492C57.2242 75.1976 56.7472 75 56.25 75ZM54.375 82.5H50.625V78.75H54.375V82.5Z" fill="#2E79BD"/>
<path d="M56.25 90H48.75C48.2528 90 47.7758 90.1976 47.4242 90.5492C47.0726 90.9008 46.875 91.3778 46.875 91.875V99.375C46.875 99.8722 47.0726 100.349 47.4242 100.701C47.7758 101.052 48.2528 101.25 48.75 101.25H56.25C56.7472 101.25 57.2242 101.052 57.5758 100.701C57.9274 100.349 58.125 99.8722 58.125 99.375V91.875C58.125 91.3778 57.9274 90.9008 57.5758 90.5492C57.2242 90.1976 56.7472 90 56.25 90ZM54.375 97.5H50.625V93.75H54.375V97.5Z" fill="#2E79BD"/>
<path d="M101.25 75H93.75C93.2528 75 92.7758 75.1976 92.4242 75.5492C92.0726 75.9008 91.875 76.3778 91.875 76.875V84.375C91.875 84.8722 92.0726 85.3492 92.4242 85.7008C92.7758 86.0524 93.2528 86.25 93.75 86.25H101.25C101.747 86.25 102.224 86.0524 102.576 85.7008C102.927 85.3492 103.125 84.8722 103.125 84.375V76.875C103.125 76.3778 102.927 75.9008 102.576 75.5492C102.224 75.1976 101.747 75 101.25 75ZM99.375 82.5H95.625V78.75H99.375V82.5Z" fill="#2E79BD"/>
<path d="M101.25 90H93.75C93.2528 90 92.7758 90.1976 92.4242 90.5492C92.0726 90.9008 91.875 91.3778 91.875 91.875V99.375C91.875 99.8722 92.0726 100.349 92.4242 100.701C92.7758 101.052 93.2528 101.25 93.75 101.25H101.25C101.747 101.25 102.224 101.052 102.576 100.701C102.927 100.349 103.125 99.8722 103.125 99.375V91.875C103.125 91.3778 102.927 90.9008 102.576 90.5492C102.224 90.1976 101.747 90 101.25 90ZM99.375 97.5H95.625V93.75H99.375V97.5Z" fill="#2E79BD"/>
<path d="M86.25 75H78.75C78.2528 75 77.7758 75.1976 77.4242 75.5492C77.0726 75.9008 76.875 76.3778 76.875 76.875V84.375C76.875 84.8722 77.0726 85.3492 77.4242 85.7008C77.7758 86.0524 78.2528 86.25 78.75 86.25H86.25C86.7472 86.25 87.2242 86.0524 87.5758 85.7008C87.9274 85.3492 88.125 84.8722 88.125 84.375V76.875C88.125 76.3778 87.9274 75.9008 87.5758 75.5492C87.2242 75.1976 86.7472 75 86.25 75ZM84.375 82.5H80.625V78.75H84.375V82.5Z" fill="#2E79BD"/>
<path d="M86.25 90H78.75C78.2528 90 77.7758 90.1976 77.4242 90.5492C77.0726 90.9008 76.875 91.3778 76.875 91.875V99.375C76.875 99.8722 77.0726 100.349 77.4242 100.701C77.7758 101.052 78.2528 101.25 78.75 101.25H86.25C86.7472 101.25 87.2242 101.052 87.5758 100.701C87.9274 100.349 88.125 99.8722 88.125 99.375V91.875C88.125 91.3778 87.9274 90.9008 87.5758 90.5492C87.2242 90.1976 86.7472 90 86.25 90ZM84.375 97.5H80.625V93.75H84.375V97.5Z" fill="#2E79BD"/>
<path d="M41.25 75H33.75C33.2528 75 32.7758 75.1976 32.4242 75.5492C32.0726 75.9008 31.875 76.3778 31.875 76.875V84.375C31.875 84.8722 32.0726 85.3492 32.4242 85.7008C32.7758 86.0524 33.2528 86.25 33.75 86.25H41.25C41.7472 86.25 42.2242 86.0524 42.5758 85.7008C42.9274 85.3492 43.125 84.8722 43.125 84.375V76.875C43.125 76.3778 42.9274 75.9008 42.5758 75.5492C42.2242 75.1976 41.7472 75 41.25 75ZM39.375 82.5H35.625V78.75H39.375V82.5Z" fill="#2E79BD"/>
<path d="M41.25 90H33.75C33.2528 90 32.7758 90.1976 32.4242 90.5492C32.0726 90.9008 31.875 91.3778 31.875 91.875V99.375C31.875 99.8722 32.0726 100.349 32.4242 100.701C32.7758 101.052 33.2528 101.25 33.75 101.25H41.25C41.7472 101.25 42.2242 101.052 42.5758 100.701C42.9274 100.349 43.125 99.8722 43.125 99.375V91.875C43.125 91.3778 42.9274 90.9008 42.5758 90.5492C42.2242 90.1976 41.7472 90 41.25 90ZM39.375 97.5H35.625V93.75H39.375V97.5Z" fill="#2E79BD"/>
<path d="M26.25 90H18.75C18.2527 90 17.7758 90.1976 17.4242 90.5492C17.0725 90.9008 16.875 91.3778 16.875 91.875V99.375C16.875 99.8722 17.0725 100.349 17.4242 100.701C17.7758 101.052 18.2527 101.25 18.75 101.25H26.25C26.7472 101.25 27.2242 101.052 27.5758 100.701C27.9274 100.349 28.125 99.8722 28.125 99.375V91.875C28.125 91.3778 27.9274 90.9008 27.5758 90.5492C27.2242 90.1976 26.7472 90 26.25 90ZM24.375 97.5H20.625V93.75H24.375V97.5Z" fill="#2E79BD"/>
<path d="M26.25 75H18.75C18.2527 75 17.7758 75.1976 17.4242 75.5492C17.0725 75.9008 16.875 76.3778 16.875 76.875V84.375C16.875 84.8722 17.0725 85.3492 17.4242 85.7008C17.7758 86.0524 18.2527 86.25 18.75 86.25H26.25C26.7472 86.25 27.2242 86.0524 27.5758 85.7008C27.9274 85.3492 28.125 84.8722 28.125 84.375V76.875C28.125 76.3778 27.9274 75.9008 27.5758 75.5492C27.2242 75.1976 26.7472 75 26.25 75ZM24.375 82.5H20.625V78.75H24.375V82.5Z" fill="#2E79BD"/>
</svg>
