<svg width="120" height="120" viewBox="0 0 120 120" fill="none" xmlns="http://www.w3.org/2000/svg">
<g clip-path="url(#clip0_240_2)">
<path d="M110.826 93.6889L91.0633 83.8075C88.5102 82.531 86.8964 79.9199 86.8964 77.0648V69.3103C87.4509 68.6793 88.0881 67.8662 88.7667 66.9062C91.4605 63.1034 93.4964 58.9179 94.9095 54.5255C97.444 53.7455 99.3102 51.4034 99.3102 48.6206V40.3448C99.3102 38.5241 98.5012 36.8958 97.2412 35.7579V23.7931C97.2412 23.7931 99.6971 5.17236 74.4826 5.17236C49.266 5.17236 51.724 23.7931 51.724 23.7931V35.7579C50.464 36.8958 49.655 38.5241 49.655 40.3448V48.6206C49.655 50.8013 50.8012 52.7193 52.5164 53.8282C54.5833 62.8324 59.9998 69.3103 59.9998 69.3103V76.8724C59.9998 79.6303 58.4936 82.1689 56.0709 83.4889L37.6136 93.5586C32.2819 96.4655 28.9653 102.054 28.9653 108.126V114.828H120V108.532C120 102.246 116.447 96.5006 110.826 93.6889Z" fill="#2E79BD"/>
<path d="M37.6138 93.5587L49.9159 86.8491C49.8455 86.7808 49.9055 86.7601 50.0503 86.7746L56.071 83.4911C58.4938 82.1691 60 79.6325 60 76.8725V69.3104C60 69.3104 57.8028 66.6725 55.6717 62.4353L55.6697 62.4291C55.3903 61.8746 55.1152 61.2891 54.8441 60.6829C54.8069 60.598 54.7697 60.5173 54.7324 60.4325C54.4572 59.8056 54.1883 59.158 53.9338 58.4794C53.9172 58.436 53.9028 58.3884 53.8862 58.3449C53.6628 57.7449 53.4538 57.1263 53.2531 56.4911C53.1993 56.3173 53.1455 56.1456 53.0938 55.9718C52.8848 55.2725 52.6883 54.5608 52.5186 53.8242C50.8014 52.7194 49.6552 50.8015 49.6552 48.6208V40.3449C49.6552 38.5242 50.4641 36.896 51.7241 35.758V24.0725C48.8007 21.8049 44.2697 19.6553 37.2414 19.6553C17.4559 19.6553 16.5517 36.207 16.5517 36.207V46.5415C15.4634 47.5242 14.4828 48.9291 14.4828 50.5015V57.6498C14.4828 59.5346 15.4738 61.1898 16.9531 62.1477C18.7386 69.9229 24.7324 75.5194 24.7324 75.5194V82.0511C24.7324 84.4325 23.431 86.6256 21.3393 87.7656L7.46897 96.4594C2.86552 98.9711 0 103.796 0 109.041V114.828H28.9655V108.126C28.9655 102.054 32.2821 96.4656 37.6138 93.5587Z" fill="#392F2F"/>
</g>
<defs>
<clipPath id="clip0_240_2">
<rect width="120" height="120" fill="white"/>
</clipPath>
</defs>
</svg>
