<svg width="493" height="493" viewBox="0 0 493 493" fill="none" xmlns="http://www.w3.org/2000/svg">
<g clip-path="url(#clip0_251_4739)">
<path d="M118.889 151.87H374.735V173.193H118.889V151.87Z" fill="black"/>
<path d="M86.9081 354.417C63.3597 354.417 44.2695 335.327 44.2695 311.774V194.512C44.2695 170.96 63.3597 151.87 86.9081 151.87C110.46 151.87 129.55 170.96 129.55 194.512V311.774C129.55 335.327 110.46 354.417 86.9081 354.417ZM86.9081 173.193C75.1339 173.193 65.5888 182.738 65.5888 194.512V311.774C65.5888 323.548 75.1339 333.097 86.9081 333.097C98.6862 333.097 108.231 323.548 108.231 311.774V194.512C108.231 182.738 98.6862 173.193 86.9081 173.193Z" fill="black"/>
<path d="M406.717 354.417C383.168 354.417 364.078 335.327 364.078 311.774V194.512C364.078 170.96 383.168 151.87 406.717 151.87C430.269 151.87 449.359 170.96 449.359 194.512V311.774C449.359 335.327 430.269 354.417 406.717 354.417ZM406.717 173.193C394.942 173.193 385.397 182.738 385.397 194.512V311.774C385.397 323.548 394.942 333.097 406.717 333.097C418.495 333.097 428.04 323.548 428.04 311.774V194.512C428.04 182.738 418.495 173.193 406.717 173.193Z" fill="black"/>
<path d="M300.117 493.002C276.564 493.002 257.474 473.908 257.474 450.359V397.059H236.155V450.359C236.155 473.908 217.065 493.002 193.512 493.002C169.964 493.002 150.87 473.908 150.87 450.359V397.059H140.212C122.547 397.059 108.231 382.74 108.231 365.078V162.532C108.231 85.9954 170.276 23.9467 246.813 23.9467C323.353 23.9467 385.398 85.9954 385.398 162.532V365.078C385.398 382.74 371.078 397.059 353.417 397.059H342.755V450.359C342.755 473.908 323.665 493.002 300.117 493.002ZM214.832 375.736H278.793V450.359C278.793 462.134 288.342 471.679 300.117 471.679C311.891 471.679 321.436 462.134 321.436 450.359V375.736H353.417C359.304 375.736 364.078 370.965 364.078 365.078V162.532C364.078 97.7696 311.578 45.2698 246.813 45.2698C182.051 45.2698 129.551 97.7696 129.551 162.532V365.078C129.551 370.965 134.325 375.736 140.212 375.736H172.193V450.359C172.193 462.134 181.738 471.679 193.512 471.679C205.287 471.679 214.832 462.134 214.832 450.359V375.736Z" fill="black"/>
<path d="M204.174 98.5699H182.851V119.889H204.174V98.5699Z" fill="black"/>
<path d="M310.774 98.5699H289.455V119.889H310.774V98.5699Z" fill="black"/>
<path d="M147.423 12.2037L165.115 0.312378L194.645 44.2548L176.948 56.1461L147.423 12.2037Z" fill="black"/>
<path d="M298.754 43.9073L328.26 0L345.964 11.8991L316.458 55.8064L298.754 43.9073Z" fill="black"/>
</g>
<defs>
<clipPath id="clip0_251_4739">
<rect width="493" height="493" fill="white"/>
</clipPath>
</defs>
</svg>
