<svg width="512" height="512" viewBox="0 0 512 512" fill="none" xmlns="http://www.w3.org/2000/svg">
<path d="M407 0H105C47.103 0 0 47.103 0 105V407C0 464.897 47.103 512 105 512H407C464.897 512 512 464.897 512 407V105C512 47.103 464.897 0 407 0ZM482 407C482 448.355 448.355 482 407 482H105C63.645 482 30 448.355 30 407V105C30 63.645 63.645 30 105 30H407C448.355 30 482 63.645 482 105V407Z" fill="black"/>
<path d="M186.923 180.173C186.923 180.173 173.237 180.236 163.393 193.211C154.639 204.749 156.868 214.617 156.868 214.617C156.868 214.617 168.737 216.671 179.179 204.123C188.958 192.372 186.923 180.173 186.923 180.173Z" fill="black"/>
<path d="M197.958 259.573C197.958 239.471 214.162 231.187 214.162 231.187C214.162 231.187 205.877 216.202 184.818 216.202C172.584 216.202 163.185 223.163 158.12 223.163C152.221 223.163 143.414 216.619 132.067 216.619C114.611 216.619 96.001 232.249 96.001 262.044C96 292.326 117.987 330 135.391 330C141.466 330 150.793 323.881 160.192 323.881C169.415 323.881 176.221 329.78 184.975 329.78C204.034 329.78 218.144 290.065 218.144 290.065C218.144 290.065 197.958 282.25 197.958 259.573Z" fill="black"/>
<path d="M304 301.4C302.4 302.069 295 305.2 289.4 305.2C283.5 305.2 279.4 302.25 279.4 295V243.8H301.4V223.2H279.4V189.2H252.6V223.2H238.8V243.8H252.6V304C252.6 320 261.999 329.8 279.8 329.8C285.531 329.8 291 329 296.2 327.4C301.4 325.8 305.8 324.2 309.4 322.6L304 301.4Z" fill="black"/>
<path d="M393.998 223.2L367.198 306.2L340.598 223.2H312.998L351.598 328H380.598L419.198 223.2H393.998Z" fill="black"/>
</svg>
