<svg width="490" height="490" viewBox="0 0 490 490" fill="none" xmlns="http://www.w3.org/2000/svg">
<g clip-path="url(#clip0_251_4736)">
<path d="M251.527 117.173H240.873V106.523C240.873 36.8834 277.756 0 347.396 0H358.046V10.6535C358.046 80.2892 321.162 117.173 251.527 117.173ZM336.341 21.7048C290.005 24.8997 265.773 49.1324 262.441 95.6043C309.58 92.4094 333.279 68.7073 336.341 21.7048Z" fill="black"/>
<path d="M336.742 490.001C319.582 489.99 302.683 485.831 287.477 477.885C265.059 465.882 238.123 465.882 215.708 477.885C200.498 485.831 183.599 489.99 166.439 490.001C94.8059 490.001 38.6128 391.733 38.6128 266.306C38.6128 190.007 96.0035 127.826 166.439 127.826C179.628 127.826 192.727 130.03 205.187 134.352L244.735 148.064C249.264 149.628 254.187 149.628 258.716 148.064L298.127 134.352C310.548 130.05 323.596 127.846 336.742 127.826C375.221 127.826 411.172 146.336 435.674 178.558L444.993 190.939L430.08 195.199C391.789 206.235 366.284 242.366 368.714 282.143C371.141 321.921 400.85 354.681 440.199 360.974L452.319 362.971L448.59 374.689C426.487 445.792 383.48 490.001 336.742 490.001ZM251.526 447.391C267.501 447.516 283.214 451.491 297.327 458.977C309.475 465.39 323.007 468.725 336.742 468.694C371.628 468.694 404.783 434.741 424.755 379.351C378.888 366.482 347.24 324.593 347.396 276.955C347.579 235.535 371.64 197.938 409.175 180.422C389.604 160.45 363.905 149.129 336.742 149.129C325.956 149.133 315.244 150.931 305.051 154.458L265.507 168.17C256.488 171.267 246.693 171.267 237.678 168.17L197.998 154.458C187.804 150.931 177.092 149.129 166.306 149.129C107.585 149.129 59.7871 201.726 59.7871 266.306C59.7871 376.024 108.518 468.694 166.306 468.694C180.041 468.729 193.578 465.394 205.721 458.977C219.835 451.491 235.548 447.516 251.526 447.391Z" fill="black"/>
</g>
<defs>
<clipPath id="clip0_251_4736">
<rect width="490" height="490" fill="white"/>
</clipPath>
</defs>
</svg>
