<svg width="30" height="30" viewBox="0 0 30 30" fill="none" xmlns="http://www.w3.org/2000/svg">
<path fill-rule="evenodd" clip-rule="evenodd" d="M15 30C23.2843 30 30 23.2843 30 15C30 6.71573 23.2843 0 15 0C6.71573 0 0 6.71573 0 15C0 23.2843 6.71573 30 15 30ZM8.82129 13.8216C9.47216 13.1707 10.5274 13.1707 11.1783 13.8216L13.3331 15.9764L18.8213 10.4882C19.4722 9.83736 20.5274 9.83736 21.1783 10.4882C21.8292 11.1391 21.8292 12.1944 21.1783 12.8453L14.5116 19.5119C13.8608 20.1628 12.8055 20.1628 12.1546 19.5119L8.82129 16.1786C8.17041 15.5277 8.17041 14.4724 8.82129 13.8216Z" fill="#00BB34"/>
</svg>
