<svg width="45" height="45" viewBox="0 0 45 45" fill="none" xmlns="http://www.w3.org/2000/svg">
<rect width="45" height="45" rx="10" fill="url(#paint0_linear_144_21)"/>
<path d="M22.5954 23.8471C22.2309 23.845 21.8686 23.7881 21.5201 23.6782C21.1379 23.5575 20.7685 23.3975 20.4174 23.2006C19.9374 22.9466 19.4788 22.6517 19.0464 22.319C18.6573 22.0053 18.2895 21.6644 17.9456 21.2989C17.4798 20.8194 17.0453 20.3289 16.6881 19.8785C16.2929 19.399 15.9517 18.875 15.6709 18.3166L15.6472 18.2656V18.264L15.6417 18.2521V18.2495V18.2468L15.6141 18.1858L15.6123 18.1818L15.6104 18.1778L15.5844 18.119L15.581 18.1115V18.1093L15.5617 18.0653L15.5557 18.0516L15.5512 18.0411L15.5476 18.0328V18.0312L15.5275 17.9842L15.5254 17.9788L15.5199 17.9737L15.4962 17.9168L15.4923 17.9074L15.4691 17.8497L15.4675 17.846L15.466 17.8422L15.4441 17.7858L15.4414 17.7791L15.4203 17.7235V17.7217L15.4175 17.7141L15.3974 17.6605L15.3955 17.6551L15.3932 17.6489C15.3869 17.6317 15.3809 17.6146 15.3747 17.5968V17.5933L15.371 17.5829C15.364 17.563 15.3585 17.5466 15.3536 17.5321V17.5289L15.3496 17.5168L15.3293 17.4637L15.3243 17.4481L15.3084 17.3987L15.3058 17.3909L15.3037 17.3831C15.298 17.3649 15.2933 17.349 15.2889 17.3345L15.2844 17.3192L15.2717 17.2758L15.2693 17.2674V17.2658L15.2667 17.2564L15.2537 17.2135L15.2516 17.2062L15.2495 17.1952C15.2451 17.1783 15.2412 17.1635 15.2375 17.1496L15.2349 17.1415L15.2325 17.1327C15.2292 17.119 15.2252 17.1042 15.2213 17.0876L15.2174 17.0715V17.0677C15.2146 17.0556 15.2106 17.0409 15.207 17.0237L15.2015 17.0025C15.1984 16.9893 15.1953 16.9756 15.1919 16.959L15.1898 16.9488L15.1874 16.938C15.1843 16.9235 15.1814 16.909 15.1786 16.8948L15.1754 16.8749C15.1733 16.8647 15.1715 16.8545 15.1694 16.8443V16.839V16.8344V16.8328L15.1655 16.8113V16.8086L15.16 16.7772C15.1582 16.7673 15.1567 16.7574 15.1551 16.7474L15.1499 16.7147C15.1483 16.7053 15.147 16.6959 15.1454 16.6878C15.1439 16.6798 15.1421 16.6645 15.1402 16.6527L15.1387 16.6411L15.1371 16.6296C15.1353 16.6159 15.1334 16.6027 15.1319 16.589L15.1259 16.5681V16.5643C15.1233 16.5488 15.1233 16.5359 15.1207 16.5241C15.1207 16.5168 15.1191 16.5096 15.1183 16.5023V16.4996C15.117 16.4868 15.1157 16.4728 15.1144 16.4599C15.1144 16.4524 15.1131 16.4446 15.1123 16.4371V16.4355C15.1113 16.4244 15.1103 16.4133 15.1095 16.4022C15.1095 16.3923 15.1079 16.3826 15.1074 16.3727C15.1068 16.3627 15.1061 16.3531 15.1053 16.3434C15.1053 16.3324 15.104 16.3214 15.1035 16.3101C15.1029 16.2988 15.1035 16.2916 15.1019 16.2833C15.1003 16.2749 15.1019 16.261 15.1006 16.25V16.2484C15.1006 16.239 15.1006 16.2296 15.1006 16.2202C15.1006 16.2108 15.1006 16.2054 15.1006 16.1982V16.1874C15.1006 16.1772 15.1006 16.1668 15.1006 16.1566C15.1006 16.1464 15.1006 16.1399 15.1006 16.1316V16.069C15.1006 16.0561 15.1006 16.0433 15.1006 16.0304C15.1006 16.0212 15.1006 16.0121 15.1006 16.0035C15.1006 15.9949 15.1006 15.9807 15.1006 15.9692C15.1006 15.9627 15.1006 15.9566 15.1006 15.9501V15.9407C15.1006 15.9262 15.1006 15.9139 15.1024 15.9015C15.1024 15.8943 15.1024 15.8868 15.1024 15.8795C15.1024 15.8677 15.1037 15.8551 15.1048 15.84C15.1048 15.8331 15.1048 15.8258 15.1063 15.8188C15.1063 15.8054 15.1084 15.792 15.1095 15.7786V15.7654V15.756C15.1107 15.7426 15.112 15.7292 15.1134 15.7157L15.1155 15.6945V15.6902C15.1155 15.6782 15.1181 15.665 15.1201 15.6494C15.1201 15.6446 15.1201 15.6398 15.122 15.6349V15.628V15.6253C15.1235 15.6119 15.1254 15.5984 15.1272 15.585L15.1298 15.5659C15.1319 15.5514 15.134 15.537 15.1361 15.5227L15.1387 15.5066V15.5042C15.1407 15.4908 15.1431 15.476 15.146 15.4591L15.1491 15.4403C15.1517 15.4247 15.1546 15.4089 15.1574 15.3931L15.1598 15.3807V15.374C15.1627 15.3584 15.1658 15.3423 15.1689 15.3267L15.1715 15.3133V15.3109C15.1747 15.2953 15.178 15.2792 15.1814 15.2634V15.2583L15.1835 15.2484C15.1866 15.2336 15.1903 15.218 15.1945 15.1998L15.1979 15.1855C15.2015 15.1702 15.2054 15.1536 15.2104 15.1332L15.2122 15.1259L15.2138 15.12C15.2182 15.102 15.2229 15.0838 15.2281 15.0639L15.2294 15.0588L15.231 15.0532C15.2362 15.0336 15.2409 15.0161 15.2453 14.9995L15.2487 14.9871C15.2532 14.9713 15.2586 14.9525 15.2641 14.9335V14.9313L15.267 14.9216C15.2727 14.9023 15.2784 14.8835 15.2837 14.8663L15.2865 14.8569C15.2923 14.8384 15.2985 14.8186 15.3058 14.796L15.3074 14.7909V14.789C15.3139 14.7686 15.321 14.748 15.3272 14.7289L15.3303 14.72C15.3369 14.7004 15.3439 14.6806 15.3504 14.662L15.352 14.6577L15.3536 14.6535C15.3616 14.6309 15.3684 14.6124 15.3747 14.5947L15.3773 14.5874C15.3849 14.5673 15.3927 14.5463 15.4008 14.5251L15.4023 14.5211C15.4102 14.5004 15.4188 14.4787 15.4284 14.4545L15.4302 14.45C15.4391 14.4277 15.4474 14.4067 15.4563 14.3863L15.4592 14.3794C15.4667 14.3608 15.4751 14.341 15.4853 14.3171L15.4884 14.3098C15.4962 14.2916 15.5048 14.2712 15.516 14.2459L15.5184 14.2406C15.5301 14.2137 15.54 14.1917 15.5492 14.1716C16.0927 12.9689 16.9053 12.1313 17.6926 11.3216L17.7083 11.3055C18.1662 10.8341 18.5937 10.4317 19.0149 10.0754C19.4966 9.66361 20.0099 9.29256 20.5497 8.96589C20.8498 8.78208 21.1717 8.63914 21.5076 8.54065C21.7954 8.45876 22.0926 8.41705 22.3912 8.41663C22.7927 8.41961 23.1911 8.48941 23.571 8.62334C23.9345 8.75119 24.2863 8.91191 24.6223 9.10361C25.1589 9.40025 25.6737 9.7369 26.1625 10.1109C26.6227 10.4637 27.0574 10.8503 27.4634 11.2677C27.8872 11.7089 28.275 12.1853 28.6231 12.6918C28.9485 13.1441 29.2169 13.6369 29.4222 14.1584C29.5561 14.5232 29.6698 14.8954 29.7628 15.2733C29.844 15.6018 29.8896 15.9385 29.899 16.2774C29.9054 16.6094 29.8663 16.9407 29.7829 17.2615C29.6847 17.6286 29.545 17.9826 29.3669 18.3163C29.1133 18.806 28.8165 19.2707 28.4802 19.7045C28.1454 20.1303 27.787 20.5359 27.4068 20.9193C26.9961 21.342 26.5634 21.7415 26.1106 22.1161C25.6368 22.5088 25.1398 22.871 24.6225 23.2006C24.02 23.6096 23.317 23.8338 22.5954 23.8471ZM23.705 22.137C23.4041 22.3193 23.0791 22.4557 22.7401 22.5418C23.0791 22.4557 23.4041 22.3193 23.705 22.137ZM19.2778 21.5212C19.3093 21.5432 19.3419 21.5655 19.3745 21.5872C19.3385 21.563 19.307 21.5413 19.2778 21.5212ZM18.1767 20.5754L18.2322 20.6309L18.1767 20.5754ZM18.7079 15.17L18.6907 15.2084V15.2113L18.6753 15.2467L18.6738 15.2508L18.6592 15.2854V15.2873V15.2892L18.6448 15.3246V15.327L18.6305 15.3638V15.3654L18.6174 15.4V15.4025V15.4046L18.6057 15.4371L18.6041 15.4411L18.5929 15.4733V15.476V15.4782C18.5893 15.4884 18.5859 15.4994 18.582 15.5114V15.5141C18.5775 15.5278 18.5741 15.538 18.5713 15.548L18.5697 15.5531L18.5606 15.5839L18.5587 15.5904C18.5558 15.6002 18.5529 15.6101 18.5501 15.6199V15.6234V15.6269L18.5421 15.6564L18.5288 15.665L18.5272 15.6714L18.5209 15.6956L18.5191 15.7029C18.5168 15.7125 18.5144 15.7222 18.5121 15.7319L18.5102 15.7396L18.5042 15.7665L18.5027 15.774L18.5006 15.7842L18.4972 15.8006V15.8049V15.8094L18.4928 15.8317V15.836L18.4876 15.85L18.4844 15.8672L18.4829 15.8763V15.8803V15.8859C18.4816 15.8943 18.4802 15.9023 18.4789 15.9106L18.4774 15.9208L18.474 15.945L18.4724 15.9552C18.4724 15.9633 18.4703 15.971 18.4693 15.9791V15.9853V15.9915C18.4693 15.999 18.4675 16.0065 18.4667 16.014V16.0215V16.0282V16.0355C18.4667 16.0406 18.4667 16.0457 18.4654 16.0505V16.0631V16.0698C18.4654 16.0749 18.4654 16.0803 18.4654 16.0854C18.4654 16.0905 18.4654 16.0932 18.4654 16.0972C18.4654 16.1013 18.4654 16.1112 18.4641 16.1182C18.4641 16.1208 18.4641 16.1235 18.4641 16.1265V16.1313C18.4641 16.1383 18.4641 16.1453 18.4641 16.1525C18.4641 16.1598 18.4641 16.1627 18.4641 16.1678C18.4641 16.1737 18.4641 16.1799 18.4641 16.1858V16.2027C18.4641 16.2094 18.4641 16.2162 18.4641 16.2229V16.2715C18.4641 16.2771 18.4641 16.283 18.4641 16.2886C18.4641 16.2943 18.4641 16.3007 18.4641 16.3069V16.3225C18.4641 16.3289 18.4641 16.3353 18.4641 16.3418V16.3496V16.3574C18.4641 16.3617 18.4641 16.3657 18.4641 16.37V16.3764V16.3847V16.3928C18.4641 16.3982 18.4641 16.4038 18.4641 16.4092V16.4183V16.4282V16.4406C18.4641 16.4478 18.4654 16.4551 18.4662 16.4623C18.4662 16.4653 18.4662 16.468 18.4662 16.4709V16.4757C18.4662 16.4833 18.4677 16.4905 18.4688 16.4978V16.5034V16.5109L18.4703 16.5222L18.4716 16.5324L18.4735 16.5453V16.5517L18.4753 16.5641V16.5705V16.5783L18.4769 16.5874V16.5952V16.603L18.4784 16.6119L18.4818 16.6301V16.6352L18.4836 16.6454V16.6505L18.4862 16.6645L18.4883 16.6747C18.4899 16.6827 18.4916 16.6907 18.4933 16.6986L18.4956 16.7101L18.4993 16.7265L18.5009 16.734V16.7396V16.7447L18.5063 16.7684L18.5089 16.7794C18.5113 16.789 18.5134 16.7971 18.5152 16.8043L18.5178 16.8145L18.5243 16.839L18.5256 16.8438L18.5269 16.8486C18.529 16.8567 18.5314 16.8645 18.5335 16.8725L18.5363 16.883L18.5434 16.9074L18.5447 16.912V16.916L18.5528 16.9429V16.9469V16.9512L18.5569 16.9641L18.5614 16.9778L18.5632 16.9831V16.9864L18.57 17.007L18.572 17.0132L18.5749 17.0215V17.0253L18.583 17.0489L18.5856 17.0567L18.596 17.0857L18.5976 17.0897V17.0924L18.6088 17.1227L18.6109 17.1281L18.6226 17.159L18.6242 17.1627L18.6346 17.1896L18.6365 17.1941V17.196V17.1984C18.6406 17.2089 18.6451 17.2196 18.6495 17.2304L18.6511 17.2344L18.6641 17.2661L18.6659 17.2707L18.6761 17.2945L18.679 17.3013L18.6816 17.3072L18.6954 17.3391V17.341L18.697 17.3445L18.7116 17.3772V17.3799V17.3818L18.7157 17.3909L18.727 17.4159V17.4175L18.7324 17.429L18.7434 17.4529C19.0839 18.0654 19.5092 18.6237 20.0059 19.1101C20.4 19.5422 20.8648 19.8997 21.379 20.1662C21.7468 20.3881 22.1628 20.5115 22.5888 20.5252C22.9897 20.5179 23.3802 20.3934 23.715 20.1662C24.2758 19.8061 24.7947 19.381 25.2615 18.8991C25.6953 18.4783 26.0627 17.9905 26.3506 17.4532C26.7783 16.6296 26.6964 16.0304 26.3813 15.1445C26.126 14.5538 25.7662 14.0171 25.3204 13.5616C24.8542 13.0838 24.3225 12.6788 23.7423 12.3595C23.3665 12.1289 22.9409 11.9978 22.5038 11.978C22.1447 11.9819 21.7932 12.0857 21.4867 12.2784C20.9074 12.6384 20.3768 13.0753 19.9084 13.578L19.9 13.5866C19.4126 14.0355 19.0089 14.5723 18.709 15.1705L18.7079 15.17ZM18.0085 20.4049L18.1052 20.5037L18.0085 20.4049ZM26.5016 19.817C26.4257 19.8975 26.3451 19.9818 26.2593 20.0704C26.1589 20.1738 26.0559 20.2766 25.9513 20.3778C26.0556 20.2766 26.1599 20.1738 26.2593 20.0704C26.3456 19.9813 26.4259 19.897 26.5016 19.8164V19.817ZM28.0257 17.6886C28.0074 17.7254 27.9886 17.7627 27.9693 17.8001C27.8433 18.0434 27.7049 18.2798 27.5547 18.5082C27.7049 18.2798 27.8433 18.0434 27.9693 17.8001C27.9889 17.7622 28.0066 17.7249 28.0259 17.6878L28.0257 17.6886ZM28.1983 14.7165C28.2927 15.0155 28.3619 15.3224 28.4051 15.6336C28.3625 15.322 28.2933 15.0149 28.1983 14.7157V14.7165ZM25.9096 11.2623C26.0467 11.389 26.1798 11.5188 26.3088 11.6518C26.6786 12.0368 27.017 12.4523 27.3207 12.8942C27.4527 13.0865 27.5719 13.2747 27.6749 13.454C27.2918 12.7987 26.8331 12.1936 26.3088 11.6518C26.1802 11.5185 26.0471 11.3886 25.9096 11.2623ZM23.5319 9.60536C23.6271 9.65261 23.7249 9.70415 23.8305 9.76268C24.1234 9.92375 24.4115 10.102 24.6867 10.2891C24.4121 10.1012 24.1239 9.92509 23.8308 9.76268C23.7249 9.70523 23.6273 9.65154 23.5319 9.60536ZM18.8832 17.0025C18.834 16.8846 18.7925 16.7636 18.759 16.64C18.7171 16.4868 18.6932 16.3289 18.6878 16.1697C18.7023 16.4572 18.7687 16.7394 18.8834 17.0019L18.8832 17.0025Z" fill="white"/>
<path d="M9.69116 34.9093C10.0286 34.9093 10.3392 34.9024 10.6233 34.8887C10.9074 34.8749 11.2005 34.8452 11.5025 34.7996C11.5288 34.7932 11.5563 34.7936 11.5824 34.8007C11.6086 34.8079 11.6325 34.8216 11.6522 34.8406C11.672 34.8595 11.687 34.8832 11.6958 34.9096C11.7045 34.9359 11.7068 34.964 11.7024 34.9915V36.0197C11.7024 36.1383 11.6316 36.2208 11.4892 36.2664C11.1416 36.3771 10.785 36.4551 10.4236 36.4994C10.0396 36.5525 9.65254 36.5799 9.26507 36.5816C8.64244 36.5991 8.02243 36.492 7.43949 36.2662C6.96619 36.0739 6.549 35.7595 6.22771 35.3534C5.90145 34.9229 5.66955 34.4247 5.54821 33.8932C5.39901 33.2515 5.32767 32.5933 5.33555 31.9335V31.3029C5.32782 30.6435 5.39716 29.9855 5.5421 29.3431C5.65874 28.8125 5.88593 28.3143 6.2081 27.883C6.52595 27.476 6.94144 27.1614 7.41352 26.9702C7.99644 26.7443 8.61646 26.6372 9.23909 26.6548C9.96299 26.6602 10.6817 26.7804 11.37 27.0113C11.4311 27.027 11.4867 27.0603 11.53 27.1074C11.5588 27.1519 11.5729 27.2049 11.57 27.2583V28.2454C11.5743 28.2729 11.5718 28.301 11.5631 28.3273C11.5543 28.3536 11.5393 28.3774 11.5195 28.3963C11.4998 28.4153 11.4759 28.429 11.4497 28.4361C11.4236 28.4433 11.3961 28.4437 11.3698 28.4373C11.121 28.4015 10.8501 28.3741 10.5573 28.3549C10.2645 28.3358 9.9671 28.3268 9.66492 28.3281C9.29983 28.3175 8.93626 28.378 8.59296 28.5064C8.31162 28.6195 8.06841 28.8149 7.8936 29.0685C7.70206 29.3594 7.5727 29.6888 7.51412 30.0349C7.43269 30.4894 7.3948 30.9509 7.40078 31.413V31.8379C7.3947 32.3002 7.43481 32.7618 7.52048 33.2156C7.58272 33.561 7.71675 33.8884 7.91346 34.1754C8.09503 34.4262 8.34224 34.6188 8.62607 34.7305C8.96729 34.8578 9.3286 34.9182 9.69141 34.9088L9.69116 34.9093ZM13.2476 27.0398C13.2476 26.8934 13.3137 26.8204 13.4472 26.8204H15.0986C15.1276 26.8162 15.1572 26.8189 15.1849 26.8284C15.2127 26.8379 15.2379 26.854 15.2586 26.8753C15.2792 26.8965 15.2946 26.9225 15.3039 26.951C15.3131 26.9796 15.3159 27.01 15.3118 27.0398V34.1271C15.297 34.3333 15.3434 34.5392 15.445 34.7177C15.515 34.7915 15.601 34.8473 15.6958 34.8806C15.7907 34.914 15.8918 34.9239 15.991 34.9096H19.1468C19.1758 34.9053 19.2052 34.9081 19.2329 34.9176C19.2606 34.9271 19.2858 34.9431 19.3065 34.9644C19.3272 34.9857 19.3428 35.0117 19.3521 35.0402C19.3613 35.0688 19.3639 35.0991 19.3597 35.1289V36.1435C19.3597 36.3171 19.2845 36.4084 19.1336 36.4176C18.6454 36.4632 18.0858 36.502 17.4552 36.5341C16.8246 36.5661 16.172 36.5821 15.4972 36.5821C15.1412 36.5888 14.7855 36.5519 14.438 36.4723C14.1811 36.4154 13.9414 36.2957 13.7389 36.1233C13.5573 35.9568 13.4255 35.7405 13.3591 35.4997C13.2772 35.1916 13.2393 34.873 13.2463 34.5536L13.2476 27.0398ZM22.6635 36.1843C22.6679 36.2159 22.6652 36.2482 22.6553 36.2785C22.6455 36.3089 22.6289 36.3364 22.607 36.3591C22.585 36.3817 22.5582 36.3987 22.5288 36.4088C22.4993 36.4189 22.4681 36.4218 22.4373 36.4173H20.8254C20.7947 36.4218 20.7635 36.4189 20.734 36.4088C20.7045 36.3987 20.6778 36.3817 20.6558 36.3591C20.6339 36.3364 20.6172 36.3089 20.6074 36.2785C20.5976 36.2482 20.5946 36.2159 20.599 36.1843V27.0671C20.599 26.9026 20.6745 26.8204 20.8254 26.8204H22.4373C22.5884 26.8204 22.6637 26.9026 22.6635 27.0671V36.1843ZM28.8966 34.9091C29.2343 34.9091 29.5452 34.9022 29.8293 34.8884C30.1134 34.8746 30.4064 34.8449 30.7082 34.7993C30.7345 34.7929 30.7618 34.7934 30.7879 34.8005C30.814 34.8077 30.8382 34.8213 30.858 34.8403C30.8777 34.8593 30.8927 34.883 30.9015 34.9093C30.9103 34.9356 30.9124 34.9638 30.9081 34.9912V36.0194C30.9081 36.1383 30.8372 36.2205 30.695 36.2662C30.3474 36.3768 29.9906 36.4548 29.6294 36.4992C29.2452 36.5522 28.8584 36.5797 28.4708 36.5813C27.8482 36.5988 27.2282 36.4917 26.6452 36.2659C26.1719 36.0736 25.7545 35.7593 25.4332 35.3531C25.1074 34.9225 24.8762 34.4244 24.7552 33.893C24.6059 33.2513 24.5342 32.593 24.542 31.9332V31.3026C24.5343 30.6432 24.6037 29.9852 24.7486 29.3429C24.8653 28.8123 25.0928 28.3141 25.4148 27.8827C25.7327 27.4757 26.1482 27.1611 26.6203 26.97C27.2032 26.7441 27.8232 26.6369 28.4458 26.6545C29.1698 26.6599 29.8886 26.7802 30.577 27.011C30.638 27.0268 30.6932 27.0601 30.7365 27.1071C30.7653 27.1517 30.7794 27.2046 30.7765 27.258V28.2451C30.7808 28.2726 30.7786 28.3007 30.7698 28.3271C30.7611 28.3534 30.7463 28.3771 30.7265 28.3961C30.7068 28.4151 30.6826 28.4287 30.6565 28.4359C30.6304 28.443 30.6031 28.4434 30.5768 28.4371C30.328 28.4013 30.057 28.3738 29.7641 28.3547C29.4711 28.3355 29.1738 28.3266 28.8719 28.3278C28.5068 28.3173 28.1428 28.3777 27.7995 28.5061C27.5181 28.6193 27.2752 28.8147 27.1003 29.0682C26.909 29.3592 26.7797 29.6886 26.7209 30.0347C26.6397 30.4891 26.6016 30.9506 26.6075 31.4127V31.8376C26.6014 32.2999 26.6414 32.7616 26.727 33.2154C26.7892 33.5608 26.9236 33.8882 27.1205 34.1751C27.3019 34.4261 27.5489 34.6186 27.8328 34.7303C28.174 34.8575 28.5352 34.918 28.8979 34.9086L28.8966 34.9091ZM39.139 26.8202C39.1686 26.8172 39.1982 26.8235 39.2243 26.8381C39.2505 26.8528 39.2718 26.8751 39.2855 26.9023C39.2983 26.9315 39.3026 26.9638 39.2979 26.9954C39.2933 27.027 39.2801 27.0566 39.2595 27.0806L36.409 31.4403L39.6323 36.1703C39.6496 36.1921 39.6604 36.2184 39.6639 36.2462C39.6674 36.274 39.6635 36.3023 39.6522 36.3279C39.6397 36.358 39.618 36.383 39.5903 36.3991C39.5627 36.4152 39.5306 36.4215 39.4991 36.417H37.6213C37.5438 36.421 37.4664 36.4069 37.3949 36.3759C37.3335 36.3406 37.283 36.2883 37.2487 36.2251L34.518 31.9474V36.1837C34.5224 36.2154 34.5197 36.2476 34.5099 36.2779C34.5 36.3082 34.4834 36.3358 34.4615 36.3584C34.4395 36.381 34.4127 36.398 34.3833 36.4081C34.3538 36.4183 34.3226 36.4212 34.2919 36.4167H32.6797C32.649 36.4212 32.6177 36.4183 32.5883 36.4082C32.5588 36.3981 32.532 36.381 32.5101 36.3584C32.4882 36.3358 32.4718 36.3082 32.462 36.2779C32.4522 36.2476 32.4492 36.2154 32.4536 36.1837V27.0666C32.4536 26.9021 32.529 26.8199 32.6797 26.8199H34.2919C34.4426 26.8199 34.5178 26.9021 34.518 27.0666V30.9324L37.0618 26.9839C37.0959 26.9327 37.1418 26.891 37.1953 26.8623C37.2487 26.8336 37.3082 26.8188 37.3684 26.8193L39.139 26.8202Z" fill="white"/>
<defs>
<linearGradient id="paint0_linear_144_21" x1="41" y1="4.5" x2="1.2219e-06" y2="45" gradientUnits="userSpaceOnUse">
<stop stop-color="#08DBFE"/>
<stop offset="1" stop-color="#087EFF"/>
</linearGradient>
</defs>
</svg>
