<svg width="21" height="21" viewBox="0 0 21 21" fill="none" xmlns="http://www.w3.org/2000/svg">
<path d="M14.1629 1.00002L18.6451 1.00002C19.3974 1.00002 20.0057 1.61303 20 2.36531L19.938 10.4955C19.9323 11.2398 19.3273 11.8403 18.583 11.8403L14.1629 11.8403M14.1629 1.00002L4.83745 1.00002C4.20238 1.00002 3.65249 1.441 3.51471 2.06095L1.03282 11.7546C0.844758 12.6009 1.48868 13.4038 2.35556 13.4038L6.13699 13.4038C6.9908 13.4038 7.66139 13.9754 7.4959 14.813L6.79657 18.3528C6.63109 19.1904 7.27211 19.9705 8.12584 19.9705L8.39223 19.9705C8.87413 19.9705 9.31973 19.7144 9.56263 19.2982L14.1629 11.8403M14.1629 1.00002L14.1629 11.8403" stroke="white" stroke-width="2"/>
</svg>
