<svg width="198" height="147" viewBox="0 0 198 147" fill="none" xmlns="http://www.w3.org/2000/svg">
<path d="M198 129.184H0V129.282H198V129.184Z" fill="#EBEBEB"/>
<path d="M178.16 135.531H165.045V135.63H178.16V135.531Z" fill="#EBEBEB"/>
<path d="M131.164 136.604H127.723V136.703H131.164V136.604Z" fill="#EBEBEB"/>
<path d="M164.65 131.87H157.051V131.969H164.65V131.87Z" fill="#EBEBEB"/>
<path d="M37.8767 132.533H20.7734V132.632H37.8767V132.533Z" fill="#EBEBEB"/>
<path d="M43.9129 132.533H41.4062V132.632H43.9129V132.533Z" fill="#EBEBEB"/>
<path d="M89.1598 134.198H52.0625V134.297H89.1598V134.198Z" fill="#EBEBEB"/>
<path d="M93.8557 111.588H17.392C16.1446 111.588 15.1309 110.578 15.1309 109.336V2.25268C15.1309 1.00996 16.1446 0 17.392 0H93.8596C95.107 0 96.1208 1.00996 96.1208 2.25268V109.336C96.1168 110.578 95.1031 111.588 93.8557 111.588ZM17.392 0.0986286C16.2001 0.0986286 15.2299 1.06519 15.2299 2.25268V109.336C15.2299 110.523 16.2001 111.49 17.392 111.49H93.8596C95.0516 111.49 96.0218 110.523 96.0218 109.336V2.25268C96.0218 1.06519 95.0516 0.0986286 93.8596 0.0986286H17.392Z" fill="#EBEBEB"/>
<path d="M179.51 111.588H103.042C101.795 111.588 100.781 110.578 100.781 109.336V2.25268C100.781 1.00996 101.795 0 103.042 0H179.51C180.757 0 181.771 1.00996 181.771 2.25268V109.336C181.771 110.578 180.757 111.588 179.51 111.588ZM103.042 0.0986286C101.85 0.0986286 100.88 1.06519 100.88 2.25268V109.336C100.88 110.523 101.85 111.49 103.042 111.49H179.51C180.702 111.49 181.672 110.523 181.672 109.336V2.25268C181.672 1.06519 180.702 0.0986286 179.51 0.0986286H103.042Z" fill="#EBEBEB"/>
<path d="M65.1388 4.25684H36.9238V99.6149H65.1388V4.25684Z" fill="#FAFAFA"/>
<path d="M60.9372 4.25684H59.2898L49.4492 99.6149H51.0966L60.9372 4.25684Z" fill="#F5F5F5"/>
<path d="M64.6404 4.62769H36.7422V5.468H64.6404V4.62769Z" fill="#E0E0E0"/>
<path d="M64.6404 98.7826H36.7422V100.582H64.6404V98.7826Z" fill="#EBEBEB"/>
<path d="M64.1762 100.503H37.8145V100.581H64.1762V100.503Z" fill="#EBEBEB"/>
<path d="M37.8144 4.62772H64.1761V100.503H65.7562V3.44812H36.2344V100.503H37.8144V4.62772Z" fill="#EBEBEB"/>
<path d="M96.5373 4.25684H68.3223V99.6149H96.5373V4.25684Z" fill="#FAFAFA"/>
<path d="M88.7127 4.25684H79.7156L69.875 99.6149H78.8682L88.7127 4.25684Z" fill="#F5F5F5"/>
<path d="M96.8308 4.62769H68.1406V5.468H96.8308V4.62769Z" fill="#E0E0E0"/>
<path d="M96.8308 98.7826H68.1406V100.582H96.8308V98.7826Z" fill="#EBEBEB"/>
<path d="M95.5746 100.503H69.2129V100.581H95.5746V100.503Z" fill="#EBEBEB"/>
<path d="M69.2129 4.62772H95.5746V100.503H97.1507V3.44812H67.6328V100.503H69.2129V4.62772Z" fill="#EBEBEB"/>
<path d="M127.14 4.25684H99.7168V99.6149H127.14V4.25684Z" fill="#FAFAFA"/>
<path d="M115.256 4.25684H113.608L103.768 99.6149H105.415L115.256 4.25684Z" fill="#F5F5F5"/>
<path d="M127.437 4.62769H99.5391V5.468H127.437V4.62769Z" fill="#E0E0E0"/>
<path d="M127.437 98.7826H99.5391V100.582H127.437V98.7826Z" fill="#EBEBEB"/>
<path d="M126.973 100.503H100.611V100.581H126.973V100.503Z" fill="#EBEBEB"/>
<path d="M100.611 4.62772H126.969V100.503H128.549V3.44812H99.0312V100.503H100.611V4.62772Z" fill="#EBEBEB"/>
<path d="M159.332 4.25684H131.117V99.6149H159.332V4.25684Z" fill="#FAFAFA"/>
<path d="M156.572 4.25684H147.579L137.734 99.6149H146.731L156.572 4.25684Z" fill="#F5F5F5"/>
<path d="M158.832 4.62769H130.934V5.468H158.832V4.62769Z" fill="#E0E0E0"/>
<path d="M158.832 98.7826H130.934V100.582H158.832V98.7826Z" fill="#EBEBEB"/>
<path d="M132.008 4.62772H158.369V100.503H159.949V3.44812H130.432V100.503H132.008V4.62772Z" fill="#EBEBEB"/>
<path d="M158.37 100.503H132.008V100.581H158.37V100.503Z" fill="#EBEBEB"/>
<path d="M58.387 77.684H46.1387V98.7865H58.387V77.684Z" fill="#EBEBEB"/>
<path d="M56.0399 74.7329V80.0273H55.0737H49.4584H48.4922V74.7329H56.0399Z" fill="#EBEBEB"/>
<path d="M56.0354 80.0255H57.6035V78.4632H56.0354V80.0255Z" fill="#FAFAFA"/>
<path d="M53.0002 80.0255H54.5684V78.4632H53.0002V80.0255Z" fill="#FAFAFA"/>
<path d="M49.9631 80.0255H51.5312V78.4632H49.9631V80.0255Z" fill="#FAFAFA"/>
<path d="M46.924 80.0255H48.4922V78.4632H46.924V80.0255Z" fill="#F0F0F0"/>
<path d="M56.0354 82.8666H57.6035V81.3043H56.0354V82.8666Z" fill="#F0F0F0"/>
<path d="M53.0002 82.8666H54.5684V81.3043H53.0002V82.8666Z" fill="#F0F0F0"/>
<path d="M49.9631 82.8666H51.5312V81.3043H49.9631V82.8666Z" fill="#FAFAFA"/>
<path d="M46.924 82.8666H48.4922V81.3043H46.924V82.8666Z" fill="#FAFAFA"/>
<path d="M56.0354 85.7037H57.6035V84.1415H56.0354V85.7037Z" fill="#F0F0F0"/>
<path d="M53.0002 85.7037H54.5684V84.1415H53.0002V85.7037Z" fill="#FAFAFA"/>
<path d="M49.9631 85.7037H51.5312V84.1415H49.9631V85.7037Z" fill="#FAFAFA"/>
<path d="M53.0002 77.572H54.5684V76.0097H53.0002V77.572Z" fill="#FAFAFA"/>
<path d="M49.9631 77.572H51.5312V76.0097H49.9631V77.572Z" fill="#F0F0F0"/>
<path d="M46.924 85.7037H48.4922V84.1415H46.924V85.7037Z" fill="#F0F0F0"/>
<path d="M56.0354 88.5448H57.6035V86.9825H56.0354V88.5448Z" fill="#FAFAFA"/>
<path d="M53.0002 88.5448H54.5684V86.9825H53.0002V88.5448Z" fill="#F0F0F0"/>
<path d="M49.9631 88.5448H51.5312V86.9825H49.9631V88.5448Z" fill="#F0F0F0"/>
<path d="M46.924 88.5448H48.4922V86.9825H46.924V88.5448Z" fill="#FAFAFA"/>
<path d="M56.0354 91.3821H57.6035V89.8198H56.0354V91.3821Z" fill="#F0F0F0"/>
<path d="M53.0002 91.3821H54.5684V89.8198H53.0002V91.3821Z" fill="#FAFAFA"/>
<path d="M49.9631 91.3821H51.5312V89.8198H49.9631V91.3821Z" fill="#FAFAFA"/>
<path d="M46.924 91.3821H48.4922V89.8198H46.924V91.3821Z" fill="#F0F0F0"/>
<path d="M56.0354 94.2191H57.6035V92.6568H56.0354V94.2191Z" fill="#F0F0F0"/>
<path d="M53.0002 94.2191H54.5684V92.6568H53.0002V94.2191Z" fill="#FAFAFA"/>
<path d="M49.9631 94.2191H51.5312V92.6568H49.9631V94.2191Z" fill="#F0F0F0"/>
<path d="M46.924 94.2191H48.4922V92.6568H46.924V94.2191Z" fill="#FAFAFA"/>
<path d="M56.0354 97.0602H57.6035V95.4979H56.0354V97.0602Z" fill="#FAFAFA"/>
<path d="M53.0002 97.0602H54.5684V95.4979H53.0002V97.0602Z" fill="#FAFAFA"/>
<path d="M49.9631 97.0602H51.5312V95.4979H49.9631V97.0602Z" fill="#F0F0F0"/>
<path d="M46.924 97.0602H48.4922V95.4979H46.924V97.0602Z" fill="#F0F0F0"/>
<path d="M144.67 85.369H133.697V98.7825H144.67V85.369Z" fill="#F0F0F0"/>
<path d="M134.656 86.8563H137.207H137.911H138.612V88.2569H137.911H137.207H134.656V86.8563Z" fill="#E6E6E6"/>
<path d="M134.656 89.5706H137.207H137.911H138.612V90.9671H137.911H137.207H134.656V89.5706Z" fill="#FAFAFA"/>
<path d="M134.656 92.2809H137.207H137.911H138.612V93.6775H137.911H137.207H134.656V92.2809Z" fill="#E6E6E6"/>
<path d="M134.656 94.9912H137.207H138.292H138.612V96.3918H138.292H137.207H134.656V94.9912Z" fill="#FAFAFA"/>
<path d="M139.76 86.8563H142.31H143.015H143.716V88.2569H143.015H142.31H139.76V86.8563Z" fill="#FAFAFA"/>
<path d="M139.76 89.5706H142.31H143.304H143.716V90.9671H143.304H142.31H139.76V89.5706Z" fill="#FAFAFA"/>
<path d="M139.76 92.2809H142.31H143.015H143.716V93.6775H143.015H142.31H139.76V92.2809Z" fill="#E6E6E6"/>
<path d="M139.76 94.9912H142.31H143.015H143.716V96.3918H143.015H142.31H139.76V94.9912Z" fill="#FAFAFA"/>
<path d="M91.7974 90.4504H81.8262V98.7865H91.7974V90.4504Z" fill="#F0F0F0"/>
<path d="M89.885 92.7607H91.1602V91.4904H89.885V92.7607Z" fill="#FAFAFA"/>
<path d="M87.4124 92.7607H88.6875V91.4904H87.4124V92.7607Z" fill="#FAFAFA"/>
<path d="M84.9378 92.7607H86.2129V91.4904H84.9378V92.7607Z" fill="#FAFAFA"/>
<path d="M82.469 92.7607H83.7441V91.4904H82.469V92.7607Z" fill="#FAFAFA"/>
<path d="M89.885 95.0699H91.1602V93.7996H89.885V95.0699Z" fill="#FAFAFA"/>
<path d="M87.4124 95.0699H88.6875V93.7996H87.4124V95.0699Z" fill="#FAFAFA"/>
<path d="M84.9378 95.0699H86.2129V93.7996H84.9378V95.0699Z" fill="#FAFAFA"/>
<path d="M82.469 95.0699H83.7441V93.7996H82.469V95.0699Z" fill="#E6E6E6"/>
<path d="M89.885 97.3832H91.1602V96.1129H89.885V97.3832Z" fill="#E6E6E6"/>
<path d="M87.4124 97.3832H88.6875V96.1129H87.4124V97.3832Z" fill="#E6E6E6"/>
<path d="M84.9378 97.3832H86.2129V96.1129H84.9378V97.3832Z" fill="#FAFAFA"/>
<path d="M82.469 97.3832H83.7441V96.1129H82.469V97.3832Z" fill="#E6E6E6"/>
<path d="M80.4752 84.2842H70.5039V98.7826H80.4752V84.2842Z" fill="#F0F0F0"/>
<path d="M79.838 84.9233H76.0879V88.5055H79.838V84.9233Z" fill="#FAFAFA"/>
<path d="M74.8927 84.9233H71.1426V88.5055H74.8927V84.9233Z" fill="#FAFAFA"/>
<path d="M79.838 89.543H76.0879V93.1252H79.838V89.543Z" fill="#FAFAFA"/>
<path d="M74.8927 89.543H71.1426V93.1252H74.8927V89.543Z" fill="#FAFAFA"/>
<path d="M79.838 94.1628H76.0879V97.745H79.838V94.1628Z" fill="#FAFAFA"/>
<path d="M74.8927 94.1628H71.1426V97.745H74.8927V94.1628Z" fill="#FAFAFA"/>
<path d="M99.0012 147C141.406 147 175.782 145.001 175.782 142.534C175.782 140.068 141.406 138.068 99.0012 138.068C56.5965 138.068 22.2207 140.068 22.2207 142.534C22.2207 145.001 56.5965 147 99.0012 147Z" fill="#F5F5F5"/>
<path d="M176.049 9.72876V96.6166L165.555 107.071H104.805V9.72876H176.049Z" fill="#407BFF"/>
<path opacity="0.8" d="M176.049 9.72876V96.6166L165.555 107.071H104.805V9.72876H176.049Z" fill="white"/>
<path opacity="0.2" d="M165.555 107.071V96.9204H176.049L165.761 107.174" fill="black"/>
<path opacity="0.1" d="M131.765 18.1595H112.116C111.542 18.1595 111.074 17.694 111.074 17.1219C111.074 16.5499 111.542 16.0844 112.116 16.0844H131.765C132.339 16.0844 132.807 16.5499 132.807 17.1219C132.807 17.694 132.343 18.1595 131.765 18.1595Z" fill="black"/>
<path opacity="0.1" d="M167.405 26.5823H120.036C119.461 26.5823 118.994 26.1168 118.994 25.5448C118.994 24.9727 119.461 24.5072 120.036 24.5072H167.405C167.979 24.5072 168.447 24.9727 168.447 25.5448C168.447 26.1168 167.983 26.5823 167.405 26.5823Z" fill="black"/>
<path opacity="0.1" d="M167.405 30.6774H112.116C111.542 30.6774 111.074 30.2119 111.074 29.6399C111.074 29.0678 111.542 28.6023 112.116 28.6023H167.405C167.979 28.6023 168.447 29.0678 168.447 29.6399C168.447 30.2119 167.983 30.6774 167.405 30.6774Z" fill="black"/>
<path opacity="0.1" d="M167.405 35.2972H112.116C111.542 35.2972 111.074 34.8317 111.074 34.2596C111.074 33.6876 111.542 33.222 112.116 33.222H167.405C167.979 33.222 168.447 33.6876 168.447 34.2596C168.447 34.8317 167.983 35.2972 167.405 35.2972Z" fill="black"/>
<path opacity="0.1" d="M167.405 39.921H112.116C111.542 39.921 111.074 39.4554 111.074 38.8834C111.074 38.3113 111.542 37.8458 112.116 37.8458H167.405C167.979 37.8458 168.447 38.3113 168.447 38.8834C168.447 39.4554 167.983 39.921 167.405 39.921Z" fill="black"/>
<path opacity="0.1" d="M167.405 44.5446H112.116C111.542 44.5446 111.074 44.0791 111.074 43.5071C111.074 42.935 111.542 42.4695 112.116 42.4695H167.405C167.979 42.4695 168.447 42.935 168.447 43.5071C168.447 44.0791 167.983 44.5446 167.405 44.5446Z" fill="black"/>
<path opacity="0.1" d="M167.405 49.1683H112.116C111.542 49.1683 111.074 48.7028 111.074 48.1307C111.074 47.5587 111.542 47.0931 112.116 47.0931H167.405C167.979 47.0931 168.447 47.5587 168.447 48.1307C168.447 48.7028 167.983 49.1683 167.405 49.1683Z" fill="black"/>
<path opacity="0.1" d="M167.405 53.788H112.116C111.542 53.788 111.074 53.3225 111.074 52.7505C111.074 52.1784 111.542 51.7129 112.116 51.7129H167.405C167.979 51.7129 168.447 52.1784 168.447 52.7505C168.447 53.3225 167.983 53.788 167.405 53.788Z" fill="black"/>
<path opacity="0.1" d="M167.405 58.4118H112.116C111.542 58.4118 111.074 57.9463 111.074 57.3742C111.074 56.8022 111.542 56.3367 112.116 56.3367H167.405C167.979 56.3367 168.447 56.8022 168.447 57.3742C168.447 57.9463 167.983 58.4118 167.405 58.4118Z" fill="black"/>
<path opacity="0.1" d="M167.405 63.0355H112.116C111.542 63.0355 111.074 62.5699 111.074 61.9979C111.074 61.4258 111.542 60.9603 112.116 60.9603H167.405C167.979 60.9603 168.447 61.4258 168.447 61.9979C168.447 62.5699 167.983 63.0355 167.405 63.0355Z" fill="black"/>
<path opacity="0.1" d="M167.405 67.6592H112.116C111.542 67.6592 111.074 67.1937 111.074 66.6217C111.074 66.0496 111.542 65.5841 112.116 65.5841H167.405C167.979 65.5841 168.447 66.0496 168.447 66.6217C168.447 67.1937 167.983 67.6592 167.405 67.6592Z" fill="black"/>
<path opacity="0.1" d="M167.405 72.279H112.116C111.542 72.279 111.074 71.8135 111.074 71.2414C111.074 70.6694 111.542 70.2039 112.116 70.2039H167.405C167.979 70.2039 168.447 70.6694 168.447 71.2414C168.447 71.8135 167.983 72.279 167.405 72.279Z" fill="black"/>
<path opacity="0.1" d="M135.725 76.9027H112.116C111.542 76.9027 111.074 76.4371 111.074 75.8651C111.074 75.293 111.542 74.8275 112.116 74.8275H135.725C136.299 74.8275 136.767 75.293 136.767 75.8651C136.767 76.4371 136.303 76.9027 135.725 76.9027Z" fill="black"/>
<path d="M163.132 31.0207C163.108 31.001 163.085 30.9812 163.057 30.9576C162.847 30.7919 162.72 30.8471 162.621 30.5394C162.55 30.3106 162.629 30.062 162.542 29.8253C162.388 29.4269 162.106 29.0402 161.897 28.6654C161.572 28.0816 161.247 27.5016 160.918 26.9177C160.467 26.1129 159.441 25.821 158.634 26.2707L149.664 31.2495C149.629 31.5493 149.379 31.7545 149.332 32.0543C149.304 32.224 149.347 32.4133 149.478 32.5198C149.367 32.5277 149.292 32.4725 149.201 32.4212C148.666 32.1253 148.524 31.8886 147.973 32.1885C147.736 32.3147 147.502 32.4488 147.268 32.579C146.476 33.0209 145.68 33.4588 144.888 33.9006C142.405 35.2775 139.927 36.6544 137.444 38.0312C134.533 39.6448 131.626 41.2583 128.716 42.8758C126.296 44.2172 123.877 45.5625 121.461 46.9038C120.471 47.4522 119.267 47.9335 118.388 48.6318C118.634 48.762 118.673 48.9514 118.459 49.1407C118.321 49.263 118.186 49.3814 118.048 49.5037C118.044 49.5984 118.194 49.5984 118.281 49.5629C118.444 49.4919 118.61 49.4208 118.772 49.3538C118.432 49.7838 118.02 50.1586 117.56 50.4545C116.804 50.9397 115.929 51.208 115.07 51.4723C115.208 51.2987 115.351 51.1212 115.489 50.9476C115.525 50.9042 115.561 50.849 115.537 50.7977C115.517 50.7543 115.458 50.7425 115.406 50.7385C115.2 50.7188 114.99 50.7385 114.832 50.5847C113.478 51.3934 112.064 52.1233 110.686 52.8886C109.878 53.3384 109.585 54.3602 110.036 55.165L119.077 71.3361C119.529 72.1409 120.554 72.4329 121.362 71.9831L123.797 70.6339C123.801 70.3538 124.019 70.0421 123.853 69.7817C123.833 69.7502 123.805 69.7147 123.805 69.6752C123.805 69.6239 123.853 69.5845 123.896 69.5569C124.138 69.403 124.423 69.3123 124.708 69.2965C124.807 69.2925 124.938 69.3359 124.922 69.4306C124.938 69.3478 125.433 69.1623 125.52 69.1347C125.56 69.3478 125.413 69.5766 125.663 69.62C125.865 69.6555 126.292 69.2412 126.47 69.1426C127.262 68.7008 128.058 68.2629 128.85 67.821C131.353 66.4323 133.86 65.0397 136.363 63.651C139.115 62.1242 141.863 60.5974 144.615 59.0707C146.441 58.0568 148.266 57.0468 150.088 56.0329C150.29 55.9224 150.52 55.7883 150.714 55.6897C150.797 55.3898 150.951 54.9204 151.22 54.735C151.612 54.4627 152.242 54.7626 152.575 54.3759C152.638 54.301 152.678 54.2103 152.733 54.1313C152.828 53.9972 152.975 53.9065 153.113 53.8197C153.216 53.7566 153.323 53.6895 153.442 53.6895C153.561 53.6895 153.688 53.7881 153.672 53.9065C154.487 53.7171 155.224 53.1727 155.945 52.7624C156.202 52.6164 158.499 51.5433 158.487 51.3737C158.455 50.849 158.78 50.3992 158.764 49.8588C158.76 49.7562 158.562 49.0737 158.653 49.0184C156.594 50.2414 154.452 51.354 152.357 52.5178C152.286 52.5572 152.016 52.6519 151.977 52.7269C151.969 52.7466 151.957 52.7663 151.949 52.7821C151.929 52.8255 151.909 52.8689 151.89 52.9123C151.886 52.9241 151.882 52.936 151.874 52.9439C151.775 53.1924 151.7 53.4883 151.573 53.725C151.553 53.7605 151.125 54.3128 151.09 54.1826C150.916 53.5475 150.674 53.4488 150.207 53.7092C149.973 53.8394 149.743 53.9656 149.51 54.0958C148.773 54.5061 148.033 54.9164 147.296 55.3267C144.809 56.7075 142.326 58.0844 139.839 59.4652C136.909 61.0906 133.983 62.716 131.052 64.3414C128.613 65.6946 126.169 67.0517 123.73 68.4049C122.708 68.973 121.687 69.5411 120.665 70.1052C120.047 69.0006 119.43 67.8999 118.816 66.7953C118.42 66.0851 118.024 65.379 117.628 64.6688C117.485 64.4124 117.347 64.0494 117.109 63.8759C116.939 63.7496 116.65 63.7812 116.495 63.6668C116.127 63.3906 115.862 62.8738 115.513 62.5503C115.276 62.3333 114.915 61.6705 115.014 61.3036C115.133 61.351 115.252 61.3983 115.371 61.4378C115.311 61.1774 115.315 60.9604 115.41 60.7C114.214 58.7117 113.125 56.6247 111.989 54.589C111.985 54.5811 111.913 54.4588 111.913 54.4588C112.84 53.9459 113.763 53.4331 114.689 52.9202C115.363 52.5454 116.04 52.1706 116.713 51.7958C117.073 51.5946 117.568 51.4171 117.885 51.1449C118.143 50.9239 118.4 50.6478 118.693 50.4071C118.871 50.2612 119.077 50.1625 119.283 50.06C119.533 49.9377 119.782 49.8193 120.031 49.697C120.071 49.6773 120.115 49.6576 120.158 49.6576C120.206 49.6576 120.245 49.6773 120.293 49.6891C120.693 49.772 121.671 49.0421 122.027 48.8449C122.796 48.4188 123.564 47.9927 124.332 47.5666C126.649 46.2805 128.969 44.9944 131.286 43.7083C134.173 42.1065 137.063 40.5009 139.95 38.8991C142.841 37.2935 145.732 35.6917 148.623 34.0861C150.947 32.796 153.276 31.5059 155.6 30.2119C156.792 29.5492 157.988 28.8864 159.18 28.2236C159.235 28.192 159.291 28.1644 159.346 28.1328C159.346 28.1328 163.168 34.9698 163.199 35.025C163.421 35.4195 163.857 35.9561 164.288 36.0981C164.443 36.1494 164.621 36.2598 164.605 36.4216C164.585 36.5952 164.348 36.7175 164.403 36.8832C164.467 37.0725 164.764 36.9897 164.835 37.1396C164.93 37.329 164.712 37.5262 164.736 37.7393C164.76 37.9484 164.993 38.2364 165.096 38.4178C165.469 39.0885 165.845 39.7552 166.217 40.4259C166.843 41.5424 167.464 42.6589 168.094 43.7832L161.243 47.5864C161.275 47.614 161.307 47.6455 161.326 47.685C161.342 47.7126 161.35 47.7442 161.362 47.7757C161.505 47.8152 161.647 47.8901 161.778 47.9493C161.889 48.0006 161.952 48.1466 161.952 48.261C161.948 48.3833 161.881 48.5016 161.77 48.5608L161.35 48.7936C161.314 48.979 161.184 49.1289 160.99 49.1684C160.942 49.1762 160.891 49.1802 160.843 49.1802C160.76 49.2394 160.661 49.263 160.55 49.2354C160.372 49.192 160.245 48.975 160.309 48.8015C160.324 48.7581 160.348 48.7226 160.372 48.687C160.313 48.5726 160.317 48.4306 160.396 48.3201C160.352 48.3162 160.313 48.3123 160.269 48.3044C160.202 48.2886 160.134 48.2649 160.067 48.2452C159.635 48.4819 159.517 48.7541 159.267 49.1802C159.255 49.2039 159.239 49.2275 159.247 49.2512C159.259 49.3064 159.334 49.3104 159.386 49.3341C159.501 49.3893 159.477 49.5629 159.418 49.6812C159.358 49.7956 159.287 49.9416 159.366 50.0442C159.394 50.0797 159.437 50.1034 159.465 50.1389C159.631 50.3282 159.374 50.8884 159.786 50.6596C159.754 50.5452 159.782 50.4032 159.841 50.3006C159.905 50.1901 160.02 50.1112 160.142 50.0757C160.447 49.9968 160.764 49.9613 161.081 49.9377L169.33 45.3613C170.137 44.9115 170.43 43.8898 169.979 43.0849C169.963 43.0573 169.947 43.0297 169.931 43.0021C168.688 40.777 167.445 38.5559 166.201 36.3309C165.484 35.0447 164.764 33.7626 164.047 32.4764C163.841 32.1056 163.643 31.7269 163.425 31.3639C163.314 31.2219 163.247 31.1233 163.132 31.0207Z" fill="#407BFF"/>
<path d="M125.001 52.8176C124.728 52.4862 124.811 52.4783 124.756 52.1232C124.756 52.1153 124.752 52.1074 124.752 52.0995C124.74 52.0877 124.732 52.0759 124.72 52.068C124.7 52.0522 124.688 52.0285 124.668 52.0127C124.482 52.0956 124.296 52.1863 124.11 52.2889L120.463 54.3128L121.932 56.9363C121.726 56.5694 122.455 56.6799 122.482 56.6759C122.562 56.6641 122.641 56.6286 122.724 56.6365C122.803 56.6483 122.871 56.6996 122.918 56.7627C123.104 57.0034 123.076 57.3387 123.045 57.6385C123.001 58.0488 123.211 58.4433 122.981 58.8181C123.175 59.1337 124.934 62.3135 124.938 62.3096L128.585 60.2857C128.795 60.1674 129.294 59.9622 129.416 59.7492C129.504 59.5953 129.345 59.2166 129.563 59.114C129.709 59.0469 129.951 59.0785 130.062 59.1614C131.519 57.7293 131.757 55.5871 130.771 53.8275C129.745 51.993 127.417 50.9042 125.377 51.7524C125.235 51.8115 125.425 52.4467 125.084 52.5177C125.148 52.3875 125.243 52.281 125.361 52.1942L125.001 52.8176ZM127.646 58.8142L125.947 59.7571C125.809 59.5085 125.674 59.26 125.532 59.0193C125.71 59.3231 125.219 59.2284 125.116 59.1574C124.866 58.9917 124.799 58.5143 124.791 58.2461C124.775 57.7095 124.649 57.4373 124.379 56.9521C123.979 56.2341 123.575 55.516 123.175 54.798L124.874 53.8551C126.47 52.9714 128.042 53.3383 128.898 54.869C129.753 56.3998 129.242 57.9305 127.646 58.8142Z" fill="#407BFF"/>
<path d="M137.06 46.095C137.139 46.2923 137.175 46.4856 137.131 46.6947C137.108 46.8052 136.933 47.0971 136.957 47.1563C137.021 47.3141 137.08 47.4719 137.143 47.6297C137.155 47.6534 137.163 47.681 137.183 47.7007C137.211 47.7244 137.25 47.7323 137.286 47.7323C137.916 47.7835 137.888 47.8506 137.927 48.3793C137.963 48.833 138.355 49.0933 138.577 49.4878C139.428 51.0067 138.929 52.644 137.496 53.4409C136.676 53.8985 135.781 53.9459 135.005 53.6184C134.989 53.6342 134.973 53.65 134.957 53.6618C134.878 53.7052 134.775 53.717 134.688 53.6934C134.276 53.5711 133.936 53.2397 133.853 52.8136C133.845 52.782 133.849 52.7505 133.853 52.7189C133.746 52.5808 133.647 52.4388 133.556 52.2771C132.704 50.7582 133.203 49.117 134.637 48.324C135.167 48.0281 135.73 47.9137 136.272 47.9532C136.26 47.9374 136.248 47.9216 136.237 47.9058C135.896 47.4561 137.128 47.2746 136.569 46.9748C136.336 46.8485 136.375 46.2765 136.316 46.0398C135.468 46.0516 134.593 46.2804 133.75 46.746C131.215 48.1544 130.34 50.9436 131.671 53.3225C132.237 54.3364 133.156 55.1333 134.268 55.5002C134.502 55.5791 134.843 55.7133 135.092 55.6896C135.417 55.662 135.258 55.7093 135.393 55.4963C135.516 55.303 135.448 55.2201 135.658 55.015C135.864 54.8138 136.114 54.6836 136.161 54.368C136.149 54.51 136.32 54.6126 136.32 54.7507C136.32 54.7941 136.304 54.8335 136.308 54.8769C136.312 54.9282 136.343 54.9716 136.375 55.015C136.51 55.1965 136.735 55.3937 136.739 55.6186C137.298 55.5515 137.884 55.2951 138.379 55.0189C140.901 53.6184 141.796 50.8331 140.458 48.4424C139.793 47.2549 138.486 46.1779 137.06 46.095Z" fill="#407BFF"/>
<path d="M145.157 40.6074L147.874 45.4638L141.165 42.8206L139.629 43.6727C140.666 45.527 141.767 47.3654 142.745 49.2512C142.813 49.05 142.971 49.0066 143.161 48.9829C143.518 48.9316 143.506 49.1091 143.7 49.4642C143.724 49.5037 143.751 49.5471 143.795 49.5589C143.866 49.5707 143.925 49.4918 143.997 49.5037C144.068 49.5116 144.096 49.6023 144.08 49.6694C144.06 49.7364 144.013 49.7917 143.977 49.8508C143.862 50.0678 144.052 50.2098 144.028 50.4032C144.017 50.5097 143.684 50.9239 143.724 50.9949L144.104 51.6774L145.937 50.6596L145.446 49.7838C145.418 49.7877 145.387 49.7917 145.359 49.7956C144.824 49.8627 145.058 49.1683 144.943 48.8803C144.781 48.4779 144.5 48.0913 144.29 47.7126C143.933 47.0774 143.577 46.4422 143.225 45.8031L148.681 47.9414C148.693 47.7796 148.658 47.6179 148.737 47.4759C148.78 47.397 149.121 47.2391 149.117 47.1602C149.137 47.4127 149.26 47.6534 149.45 47.8191C149.664 48.0045 149.664 47.9769 149.62 48.3043L149.949 48.4345L151.473 47.5863L146.998 39.5856L145.157 40.6074Z" fill="#407BFF"/>
<path d="M154.389 44.0199L153.355 42.1697L157.082 40.1024L156.278 38.6624L152.552 40.7297L151.581 38.9938L154.1 37.5933C154.199 37.4592 154.337 37.3526 154.484 37.2658C154.563 37.2185 154.654 37.2146 154.733 37.2382L155.799 36.6465C155.799 36.6465 155.046 35.3012 154.971 35.1631C154.607 35.3288 154.971 35.7864 154.603 36.0073C154.678 36.0862 154.789 36.3703 154.591 36.3861C154.484 36.394 154.409 36.2519 154.302 36.2638C154.242 36.2717 154.191 36.323 154.132 36.3111C154.1 36.3032 154.076 36.2756 154.056 36.2441C153.985 36.1336 153.957 35.9955 153.862 35.9048C153.613 35.6641 151.336 37.1751 151.019 37.3526C150.314 37.7432 149.605 38.1377 148.9 38.5283L153.375 46.529L155.161 45.5388C155.173 45.523 155.185 45.5073 155.197 45.4915C155.324 45.3258 155.454 45.1561 155.593 45.0023C155.7 44.8839 155.886 44.88 156.02 44.951C156.052 44.9668 156.076 44.9904 156.1 45.0181L159.588 43.081L158.757 41.5937L154.389 44.0199Z" fill="#407BFF"/>
<path d="M159.152 129.109C159.152 129.109 156.546 123.447 159.524 117.869C162.498 112.287 163.361 110.973 161.464 109.833C159.567 108.689 158.696 114.299 158.696 114.299C158.696 114.299 157.096 110.44 158.419 106.404C159.738 102.369 160.565 95.792 158.763 95.0858C156.962 94.3797 158.419 103.288 156.855 106.326C156.855 106.326 155.54 102.945 155.326 99.7017C155.108 96.4587 155.449 91.2827 154.023 89.9532C152.598 88.6237 151.687 89.5429 153.085 96.6994C154.483 103.856 154.475 109.671 154.475 109.671C154.475 109.671 151.386 100.286 149.311 100.009C147.236 99.7372 147.24 102.775 149.014 105.414C150.788 108.05 154.213 112.776 154.776 115.206C154.776 115.206 151.382 108.14 148.333 110.306C145.28 112.472 150.99 116.737 153.532 118.279C156.075 119.822 157.841 129.487 157.841 129.487L159.152 129.109Z" fill="#407BFF"/>
<path opacity="0.2" d="M159.152 129.109C159.152 129.109 156.546 123.447 159.524 117.869C162.498 112.287 163.361 110.973 161.464 109.833C159.567 108.689 158.696 114.299 158.696 114.299C158.696 114.299 157.096 110.44 158.419 106.404C159.738 102.369 160.565 95.792 158.763 95.0858C156.962 94.3797 158.419 103.288 156.855 106.326C156.855 106.326 155.54 102.945 155.326 99.7017C155.108 96.4587 155.449 91.2827 154.023 89.9532C152.598 88.6237 151.687 89.5429 153.085 96.6994C154.483 103.856 154.475 109.671 154.475 109.671C154.475 109.671 151.386 100.286 149.311 100.009C147.236 99.7372 147.24 102.775 149.014 105.414C150.788 108.05 154.213 112.776 154.776 115.206C154.776 115.206 151.382 108.14 148.333 110.306C145.28 112.472 150.99 116.737 153.532 118.279C156.075 119.822 157.841 129.487 157.841 129.487L159.152 129.109Z" fill="black"/>
<path d="M157.093 131.432C157.093 131.432 159.628 125.732 156.586 120.197C153.545 114.662 152.666 113.36 154.547 112.188C156.428 111.016 157.367 116.611 157.367 116.611C157.367 116.611 158.919 112.729 157.549 108.712C156.179 104.696 155.272 98.1315 157.066 97.4017C158.859 96.6679 157.509 105.6 159.109 108.614C159.109 108.614 160.384 105.213 160.558 101.97C160.737 98.7233 160.337 93.5512 161.742 92.202C163.148 90.8527 164.075 91.7562 162.76 98.9324C161.445 106.109 161.529 111.924 161.529 111.924C161.529 111.924 164.506 102.491 166.578 102.187C168.649 101.883 168.68 104.921 166.938 107.584C165.195 110.247 161.829 115.021 161.295 117.459C161.295 117.459 164.601 110.346 167.678 112.464C170.755 114.583 165.1 118.934 162.574 120.516C160.047 122.094 158.4 131.788 158.4 131.788L157.093 131.432Z" fill="#407BFF"/>
<path d="M168.79 127.369H147.842L149.537 142.305H167.095L168.79 127.369Z" fill="#263238"/>
<path d="M61.629 33.4548H47.8007C46.6919 33.4548 45.793 34.3504 45.793 35.455V48.8448C45.793 49.9495 46.6919 50.845 47.8007 50.845H52.224L49.2461 54.8809L54.398 50.845H61.629C62.7378 50.845 63.6367 49.9495 63.6367 48.8448V35.455C63.6367 34.3504 62.7378 33.4548 61.629 33.4548Z" fill="#407BFF"/>
<path opacity="0.6" d="M61.629 33.4548H47.8007C46.6919 33.4548 45.793 34.3504 45.793 35.455V48.8448C45.793 49.9495 46.6919 50.845 47.8007 50.845H52.224L49.2461 54.8809L54.398 50.845H61.629C62.7378 50.845 63.6367 49.9495 63.6367 48.8448V35.455C63.6367 34.3504 62.7378 33.4548 61.629 33.4548Z" fill="white"/>
<path d="M54.718 48.4029C58.1845 48.4029 60.9946 45.6034 60.9946 42.1499C60.9946 38.6964 58.1845 35.8969 54.718 35.8969C51.2515 35.8969 48.4414 38.6964 48.4414 42.1499C48.4414 45.6034 51.2515 48.4029 54.718 48.4029Z" fill="#407BFF"/>
<path opacity="0.2" d="M59.9576 43.3843C60.6406 40.5026 58.8495 37.6149 55.9569 36.9345C53.0644 36.254 50.1658 38.0385 49.4828 40.9202C48.7998 43.8019 50.591 46.6896 53.4835 47.37C56.376 48.0504 59.2746 46.266 59.9576 43.3843Z" fill="black"/>
<path d="M54.0497 44.7103C53.9072 44.7103 53.7686 44.6551 53.6656 44.5525L51.3807 42.3235C51.1629 42.1105 51.1589 41.7673 51.3728 41.5503C51.5866 41.3333 51.9311 41.3293 52.1489 41.5424L54.022 43.369L57.2613 39.7671C57.4633 39.5422 57.8117 39.5225 58.0375 39.7237C58.2632 39.9249 58.283 40.272 58.081 40.4969L54.4616 44.5289C54.3626 44.6393 54.22 44.7064 54.0695 44.7103C54.0616 44.7103 54.0537 44.7103 54.0497 44.7103Z" fill="white"/>
<path d="M36.7889 133.33L48.1977 132.214V119.396H52.72V132.21L64.1763 133.33C65.3128 133.44 66.18 134.395 66.18 135.531V137.24H50.9024H50.0628H34.7852V135.531C34.7852 134.395 35.6524 133.444 36.7889 133.33Z" fill="#263238"/>
<path opacity="0.1" d="M36.7889 133.33L48.1977 132.214V119.396H52.72V132.21L64.1763 133.33C65.3128 133.44 66.18 134.395 66.18 135.531V137.24H50.9024H50.0628H34.7852V135.531C34.7852 134.395 35.6524 133.444 36.7889 133.33Z" fill="white"/>
<path d="M64.9718 142.305C66.6055 142.305 67.9299 140.986 67.9299 139.358C67.9299 137.731 66.6055 136.411 64.9718 136.411C63.3381 136.411 62.0137 137.731 62.0137 139.358C62.0137 140.986 63.3381 142.305 64.9718 142.305Z" fill="#263238"/>
<path d="M35.9913 142.305C37.6251 142.305 38.9494 140.986 38.9494 139.358C38.9494 137.731 37.6251 136.411 35.9913 136.411C34.3576 136.411 33.0332 137.731 33.0332 139.358C33.0332 140.986 34.3576 142.305 35.9913 142.305Z" fill="#263238"/>
<path d="M49.0554 122.828H51.863C52.7659 122.828 53.4985 122.098 53.4985 121.199V108.602H47.4199V121.199C47.4199 122.098 48.1525 122.828 49.0554 122.828Z" fill="#263238"/>
<path opacity="0.2" d="M49.0554 122.828H51.863C52.7659 122.828 53.4985 122.098 53.4985 121.199V108.602H47.4199V121.199C47.4199 122.098 48.1525 122.828 49.0554 122.828Z" fill="white"/>
<path d="M34.6662 83.9014C34.6662 83.9014 38.056 104.972 44.7404 108.602H37.9451C37.9451 108.602 31.2329 101.422 29.1855 83.9014H34.6662Z" fill="#263238"/>
<path opacity="0.1" d="M34.6662 83.9014C34.6662 83.9014 38.056 104.972 44.7404 108.602H37.9451C37.9451 108.602 31.2329 101.422 29.1855 83.9014H34.6662Z" fill="white"/>
<path d="M64.1092 105.623H37.6089C36.5159 105.623 35.6289 106.507 35.6289 107.596V110.235H66.0892V107.596C66.0892 106.503 65.2022 105.623 64.1092 105.623Z" fill="#407BFF"/>
<path d="M66.5641 107.927H35.1534C34.7138 107.927 34.3574 108.282 34.3574 108.72V109.438C34.3574 109.876 34.7138 110.231 35.1534 110.231H66.5601C66.9997 110.231 67.3561 109.876 67.3561 109.438V108.72C67.3601 108.282 67.0037 107.927 66.5641 107.927Z" fill="#263238"/>
<path opacity="0.6" d="M66.5641 107.927H35.1534C34.7138 107.927 34.3574 108.282 34.3574 108.72V109.438C34.3574 109.876 34.7138 110.231 35.1534 110.231H66.5601C66.9997 110.231 67.3561 109.876 67.3561 109.438V108.72C67.3601 108.282 67.0037 107.927 66.5641 107.927Z" fill="white"/>
<path d="M28.3814 88.1818H39.2675C42.4553 88.1818 44.5303 85.6333 43.8967 82.489L43.0493 78.2913C42.4157 75.1471 39.315 72.5985 36.1272 72.5985H25.2411C22.0533 72.5985 19.9783 75.1471 20.6119 78.2913L21.4593 82.489C22.0929 85.6333 25.1897 88.1818 28.3814 88.1818Z" fill="#407BFF"/>
<path d="M86.1468 123.459L83.652 124.434L81.8541 121.065L80.2266 117.999L82.9907 116.346L84.6618 120.11L86.1468 123.459Z" fill="#E4897B"/>
<path opacity="0.2" d="M84.6618 120.11L81.8541 121.065L80.2266 117.999L82.9907 116.346L84.6618 120.11Z" fill="black"/>
<path d="M84.1429 118.271L80.7492 120.086C80.7492 120.086 67.9227 97.6187 65.9507 97.8041C63.9786 97.9895 45.2676 109.872 39.5612 105.485C33.8548 101.102 39.4068 87.8899 39.4068 87.8899C39.4068 87.8899 51.2115 84.5287 52.4906 87.1127C52.7401 87.6138 53.0727 88.6119 53.3381 89.4759C53.5915 90.2846 53.7816 90.9671 53.7816 90.9671C53.7816 90.9671 53.7855 90.9671 53.7895 90.9632C54.1499 90.8172 65.8081 86.0554 71.0115 88.608C76.2942 91.2039 84.1429 118.271 84.1429 118.271Z" fill="#263238"/>
<path opacity="0.3" d="M84.1429 118.271L80.7492 120.086C80.7492 120.086 67.9227 97.6187 65.9507 97.8041C63.9786 97.9895 45.2676 109.872 39.5612 105.485C33.8548 101.102 39.4068 87.8899 39.4068 87.8899C39.4068 87.8899 51.2115 84.5287 52.4906 87.1127C52.7401 87.6138 53.0727 88.6119 53.3381 89.4759C53.5915 90.2846 53.7816 90.9671 53.7816 90.9671C53.7816 90.9671 53.7855 90.9671 53.7895 90.9632C54.1499 90.8172 65.8081 86.0554 71.0115 88.608C76.2942 91.2039 84.1429 118.271 84.1429 118.271Z" fill="white"/>
<path d="M65.7044 136.593L63.0432 136.289L63.0274 132.549L63.0234 129.117L66.2429 128.963L65.9578 133.003L65.7044 136.593Z" fill="#E4897B"/>
<path opacity="0.2" d="M65.9519 133.085L63.0215 132.62V129.152L66.241 128.982L65.9519 133.085Z" fill="black"/>
<path d="M79.0898 118.97L84.0557 116.492L84.5744 118.587L80.8124 120.52L79.0898 118.97Z" fill="#407BFF"/>
<path d="M48.375 105.521C48.375 105.521 49.1947 105.43 61.74 103.114C61.74 103.114 62.0212 119.104 62.6191 131.018L66.4841 131.14C66.4841 131.14 72.0281 104.692 71.3786 100.696C70.7292 96.7033 65.9574 96.1628 65.9574 96.1628C65.9574 96.1628 57.6731 102.574 48.375 105.521Z" fill="#263238"/>
<path opacity="0.4" d="M48.375 105.521C48.375 105.521 49.1947 105.43 61.74 103.114C61.74 103.114 62.0212 119.104 62.6191 131.018L66.4841 131.14C66.4841 131.14 72.0281 104.692 71.3786 100.696C70.7292 96.7033 65.9574 96.1628 65.9574 96.1628C65.9574 96.1628 57.6731 102.574 48.375 105.521Z" fill="white"/>
<path opacity="0.3" d="M48.375 105.521C48.375 105.521 49.1947 105.43 61.74 103.114C61.74 103.114 62.0212 119.104 62.6191 131.018L66.4841 131.14C66.4841 131.14 72.0281 104.692 71.3786 100.696C70.7292 96.7033 65.9574 96.1628 65.9574 96.1628C65.9574 96.1628 57.6731 102.574 48.375 105.521Z" fill="black"/>
<path d="M61.9121 129.953L67.1829 129.831L66.4622 131.993L62.1854 132.032L61.9121 129.953Z" fill="#407BFF"/>
<path opacity="0.3" d="M53.7784 90.9671L46.9395 93.3934C46.9395 93.3934 50.5351 90.7186 53.3388 89.4758C53.5883 90.2846 53.7784 90.9671 53.7784 90.9671Z" fill="black"/>
<path d="M38.6152 87.0771L38.8687 88.9668L51.6872 86.2565L51.3902 84.0236L38.6152 87.0771Z" fill="#263238"/>
<path opacity="0.2" d="M38.6152 87.0771L38.8687 88.9668L51.6872 86.2565L51.3902 84.0236L38.6152 87.0771Z" fill="black"/>
<path d="M42.8592 85.7008L42.2207 85.8188L42.8238 89.0577L43.4624 88.9397L42.8592 85.7008Z" fill="#263238"/>
<path d="M48.455 84.8768L45.6582 85.5049L46.1363 87.6177L48.9331 86.9896L48.455 84.8768Z" fill="white"/>
<path d="M50.6561 83.7816L50.0176 83.8995L50.6204 87.1384L51.2589 87.0204L50.6561 83.7816Z" fill="#263238"/>
<path opacity="0.3" d="M42.8592 85.7008L42.2207 85.8188L42.8238 89.0577L43.4624 88.9397L42.8592 85.7008Z" fill="white"/>
<path opacity="0.3" d="M50.6561 83.7816L50.0176 83.8995L50.6204 87.1384L51.2589 87.0204L50.6561 83.7816Z" fill="white"/>
<path d="M91.1053 127.866C90.6895 127.74 90.2499 127.692 89.8183 127.72C89.8183 127.72 88.2065 127.049 86.2622 123.858L84.599 124.075C84.0248 124.161 83.5654 124.591 83.4506 125.16C83.4347 125.238 83.4268 125.317 83.4347 125.396C83.506 125.795 83.605 126.185 83.7278 126.572C84.0485 127.791 85.2365 130.332 85.2365 130.332L85.5098 130.221L84.6584 127.823C84.3733 127.006 85.3672 127.696 85.8979 128.485C86.4245 129.274 87.173 130.04 88.9471 129.373C91.0102 128.584 91.8299 128.158 91.1053 127.866Z" fill="#263238"/>
<path d="M85.8367 123.013C85.8367 123.013 88.5057 127.053 89.8165 127.724C89.8165 127.724 88.3473 128.896 86.3871 127.006C83.8527 124.564 83.433 125.4 83.433 125.4C83.433 125.4 83.3934 124.449 83.5003 123.968C83.7022 123.041 85.8367 123.013 85.8367 123.013Z" fill="#E4897B"/>
<path d="M69.6847 141.295C69.3085 141.074 68.8967 140.924 68.469 140.849C68.469 140.849 67.0632 139.82 65.9346 136.257L64.2674 136.076C63.6893 136.025 63.1388 136.336 62.8933 136.857C62.8577 136.928 62.8339 137.003 62.822 137.082C62.7983 137.484 62.7983 137.891 62.826 138.293C62.8458 139.551 63.3962 142.301 63.3962 142.301L63.6853 142.258L63.4279 139.725C63.3448 138.865 64.1486 139.768 64.4734 140.66C64.7981 141.552 65.3406 142.471 67.2256 142.242C69.4234 141.966 70.3183 141.749 69.6847 141.295Z" fill="#263238"/>
<path d="M65.7249 135.334C65.7249 135.334 67.3565 139.887 68.4692 140.849C68.4692 140.849 66.7625 141.638 65.3091 139.342C63.4281 136.372 62.8223 137.086 62.8223 137.086C62.8223 137.086 63.0123 136.155 63.2262 135.713C63.642 134.857 65.7249 135.334 65.7249 135.334Z" fill="#E4897B"/>
<path d="M35.8229 54.8572L32.4846 55.5278C32.4846 55.5278 31.9936 55.9342 31.5263 55.7567C30.5284 55.3819 29.0909 54.2062 28.9087 53.7999C28.6394 53.2041 28.9127 51.4564 29.6136 51.1448C30.3145 50.8331 32.746 53.7486 32.746 53.7486L36.3456 52.9398L35.8229 54.8572Z" fill="#E4897B"/>
<path d="M46.3881 65.9469C46.3881 65.9469 46.0832 55.1372 44.8279 54.6717C43.5726 54.2062 34.1438 55.5002 34.1438 55.5002L33.9102 53.0305C33.9102 53.0305 44.8952 51.3499 47.0217 52.344C49.1482 53.3382 49.8492 69.462 49.4611 72.5669L46.3881 65.9469Z" fill="#407BFF"/>
<path opacity="0.6" d="M46.3881 65.9469C46.3881 65.9469 46.0832 55.1372 44.8279 54.6717C43.5726 54.2062 34.1438 55.5002 34.1438 55.5002L33.9102 53.0305C33.9102 53.0305 44.8952 51.3499 47.0217 52.344C49.1482 53.3382 49.8492 69.462 49.4611 72.5669L46.3881 65.9469Z" fill="white"/>
<path d="M34.298 55.741L33.6406 53.0267L34.5831 52.6835L35.1811 55.8238L34.298 55.741Z" fill="#407BFF"/>
<path opacity="0.7" d="M34.298 55.741L33.6406 53.0267L34.5831 52.6835L35.1811 55.8238L34.298 55.741Z" fill="white"/>
<path d="M46.3369 64.5978C46.3369 64.5978 45.4974 67.888 41.4345 68.9414C37.3715 69.9947 32.8809 67.2489 32.8809 67.2489L33.7758 75.0998L38.7535 87.4678L51.4651 84.1657C51.4572 84.1657 50.6929 69.7738 46.3369 64.5978Z" fill="#407BFF"/>
<path opacity="0.7" d="M46.3369 64.5978C46.3369 64.5978 45.4974 67.888 41.4345 68.9414C37.3715 69.9947 32.8809 67.2489 32.8809 67.2489L33.7758 75.0998L38.7535 87.4678L51.4651 84.1657C51.4572 84.1657 50.6929 69.7738 46.3369 64.5978Z" fill="white"/>
<path opacity="0.6" d="M48.5434 77.6443L50.0324 77.1748C50.1987 77.1235 50.2898 76.946 50.2383 76.7843L49.3513 73.9872C49.2998 73.8215 49.1216 73.7307 48.9592 73.782L47.4703 74.2515C47.304 74.3028 47.2129 74.4803 47.2644 74.6421L48.1514 77.4392C48.2029 77.6048 48.3811 77.6956 48.5434 77.6443Z" fill="#407BFF"/>
<path opacity="0.2" d="M48.2436 76.7853L49.9355 76.2537L49.2054 73.9473L47.5134 74.4789L48.2436 76.7853Z" fill="black"/>
<path d="M48.1766 73.1269L47.8027 73.2444L48.2327 74.6026L48.6066 74.4852L48.1766 73.1269Z" fill="#263238"/>
<path d="M37.6929 52.3086C34.5606 52.3086 32.4934 55.6146 33.226 60.8577C33.9586 66.1048 36.897 67.6118 36.897 67.6118L36.7069 66.3494C36.7069 66.3494 41.348 67.5447 46.6465 66.9017C46.6465 66.9017 45.1338 62.6251 45.6248 58.2579C45.6208 58.2579 46.6148 52.3047 37.6929 52.3086Z" fill="#263238"/>
<path opacity="0.2" d="M43.9129 67.8604L45.192 72.5906L42.9427 70.8824C42.9427 70.8824 45.1326 75.869 45.6949 78.7805C45.6949 78.7805 43.802 73.8333 42.1705 71.123L41.2161 73.8373L37.3789 69.9434C37.3789 69.9474 40.7805 67.3672 43.9129 67.8604Z" fill="black"/>
<path d="M42.0446 69.4029L38.144 69.5213C39.8706 67.312 36.7422 63.4734 36.7422 63.4734L40.5992 64.3058C41.5179 68.105 43.1099 68.2233 43.1099 68.2233L42.0446 69.4029Z" fill="#E4897B"/>
<path opacity="0.2" d="M41.6764 67.0358C39.8825 66.8741 38.6351 66.0101 37.8035 65.0987C37.2887 64.148 36.7383 63.4773 36.7383 63.4773L40.5953 64.3097C40.9121 65.5919 41.2962 66.4559 41.6764 67.0358Z" fill="black"/>
<path d="M40.5959 53.9182C43.9579 54.1983 44.8925 56.0801 44.8489 59.5558C44.7974 63.8955 43.5778 66.8819 39.4514 65.6116C33.8441 63.8836 35.0083 53.4527 40.5959 53.9182Z" fill="#E4897B"/>
<path d="M42.6902 59.1851C42.6902 59.1851 43.0822 60.1003 43.5535 60.6566C43.5535 60.6566 43.2288 61.0866 42.6348 60.9604L42.6902 59.1851Z" fill="#DE5753"/>
<path d="M40.4141 58.6366L41.1427 58.3999C41.1427 58.3999 40.7546 58.9759 40.4141 58.6366Z" fill="#263238"/>
<path d="M40.6672 58.5537C40.6672 58.5537 40.1563 58.3012 39.8633 58.7668C39.8633 58.7668 40.1959 58.5774 40.6394 58.747L40.6672 58.5537Z" fill="#263238"/>
<path d="M39.3125 56.9521C39.2769 56.9521 39.2413 56.9403 39.2135 56.9127C39.1581 56.8574 39.1541 56.7667 39.2096 56.7115C39.8234 56.0763 40.8015 56.2775 40.845 56.2854C40.9242 56.3012 40.9718 56.3761 40.9559 56.455C40.9401 56.5339 40.8648 56.5813 40.7856 56.5655C40.7777 56.5616 39.9184 56.3919 39.4195 56.9087C39.3878 56.9403 39.3482 56.9521 39.3125 56.9521Z" fill="#263238"/>
<path d="M44.5871 57.0152C44.5554 57.0152 44.5237 57.0033 44.496 56.9836C43.8624 56.4826 43.3278 56.6167 43.304 56.6207C43.2288 56.6404 43.1496 56.597 43.1298 56.522C43.11 56.4471 43.1535 56.3682 43.2288 56.3484C43.2565 56.3406 43.9218 56.167 44.6742 56.7627C44.7375 56.81 44.7455 56.9008 44.6979 56.9639C44.6742 56.9954 44.6306 57.0152 44.5871 57.0152Z" fill="#263238"/>
<path d="M36.4446 59.26C36.4446 59.26 38.2464 56.6364 38.187 54.4903C38.187 54.4903 45.0813 52.3323 44.8437 59.0982C44.8437 59.0982 45.9961 53.1647 40.2224 52.5532C34.4606 51.9417 33.7716 60.3686 36.5475 63.1301C36.5515 63.1301 35.3278 60.9011 36.4446 59.26Z" fill="#263238"/>
<path d="M36.9367 60.0135C36.9605 59.473 36.4774 58.5144 35.4596 58.538C34.4063 58.5656 33.7331 60.6566 36.2833 61.3825C36.6476 61.489 36.8892 61.1418 36.9367 60.0135Z" fill="#E4897B"/>
<path d="M42.662 61.9546C42.3769 62.3017 42.0047 62.9961 42.0047 62.9961C41.9334 62.9724 41.8661 62.9527 41.7988 62.9251C40.8682 62.5976 40.5434 62.14 40.4682 61.7336C40.4286 61.5088 40.4642 61.2997 40.5118 61.134C40.5672 60.9446 40.6543 60.8184 40.6543 60.8184C41.0464 61.2839 41.8898 61.6547 42.3492 61.8362C42.5353 61.9151 42.662 61.9546 42.662 61.9546Z" fill="#263238"/>
<path d="M42.3453 61.8401L42.1433 62.1439C41.2681 61.8362 40.69 61.5008 40.5078 61.1379C40.5633 60.9485 40.6504 60.8223 40.6504 60.8223C41.0385 61.2878 41.8859 61.6586 42.3453 61.8401Z" fill="white"/>
<path d="M41.7954 62.929C40.8648 62.6015 40.5401 62.1439 40.4648 61.7375C40.7777 61.8598 41.142 62.0453 41.4271 62.3056C41.6449 62.499 41.7479 62.7238 41.7954 62.929Z" fill="#DE5753"/>
<path d="M40.5044 54.1628C40.5044 54.1628 38.6867 59.5637 35.2098 59.2047C31.729 58.8457 37.6928 52.3086 37.6928 52.3086C37.6928 52.3086 43.5575 50.6438 46.1157 53.8867C48.6699 57.1296 44.8485 59.1022 44.8485 59.1022C44.8485 59.1022 45.4187 54.8493 40.5044 54.1628Z" fill="#263238"/>
<path d="M37.7323 58.7589C37.6927 58.7589 37.6531 58.7352 37.6412 58.6958C37.6214 58.6445 37.6491 58.5893 37.6967 58.5696C40.4687 57.5123 40.4053 53.8078 40.4053 53.7723C40.4053 53.717 40.4489 53.6736 40.5003 53.6697C40.5558 53.6776 40.5993 53.7131 40.6033 53.7644C40.6033 53.8038 40.6667 57.6464 37.7679 58.751C37.7561 58.7589 37.7442 58.7589 37.7323 58.7589Z" fill="#263238"/>
<path d="M43.8262 58.9641L44.5548 58.7274C44.5548 58.7274 44.1628 59.3034 43.8262 58.9641Z" fill="#263238"/>
<path d="M44.0793 58.8812C44.0793 58.8812 43.5684 58.6287 43.2754 59.0943C43.2754 59.0943 43.608 58.9049 44.0515 59.0745L44.0793 58.8812Z" fill="#263238"/>
<path d="M38.6897 67.9235L41.6319 69.4147L41.5844 72.3894L37.3789 69.9473L38.6897 67.9235Z" fill="#407BFF"/>
<path d="M42.0801 67.3633L42.2543 69.1702L44.171 71.194L43.9136 67.8604L42.0801 67.3633Z" fill="#407BFF"/>
<path d="M28.4851 46.9511L27.2575 43.7871C27.2575 43.7871 27.3367 43.1559 26.9368 42.86C26.0814 42.2248 24.3153 41.6488 23.8717 41.7159C23.2223 41.8106 21.8917 42.9784 22.0026 43.7358C22.1135 44.4972 25.8913 44.9667 25.8913 44.9667L27.1427 48.4266L28.4851 46.9511Z" fill="#E4897B"/>
<path d="M33.7719 75.0997C33.7719 75.0997 36.1677 73.2178 35.2015 69.0557L32.6473 57.5517L28.2596 45.6729L26.1133 46.7538C26.1133 46.7538 29.7169 58.3604 30.0495 59.1455C30.2198 59.5479 30.897 65.5643 31.8196 69.6041C32.6671 73.3204 33.7719 75.0997 33.7719 75.0997Z" fill="#407BFF"/>
<path opacity="0.6" d="M33.7719 75.0997C33.7719 75.0997 36.1677 73.2178 35.2015 69.0557L32.6473 57.5517L28.2596 45.6729L26.1133 46.7538C26.1133 46.7538 29.7169 58.3604 30.0495 59.1455C30.2198 59.5479 30.897 65.5643 31.8196 69.6041C32.6671 73.3204 33.7719 75.0997 33.7719 75.0997Z" fill="white"/>
<path d="M25.7363 46.4146L28.243 45.1639L28.7895 45.9964L25.8591 47.2864L25.7363 46.4146Z" fill="#407BFF"/>
<path opacity="0.7" d="M25.7363 46.4146L28.243 45.1639L28.7895 45.9964L25.8591 47.2864L25.7363 46.4146Z" fill="white"/>
<path opacity="0.6" d="M38.6897 67.9235L41.6319 69.4147L41.5844 72.3894L37.3789 69.9473L38.6897 67.9235Z" fill="white"/>
<path opacity="0.6" d="M42.0801 67.3633L42.2543 69.1702L44.171 71.194L43.9136 67.8604L42.0801 67.3633Z" fill="white"/>
<path d="M125.636 61.7257H113.771V70.91H125.636V61.7257Z" fill="white"/>
<path opacity="0.1" d="M125.635 61.7257H122.594V70.91H125.635V61.7257Z" fill="black"/>
<path d="M113.09 79.0212H126.502V62.349H122.182L113.09 66.6887V79.0212Z" fill="#407BFF"/>
<path opacity="0.2" d="M126.502 62.349H122.182V79.0172H126.502V62.349Z" fill="black"/>
<path opacity="0.7" d="M120.753 69.9711H114.473V72.9694H120.753V69.9711Z" fill="white"/>
<path opacity="0.7" d="M120.753 73.9753H114.473V74.4054H120.753V73.9753Z" fill="white"/>
<path opacity="0.7" d="M126.083 75.23H122.594V77.7746H126.083V75.23Z" fill="white"/>
<path d="M120.595 61.2247H108.73V70.9101H120.595V61.2247Z" fill="white"/>
<path opacity="0.1" d="M120.594 61.2247H117.553V70.9101H120.594V61.2247Z" fill="black"/>
<path d="M108.049 79.0213H121.461V62.3491H117.141L108.049 66.6888V79.0213Z" fill="#407BFF"/>
<path opacity="0.2" d="M121.461 62.3491H117.141V79.0173H121.461V62.3491Z" fill="black"/>
<path opacity="0.7" d="M115.71 69.9712H109.43V72.9695H115.71V69.9712Z" fill="white"/>
<path opacity="0.7" d="M115.71 73.9755H109.43V74.4055H115.71V73.9755Z" fill="white"/>
<path opacity="0.7" d="M121.041 75.23H117.553V77.7746H121.041V75.23Z" fill="white"/>
<path d="M99.7168 142.305H102.144L106.5 81.8459H103.285L99.7168 142.305Z" fill="#263238"/>
<path opacity="0.1" d="M99.7168 142.305H102.144L106.29 84.8482L106.504 81.9446H103.285L103.111 84.8482L99.7168 142.305Z" fill="white"/>
<path opacity="0.2" d="M103.109 84.7062H106.289L106.503 81.9446H103.284L103.109 84.7062Z" fill="black"/>
<path d="M81.9136 142.305H84.3411L84.7371 81.8459H81.5176L81.9136 142.305Z" fill="#263238"/>
<path opacity="0.1" d="M81.5176 81.9446L81.5809 91.697L81.9136 142.305H84.3411L84.6737 91.697L84.7371 81.9446H81.5176Z" fill="white"/>
<path opacity="0.2" d="M81.5176 81.9446L81.5809 91.8074H84.6737L84.7371 81.9446H81.5176Z" fill="black"/>
<path d="M56.1562 142.305H58.5837L62.9397 81.8459H59.7242L56.1562 142.305Z" fill="#263238"/>
<path opacity="0.1" d="M56.1562 142.305H58.5837L62.7299 84.8482L62.9437 81.9446H59.7242L59.55 84.8482L56.1562 142.305Z" fill="white"/>
<path opacity="0.2" d="M59.5488 84.7062H62.7287L62.9425 81.9446H59.7231L59.5488 84.7062Z" fill="black"/>
<path d="M127.469 142.305H129.897L126.329 81.8459H123.109L127.469 142.305Z" fill="#263238"/>
<path opacity="0.1" d="M123.113 81.9446L123.327 84.8482L127.473 142.305H129.897L126.507 84.8482L126.333 81.9446H123.113Z" fill="white"/>
<path opacity="0.2" d="M126.333 81.9446H123.113L123.327 84.7062H126.507L126.333 81.9446Z" fill="black"/>
<path d="M58.0253 83.3609H128.022C128.493 83.3609 128.878 82.9782 128.878 82.5087V80.335H57.1699V82.5087C57.1699 82.9782 57.554 83.3609 58.0253 83.3609Z" fill="#407BFF"/>
<path opacity="0.4" d="M58.0253 83.3609H128.022C128.493 83.3609 128.878 82.9782 128.878 82.5087V80.335H57.1699V82.5087C57.1699 82.9782 57.554 83.3609 58.0253 83.3609Z" fill="white"/>
<path opacity="0.2" d="M57.1732 81.8457L128.881 81.8457V80.3308L57.1732 80.3308V81.8457Z" fill="black"/>
<path d="M55.6698 80.7255H130.387C130.858 80.7255 131.242 80.3429 131.242 79.8734C131.242 79.4039 130.858 79.0212 130.387 79.0212H55.6698C55.1986 79.0212 54.8145 79.4039 54.8145 79.8734C54.8105 80.3429 55.1946 80.7255 55.6698 80.7255Z" fill="#407BFF"/>
<path opacity="0.4" d="M55.6698 80.7255H130.387C130.858 80.7255 131.242 80.3429 131.242 79.8734C131.242 79.4039 130.858 79.0212 130.387 79.0212H55.6698C55.1986 79.0212 54.8145 79.4039 54.8145 79.8734C54.8105 80.3429 55.1946 80.7255 55.6698 80.7255Z" fill="white"/>
<path d="M114.329 79.0133V77.6799H115.228L114.329 77.1591H115.002L114.103 76.5752H113.252V75.9046H114.242L113.252 75.51V74.0582H114.242V73.1035H115.228L114.242 72.7761V72.0975H114.947L114.369 71.5215L113.87 71.0244H98.5682V71.7069H97.5584L98.683 72.2119V72.7761H96.6198V73.8255H95.7051L96.6198 74.2792V75.4548H97.2653V76.015H98.5682V77.6799H97.8395L98.4375 78.2756V79.0212L114.329 79.0133Z" fill="#407BFF"/>
<path opacity="0.7" d="M114.329 79.0133V77.6799H115.228L114.329 77.1591H115.002L114.103 76.5752H113.252V75.9046H114.242L113.252 75.51V74.0582H114.242V73.1035H115.228L114.242 72.7761V72.0975H114.947L114.369 71.5215L113.87 71.0244H98.5682V71.7069H97.5584L98.683 72.2119V72.7761H96.6198V73.8255H95.7051L96.6198 74.2792V75.4548H97.2653V76.015H98.5682V77.6799H97.8395L98.4375 78.2756V79.0212L114.329 79.0133Z" fill="white"/>
<path opacity="0.1" d="M114.328 79.0133V77.6799H115.227L114.328 77.1591H115.002L114.103 76.5752H113.251V75.9046H114.241L113.251 75.51V74.0582H114.241V73.1035H115.227L114.241 72.7761V72.0975H114.946L114.368 71.5215L113.869 71.0244H105.81V71.7069H104.801L105.921 72.2119V72.7761H103.858V73.8255H102.947L103.858 74.2792V75.4548H104.508V76.015H105.81V77.6799H105.078L105.676 78.2756V79.0212L114.328 79.0133Z" fill="black"/>
<path opacity="0.1" d="M98.6836 72.776H105.922L98.6836 72.5117V72.776Z" fill="black"/>
<path opacity="0.1" d="M98.5684 76.015H105.811L105.843 76.52L98.5684 76.015Z" fill="black"/>
<path opacity="0.1" d="M97.2656 75.4548H104.508L97.2656 75.7073V75.4548Z" fill="black"/>
<path opacity="0.1" d="M98.5684 77.6799H105.811L98.5684 77.4155V77.6799Z" fill="black"/>
<path opacity="0.1" d="M98.4375 78.2755H105.676V78.5517L98.4375 78.2755Z" fill="black"/>
<path opacity="0.1" d="M96.6191 73.8254H103.858L96.6191 73.5927V73.8254Z" fill="black"/>
<path opacity="0.1" d="M98.5684 71.707H105.811L98.5684 71.4545V71.707Z" fill="black"/>
<path opacity="0.1" d="M114.242 72.0975H106.896L114.242 72.3224V72.0975Z" fill="black"/>
<path opacity="0.1" d="M105.922 72.7761H114.242L106.698 73.0207L105.922 72.7761Z" fill="black"/>
<path opacity="0.1" d="M103.859 73.8254L114.242 74.0582V73.8254H103.859Z" fill="black"/>
<path opacity="0.1" d="M103.859 74.2792H108.995L103.859 74.5317V74.2792Z" fill="black"/>
<path opacity="0.1" d="M113.251 75.51L105.811 75.4548L113.251 75.2891V75.51Z" fill="black"/>
<path opacity="0.1" d="M113.251 75.9045H105.676L113.251 76.1531V75.9045Z" fill="black"/>
<path opacity="0.1" d="M114.329 77.1591H105.922V77.4155L114.329 77.1591Z" fill="black"/>
<path opacity="0.1" d="M114.329 77.6799H108.238L114.329 77.8456V77.6799Z" fill="black"/>
<path d="M94.8464 77.2894V78.5558C94.8464 78.8793 94.4623 79.0135 94.1415 79.0135H68.7461C68.4213 79.0135 68.0293 78.8793 68.0293 78.5558V77.2894H94.8464Z" fill="#263238"/>
<path opacity="0.4" d="M94.8464 77.2894V78.5558C94.8464 78.8793 94.4623 79.0135 94.1415 79.0135H68.7461C68.4213 79.0135 68.0293 78.8793 68.0293 78.5558V77.2894H94.8464Z" fill="white"/>
<path opacity="0.2" d="M94.8462 77.2894V78.5558C94.8462 78.8793 94.462 79.0135 94.1413 79.0135H77.3944C77.0697 79.0135 76.6816 78.8793 76.6816 78.5558V77.2894H94.8462Z" fill="black"/>
<path d="M99.0958 64.1481L96.0744 77.8062C95.9754 78.2559 95.5358 78.5834 95.0923 78.5834H78.5791C78.1395 78.5834 77.8584 78.1731 77.9574 77.7233L80.9749 64.1678C81.0778 63.722 81.5134 63.5011 81.957 63.5011H98.4702C98.9137 63.5011 99.1909 63.7023 99.0958 64.1481Z" fill="#263238"/>
<path opacity="0.4" d="M99.0949 64.1481L96.0734 77.8062C95.9744 78.2559 95.5348 78.5834 95.0913 78.5834H79.1404C78.6969 78.5834 78.4197 78.1731 78.5147 77.7233L81.5362 64.1678C81.6352 63.722 82.0748 63.5011 82.5183 63.5011H98.4692C98.9127 63.5011 99.1899 63.7023 99.0949 64.1481Z" fill="white"/>
<path opacity="0.2" d="M90.9532 71.0916C90.9532 72.2633 89.6939 73.2141 88.7712 73.2141C87.8485 73.2141 87.3021 72.2633 87.5634 71.0956C87.8248 69.9515 88.7435 69.0165 89.6464 68.981C89.385 70.1487 89.9473 71.0956 90.8661 71.0956C90.8859 71.0956 90.9532 71.0955 90.9532 71.0916Z" fill="black"/>
</svg>
