<svg width="22" height="28" viewBox="0 0 22 28" fill="none" xmlns="http://www.w3.org/2000/svg">
<path d="M21 23H20H21ZM17 27L17 26L17 27ZM20 8L20 23H22L22 8H20ZM5.00002 28L17 28L17 26L5.00002 26L5.00002 28ZM4.6602e-06 8L2.22701e-05 23L2.00002 23L2 8L4.6602e-06 8ZM2 8C2 6.34315 3.34315 5 5 5L5 3C2.23858 3 1.45239e-06 5.23858 4.6602e-06 8L2 8ZM5.00002 26C3.34317 26 2.00002 24.6569 2.00002 23L2.22701e-05 23C2.54779e-05 25.7614 2.2386 28 5.00002 28L5.00002 26ZM20 23C20 24.6569 18.6569 26 17 26L17 28C19.7614 28 22 25.7614 22 23H20ZM22 8C22 5.23858 19.7614 3 17 3L17 5C18.6569 5 20 6.34315 20 8H22Z" fill="#2872FF"/>
<path d="M14 3C13.4477 3 13.0207 2.52548 12.7555 2.04103C12.4159 1.42067 11.7571 1 11 1C10.2429 1 9.58406 1.42067 9.24447 2.04103C8.97927 2.52548 8.55228 3 8 3H6C5.44772 3 5 3.44772 5 4V6C5 6.55228 5.44772 7 6 7H16C16.5523 7 17 6.55228 17 6V4C17 3.44772 16.5523 3 16 3H14Z" stroke="#2872FF" stroke-width="2"/>
<path d="M6 15H14" stroke="#2872FF" stroke-width="2" stroke-linecap="round"/>
<path d="M6 20H10" stroke="#2872FF" stroke-width="2" stroke-linecap="round"/>
</svg>
