<svg width="22" height="28" viewBox="0 0 22 28" fill="none" xmlns="http://www.w3.org/2000/svg">
<path d="M9 16H20M20 16L16 12M20 16L16 20" stroke="#2872FF" stroke-width="2" stroke-linecap="round" stroke-linejoin="round"/>
<path d="M1.00003 8L0.292926 7.29289C0.10539 7.48043 3.3617e-05 7.73478 3.29614e-05 8L1.00003 8ZM8.00003 1V0C7.73481 0 7.48046 0.105357 7.29292 0.292893L8.00003 1ZM21 5H20V5L21 5ZM22 23C22 22.4477 21.5523 22 21 22C20.4478 22 20 22.4477 20 23H22ZM1 23L2 23L1 23ZM8.99999 9V10C9.55227 10 9.99999 9.55229 9.99999 9H8.99999ZM1.00003 9L3.03984e-05 9L1.00003 9ZM20 9C20 9.55229 20.4478 10 21 10C21.5523 10 22 9.55228 22 9L20 9ZM1.70714 8.70711L8.70714 1.70711L7.29292 0.292893L0.292926 7.29289L1.70714 8.70711ZM5 28H17V26H5V28ZM5 26C3.34314 26 2 24.6569 2 23L0 23C-7.03335e-06 25.7614 2.23857 28 5 28V26ZM17 28C19.7615 28 22 25.7614 22 23H20C20 24.6569 18.6569 26 17 26V28ZM17 2C18.6569 2 20 3.34315 20 5H22C22 2.23858 19.7615 0 17 0V2ZM8.00003 2H8.99999V0H8.00003V2ZM8.99999 2H17V0H8.99999V2ZM3.29614e-05 8L3.03984e-05 9L2.00003 9L2.00003 8L3.29614e-05 8ZM3.03984e-05 9L0 23L2 23L2.00003 9L3.03984e-05 9ZM7.99999 1V9H9.99999V1H7.99999ZM8.99999 8H1.00003V10H8.99999V8ZM20 5L20 9L22 9L22 5L20 5Z" fill="#2872FF"/>
</svg>
