<svg width="32" height="32" viewBox="0 0 32 32" fill="none" xmlns="http://www.w3.org/2000/svg">
<path fill-rule="evenodd" clip-rule="evenodd" d="M27.8212 16.8661C28.3619 16.8661 28.8002 16.4276 28.8002 15.8866V14.5808C28.8002 9.40222 26.4934 6.88049 21.7672 6.88049H18.2789C17.711 6.88319 17.1743 6.62097 16.8273 6.17126L15.702 4.67399C14.9751 3.74079 13.8576 3.19637 12.675 3.19923H10.2219C5.56327 3.19923 3.2002 5.88982 3.2002 11.2034V20.8063C3.2002 25.7371 6.26094 28.7992 11.2009 28.7992H20.7882C25.7169 28.7992 28.7889 25.7371 28.7889 20.8063C28.7351 20.3028 28.3104 19.921 27.8043 19.921C27.2982 19.921 26.8736 20.3028 26.8197 20.8063C26.8197 24.6902 24.6817 26.8404 20.7882 26.8404H11.1896C7.2962 26.8404 5.15817 24.7014 5.15817 20.8063V19.8719H20.912C21.4527 19.8719 21.891 19.4334 21.891 18.8925C21.891 18.3515 21.4527 17.913 20.912 17.913H5.15817V11.1584C5.15817 6.92553 6.66604 5.11304 10.2107 5.11304H12.6863C13.2541 5.12143 13.7877 5.38627 14.1379 5.83353L15.2631 7.31954C15.9774 8.26641 17.0932 8.82456 18.2789 8.82808H21.756C25.4131 8.82808 26.831 10.4604 26.831 14.5808V15.8866C26.8309 16.1484 26.9356 16.3992 27.1217 16.5832C27.3077 16.7672 27.5596 16.8691 27.8212 16.8661Z" fill="#5D54C1"/>
</svg>
