<svg width="50" height="50" viewBox="0 0 50 50" fill="none" xmlns="http://www.w3.org/2000/svg">
<path d="M25 45C26.7225 45 28.3925 44.7825 29.9875 44.375C29.1204 43.4102 28.3407 42.3703 27.6575 41.2675C26.7625 42.105 25.85 42.5 25 42.5C23.3575 42.5 21.4825 41.025 19.945 37.73C19.3598 36.4486 18.8929 35.1164 18.55 33.75H25.66C25.72 32.89 25.87 32.0525 26.1 31.25H18.015C17.6676 29.1849 17.4953 27.0941 17.5 25C17.5 22.7925 17.6825 20.6875 18.015 18.75H31.985C32.2475 20.2825 32.4175 21.9225 32.4775 23.635C33.2644 23.2589 34.0913 22.9729 34.9425 22.7825C34.871 21.4319 34.7291 20.0859 34.5175 18.75H41.35C41.935 20.275 42.31 21.9 42.445 23.5975C43.3675 24.03 44.225 24.5775 44.9975 25.225L45 25C45 21.0444 43.827 17.1776 41.6294 13.8886C39.4318 10.5996 36.3082 8.03617 32.6537 6.52242C28.9992 5.00867 24.9778 4.6126 21.0982 5.3843C17.2186 6.15601 13.6549 8.06082 10.8579 10.8579C8.06082 13.6549 6.15601 17.2186 5.3843 21.0982C4.6126 24.9778 5.00867 28.9992 6.52242 32.6537C8.03617 36.3082 10.5996 39.4318 13.8886 41.6294C17.1776 43.827 21.0444 45 25 45V45ZM25 7.50001C26.6425 7.50001 28.5175 8.97501 30.055 12.27C30.5975 13.435 31.07 14.775 31.4525 16.25H18.5475C18.93 14.775 19.4025 13.435 19.9475 12.27C21.48 8.97501 23.355 7.50001 25 7.50001ZM17.68 11.2125C16.9418 12.8295 16.3697 14.5174 15.9725 16.25H9.84001C11.9506 12.6022 15.3031 9.83538 19.285 8.45501C18.6825 9.28001 18.145 10.215 17.68 11.2125ZM15.48 18.75C15.1565 20.8175 14.996 22.9073 15 25C15 27.175 15.1675 29.28 15.4825 31.25H8.65001C7.88758 29.2546 7.49779 27.1362 7.50001 25C7.50001 22.8 7.90751 20.69 8.65001 18.75H15.4825H15.48ZM15.9725 33.75C16.4125 35.6075 16.99 37.305 17.68 38.7875C18.145 39.785 18.6825 40.72 19.285 41.545C15.3031 40.1646 11.9506 37.3978 9.84001 33.75H15.975H15.9725ZM30.715 8.45501C34.6971 9.83518 38.0496 12.602 40.16 16.25H34.025C33.6278 14.5174 33.0557 12.8296 32.3175 11.2125C31.8724 10.2439 31.3349 9.32047 30.7125 8.45501H30.715ZM37.5 25C42.6775 25 46.875 29.3175 46.875 34.6425C46.875 38.635 43.9175 42.8175 38.125 47.285C37.9464 47.4241 37.7264 47.4996 37.5 47.4996C37.2736 47.4996 37.0537 47.4241 36.875 47.285C31.0825 42.8175 28.125 38.635 28.125 34.6425C28.125 29.3175 32.3225 25 37.5 25ZM37.5 31.4275C35.775 31.4275 34.375 32.8675 34.375 34.6425C34.375 36.4175 35.775 37.8575 37.5 37.8575C39.225 37.8575 40.625 36.4175 40.625 34.6425C40.625 32.8675 39.225 31.4275 37.5 31.4275Z" fill="#2B4285"/>
</svg>
