<svg width="21" height="21" viewBox="0 0 21 21" fill="none" xmlns="http://www.w3.org/2000/svg">
<path d="M6.83706 20H2.35495C1.60261 20 0.994252 19.387 1.00004 18.6347L1.06198 10.5045C1.06769 9.76016 1.67266 9.15973 2.41698 9.15973H6.83706M6.83706 20H16.1626C16.7976 20 17.3475 19.559 17.4853 18.939L19.9672 9.24536C20.1552 8.39913 19.5113 7.59623 18.6444 7.59623H14.863C14.0092 7.59623 13.3386 7.02463 13.5041 6.187L14.2034 2.64724C14.3689 1.80961 13.7279 1.02954 12.8742 1.02954H12.6078C12.1259 1.02954 11.6803 1.28559 11.4374 1.70176L6.83706 9.15973M6.83706 20V9.15973" stroke="white" stroke-width="2"/>
</svg>
