<svg width="45" height="45" viewBox="0 0 45 45" fill="none" xmlns="http://www.w3.org/2000/svg">
<g id="Group 24">
<rect id="Rectangle 9" width="45" height="45" rx="10" fill="url(#paint0_linear_53_320)"/>
<g id="logo 02">
<g id="Shape 1 copy 5">
<path id="Vector" fill-rule="evenodd" clip-rule="evenodd" d="M32.9168 28.1499C33.2374 28.6054 33.2697 29.3231 32.9291 29.8795C32.6253 30.3764 30.8054 32.283 30.2133 32.8957C29.7002 33.4278 29.0071 33.9606 28.3251 33.9606H14.0459C12.1162 33.9606 12 33.3116 12 31.8441V25.8917C12 24.393 12.4456 23.9598 13.7636 23.9598H28.3251C29.0071 23.9598 29.614 24.3053 30.3111 25.0081C30.9024 25.6048 32.6708 27.7995 32.9168 28.1499Z" fill="#33CCCC"/>
</g>
<path id="Subtract" fill-rule="evenodd" clip-rule="evenodd" d="M32.9291 29.8795C33.2697 29.3231 33.2374 28.6054 32.9168 28.1499C32.6708 27.7995 30.9024 25.6048 30.3111 25.0081C29.614 24.3053 29.0071 23.9598 28.3251 23.9598H13.7636C12.4456 23.9598 12 24.393 12 25.8917V31.8441C12 33.3116 12.1162 33.9606 14.0459 33.9606H28.3251C29.0071 33.9606 29.7002 33.4278 30.2133 32.8957C30.8054 32.283 32.6253 30.3764 32.9291 29.8795ZM15.237 26.2224V26.2616C14.6413 26.5965 13.9973 26.9793 13.4163 27.8035V26.2304C13.4163 25.994 13.4339 25.8418 13.7114 25.8418H14.9048C15.2206 25.8418 15.237 26.0309 15.237 26.2224ZM23.2425 31.8616V31.9458C23.2425 31.9536 23.2427 31.9623 23.2429 31.9716C23.2458 32.0855 23.2511 32.2997 22.8935 32.2997H21.6509C21.3466 32.2997 21.3543 32.0513 21.3574 31.952C21.3577 31.9436 21.3579 31.9362 21.3579 31.9302V31.301H21.3591V28.2389C21.3594 27.8169 21.2993 27.5161 21.179 27.3368C21.0587 27.1574 20.8624 27.0677 20.5901 27.0677C20.0017 27.0677 19.5826 27.6068 19.3389 27.9202C19.3086 27.9592 19.281 27.9947 19.2561 28.0253V31.8612H19.2545V31.9457C19.2545 31.9535 19.2547 31.9621 19.255 31.9715C19.2578 32.0854 19.2632 32.2997 18.9059 32.2997H17.6794C17.3753 32.2997 17.3831 32.0517 17.3862 31.9522C17.3865 31.9437 17.3867 31.9363 17.3867 31.9302V31.301H17.3883V28.2389C17.3876 27.8169 17.3285 27.5161 17.211 27.3368C17.0935 27.1574 16.9012 27.0677 16.6341 27.0677C16.0026 27.0677 15.591 27.6289 15.3636 27.939C15.3404 27.9707 15.3191 27.9997 15.2997 28.0253V31.9458C15.2997 31.9536 15.2999 31.9623 15.3002 31.9716C15.303 32.0855 15.3084 32.2999 14.9515 32.2999H13.7094C13.4049 32.2999 13.4127 32.0517 13.4158 31.9523C13.4161 31.9438 13.4163 31.9364 13.4163 31.9303V29.5062C13.4163 28.0542 15.0716 26.6371 15.4351 26.3258C15.4693 26.2966 15.492 26.2772 15.5009 26.2683C15.9653 25.8893 16.6201 25.6935 17.1839 25.6935C17.6705 25.6935 18.0668 25.7859 18.3729 25.9705C18.679 26.1552 18.9079 26.4427 19.0597 26.8331C19.3683 26.4739 19.6901 26.1941 20.0251 25.9938C20.3588 25.794 20.742 25.69 21.1319 25.6936C22.5395 25.6934 23.2433 26.4872 23.2433 28.075V31.8616H23.2425ZM27.2735 32.2442C28.5843 32.2442 29.6424 31.5854 30.0844 30.4065V30.4063C30.114 30.3278 30.0389 30.1636 29.8692 30.1639H28.8315C28.8315 30.1639 28.5772 30.1528 28.4526 30.3546C28.1671 30.8186 27.8389 31.0554 27.2855 31.0554C26.378 31.0554 25.8637 30.4847 25.8397 29.4268H29.8696C30.187 29.4268 30.2613 29.2041 30.2517 28.952C30.1762 26.979 28.9868 25.7542 27.214 25.7542C25.4217 25.7542 24.1197 27.133 24.1197 29.0352C24.1197 30.9605 25.3742 32.2442 27.2735 32.2442ZM25.8397 28.3575C25.9356 27.5012 26.461 26.9783 27.214 26.9783V26.9781C28.0617 26.9781 28.4682 27.6084 28.54 28.3575H25.8397Z" fill="white"/>
<g id="Shape 1 copy 5_2">
<path id="Vector_2" fill-rule="evenodd" clip-rule="evenodd" d="M19.2515 13.2269C19.1002 12.9875 18.9038 12.7793 18.673 12.6136C18.4423 12.4527 18.1888 12.3266 17.9208 12.2393C17.6233 12.1431 17.3159 12.0797 17.0044 12.0504C16.648 12.0156 16.2901 11.9988 15.932 12.0001H12.7929C12.5106 12.0001 12.2147 12.1839 12.2147 12.5308V17.5797C12.6124 18.4212 13.387 19.3145 14.2674 19.7414V18.7399C14.2674 18.2115 14.6687 18.0934 14.8344 18.0934H15.7627C17.0412 18.0934 18.0168 17.8272 18.6898 17.2946C19.3625 16.7627 19.699 15.9727 19.6991 14.9244C19.7011 14.6215 19.6657 14.3196 19.5937 14.0253C19.5223 13.7431 19.4069 13.4737 19.2515 13.2269ZM17.4225 15.8198C17.3142 16.0063 17.1526 16.1569 16.9581 16.2526C16.7473 16.3524 16.5196 16.4122 16.2865 16.4291C16.033 16.4515 15.7711 16.4628 15.5008 16.4628H14.6188C14.4032 16.4628 14.2674 16.2887 14.2674 16.0315V13.9674C14.2674 13.7359 14.4195 13.6387 14.602 13.6387H15.5008C15.7934 13.6387 16.068 13.6471 16.3245 13.6639C16.5551 13.6743 16.7816 13.7286 16.9917 13.8237C17.179 13.9121 17.3341 14.056 17.4353 14.2356C17.5423 14.4202 17.5958 14.6807 17.5958 15.0171C17.5958 15.3588 17.538 15.6264 17.4225 15.8198ZM14.2674 20.0675C13.2992 19.6837 12.6499 19.2256 12.2147 18.7716V21.209C12.2147 21.209 12.1788 21.6065 12.5689 21.6065H13.9384C14.3137 21.6065 14.2674 21.209 14.2674 21.209V20.0675ZM33.6741 14.6559H32.4452C32.1952 14.6559 32.0307 14.7601 31.9317 15.0325C31.8319 15.305 30.5298 18.904 30.5298 18.904C30.5298 18.904 29.2837 15.3794 29.1859 15.1065C29.0881 14.8336 28.9268 14.6559 28.6365 14.6559H27.5073C27.1093 14.6559 27.1093 14.9663 27.1584 15.0894C27.1987 15.1889 28.7451 19.3936 29.334 20.9953C29.473 21.3735 29.5277 21.4872 29.5321 21.6274C29.5365 21.7675 29.3927 22.0616 29.2937 22.2304C29.248 22.3074 29.1956 22.3803 29.1372 22.4483C30.2919 22.1054 31.6227 20.861 32.311 19.5128C32.9914 17.634 33.8889 15.1522 33.9277 15.0252C33.9904 14.8197 33.9896 14.6559 33.6741 14.6559ZM28.2476 22.806C28.1409 22.8041 28.0344 22.7965 27.9286 22.7831C27.7988 22.7661 27.5564 22.7901 27.5564 23.0008V23.9421C27.5564 24.3013 27.7297 24.3253 27.8248 24.3466C28.1116 24.4059 28.4041 24.4339 28.6972 24.4302C29.0853 24.4302 29.4231 24.3601 29.7105 24.22C30.0008 24.0774 30.2594 23.8789 30.4712 23.6359C30.7047 23.3653 30.902 23.066 31.0581 22.7453C31.2298 22.4008 31.3945 22.0212 31.5524 21.6066C31.5524 21.6066 31.6199 21.4192 31.7313 21.1123C31.3923 21.4516 29.7948 22.9546 28.2476 22.806ZM26.4018 15.7734C26.3352 15.6161 26.2441 15.47 26.1318 15.3407C26.0201 15.2164 25.8922 15.1076 25.7513 15.0171C25.5995 14.919 25.4383 14.8359 25.2702 14.769C25.0985 14.7024 24.9219 14.6491 24.742 14.6095C24.5376 14.5651 24.3302 14.5356 24.1215 14.5212C23.8959 14.5046 23.6424 14.4962 23.3609 14.4961C21.4991 14.4961 20.439 15.0798 20.1807 16.2472C20.0964 16.6095 20.4578 16.6308 20.4578 16.6308H21.6029C21.9019 16.6308 21.8892 16.5352 22.0341 16.2667C22.0866 16.1209 22.1806 15.9933 22.3048 15.8994C22.5248 15.7314 22.8543 15.6474 23.2934 15.6474C23.7158 15.6474 24.0228 15.7286 24.2141 15.8909C24.4055 16.0532 24.5181 16.2998 24.5519 16.6306C24.5519 17.0142 24.4313 17.27 23.9642 17.27C22.8243 17.229 21.5997 17.3571 20.9097 17.7492C20.2198 18.1413 19.8301 18.9086 19.8301 19.7321C19.8301 20.0681 19.8907 20.3622 20.0118 20.6145C20.1291 20.8618 20.3025 21.0789 20.5184 21.2489C20.7477 21.4263 21.0106 21.5563 21.2914 21.6313C21.6106 21.7181 21.9403 21.7606 22.2713 21.7575C22.7668 21.7575 23.2046 21.6958 23.5849 21.5725C23.965 21.4494 24.5531 21.0434 24.6282 20.9842V21.2008C24.6282 21.4152 24.6937 21.6064 24.9516 21.6064H26.2836C26.5531 21.6064 26.613 21.4152 26.613 21.1799V17.1099C26.6152 16.8569 26.5984 16.6041 26.5627 16.3536C26.5339 16.1542 26.4799 15.9593 26.4018 15.7734ZM24.5859 19.764C24.5859 19.764 24.2421 20.4727 23.0147 20.4727C22.6769 20.4727 22.4023 20.3971 22.191 20.2459C21.9796 20.0947 21.874 19.8594 21.874 19.5399C21.874 19.1249 22.0458 18.8321 22.3894 18.6613C22.7328 18.4906 23.4204 18.3931 23.9354 18.405C24.4505 18.417 24.5859 18.7399 24.5859 18.963V19.7642V19.764Z" fill="white"/>
</g>
</g>
</g>
<defs>
<linearGradient id="paint0_linear_53_320" x1="22.5" y1="1.49012e-08" x2="23" y2="52.5" gradientUnits="userSpaceOnUse">
<stop offset="0.671374" stop-color="#00CCCC"/>
<stop offset="1" stop-color="#3399FF" stop-opacity="0.36"/>
</linearGradient>
</defs>
</svg>
