<svg width="45" height="45" viewBox="0 0 45 45" fill="none" xmlns="http://www.w3.org/2000/svg">
<rect width="45" height="45" fill="#2E2E2E"/>
<g id="Frame 8">
<rect width="45" height="45" rx="10" fill="#20CC6D"/>
<g id="Group 32">
<g id="Group 31">
<path id="Vector" d="M15.0841 34.2036C15.0841 33.0991 14.3752 32.2439 13.3434 32.2439C12.8492 32.2439 12.4387 32.4234 12.1481 32.7358V32.5832C12.1481 32.4161 12.0536 32.3299 11.8865 32.3299H11.2616C11.0945 32.3299 11 32.4161 11 32.5832V37.5705C11 37.7376 11.0945 37.8327 11.2616 37.8327H11.8865C12.0536 37.8327 12.1481 37.7376 12.1481 37.5705V35.6714C12.4387 35.9838 12.8492 36.199 13.3434 36.199C14.3752 36.199 15.0841 35.3081 15.0841 34.2036ZM13.9537 34.2036C13.9537 34.7413 13.5577 35.1482 13.0527 35.1482C12.5477 35.1482 12.1481 34.7413 12.1481 34.2036C12.1481 33.6695 12.5477 33.259 13.0527 33.259C13.5577 33.259 13.9537 33.6695 13.9537 34.2036Z" fill="white"/>
<path id="Vector_2" d="M15.2988 34.2036C15.2988 35.3081 16.0256 36.199 17.061 36.199C17.5551 36.199 17.962 35.9838 18.2563 35.6714V35.824C18.2563 35.9911 18.3508 36.113 18.5179 36.113H19.1214C19.2885 36.113 19.383 35.9911 19.383 35.824V32.5832C19.383 32.4161 19.2885 32.3299 19.1214 32.3299H18.5179C18.3508 32.3299 18.2563 32.4161 18.2563 32.5832V32.7358C17.962 32.4234 17.5551 32.2439 17.061 32.2439C16.0256 32.2439 15.2988 33.0991 15.2988 34.2036ZM16.4506 34.2036C16.4506 33.6695 16.843 33.259 17.348 33.259C17.8567 33.259 18.2563 33.6695 18.2563 34.2036C18.2563 34.7413 17.8567 35.1482 17.348 35.1482C16.843 35.1482 16.4506 34.7413 16.4506 34.2036Z" fill="white"/>
<path id="Vector_3" d="M20.5029 37.8326H21.1786C21.3276 37.8326 21.4257 37.8326 21.4766 37.6213L23.2298 32.6231C23.2449 32.5807 23.2519 32.5493 23.2519 32.5073C23.2519 32.3909 23.1763 32.3298 23.0279 32.3298H22.3594C22.2069 32.3298 22.1087 32.3943 22.0651 32.5396L21.4257 34.6032L20.7972 32.5396C20.7536 32.3943 20.6554 32.3298 20.5029 32.3298H19.8344C19.6842 32.3298 19.5977 32.3926 19.5977 32.5114C19.5977 32.5493 19.6056 32.5824 19.62 32.6231L20.8589 36.113L20.2995 37.5269C20.2268 37.7121 20.3067 37.8326 20.5029 37.8326Z" fill="white"/>
<path id="Vector_4" d="M25.6976 32.2439C25.2689 32.2439 24.8878 32.4088 24.6335 32.7177V32.5832C24.6335 32.4161 24.539 32.3299 24.3719 32.3299H23.7288C23.5616 32.3299 23.4673 32.4161 23.4673 32.5832V35.824C23.4673 35.9911 23.5616 36.113 23.7288 36.113H24.3719C24.539 36.113 24.6335 35.9911 24.6335 35.824V34.051C24.6335 33.5351 24.971 33.259 25.3489 33.259C25.6868 33.259 25.9556 33.5714 25.9556 33.9093V35.824C25.9556 35.9911 26.0501 36.113 26.2172 36.113H26.8602C27.0273 36.113 27.1215 35.9911 27.1215 35.824V33.724C27.1215 32.8339 26.5224 32.2439 25.6976 32.2439Z" fill="white"/>
<path id="Vector_5" d="M33.1759 34.7232V33.3317H33.7316C33.8987 33.3317 34.0003 33.2373 34.0003 33.0701V32.5833C34.0003 32.4162 33.8987 32.3299 33.7316 32.3299H33.1759V31.411C33.1759 31.2638 33.09 31.1705 32.9489 31.1692C32.9309 31.169 32.912 31.1704 32.8924 31.1732L32.242 31.2656C32.0822 31.2911 32.0022 31.3855 32.0022 31.5454V32.3299H31.7003C31.5332 32.3299 31.4209 32.4162 31.4209 32.5833V33.0701C31.4209 33.2373 31.5332 33.3317 31.7003 33.3317H32.0022V34.8431C32.0022 35.686 32.4963 36.1991 33.2993 36.1991C33.4954 36.1991 33.6843 36.1676 33.8442 36.1131C33.9823 36.0659 34.0003 35.933 34.0003 35.7877V35.4135C34.0003 35.2391 33.9423 35.1555 33.768 35.1628H33.6553C33.3101 35.1628 33.1759 35.0248 33.1759 34.7232Z" fill="white"/>
<path id="Vector_6" d="M28.5277 34.527H31.1271C31.2834 34.527 31.393 34.4507 31.4075 34.2944C31.4148 34.2436 31.4205 34.1891 31.4205 34.1418C31.4205 33.0846 30.5732 32.2439 29.4215 32.2439C28.2479 32.2439 27.3364 33.0991 27.3364 34.2036C27.3364 35.3081 28.2262 36.199 29.5268 36.199C30.1953 36.199 30.711 35.9293 31.0961 35.5697C31.2195 35.4534 31.2123 35.3226 31.1033 35.1991L30.9471 35.0247C30.8381 34.9012 30.7182 34.8975 30.5802 34.992C30.2894 35.1954 29.9447 35.2935 29.5414 35.2935C28.9819 35.2935 28.6113 35.0029 28.5277 34.527ZM29.407 33.1137C29.8393 33.1137 30.1551 33.3753 30.2459 33.7894H28.5459C28.6585 33.368 28.9819 33.1137 29.407 33.1137Z" fill="white"/>
</g>
<path id="Vector_7" d="M22.5 30.019C29.2789 30.019 34 25.0241 34 18.5191C34 12.0141 29.2789 7.01917 22.5 7.01917C15.7211 7.01917 11 12.0141 11 18.5191C11 25.0241 15.7211 30.019 22.5 30.019Z" fill="white"/>
</g>
</g>
</svg>
