<svg width="45" height="45" viewBox="0 0 45 45" fill="none" xmlns="http://www.w3.org/2000/svg">
<g id="Group">
<path id="Vector" d="M35 0H10C4.47715 0 0 4.47715 0 10V35C0 40.5228 4.47715 45 10 45H35C40.5228 45 45 40.5228 45 35V10C45 4.47715 40.5228 0 35 0Z" fill="url(#paint0_linear_53_178)"/>
<g id="Group_2">
<path id="Vector_2" fill-rule="evenodd" clip-rule="evenodd" d="M9.70117 6.14551L18.368 10.487H16.4439L10.5632 7.54124V30.4083L14.3827 28.4928L14.4548 21.7348H15.4032L19.4777 25.9379L22.8816 24.231L19.1214 20.675C19.8675 20.2349 20.4492 19.6517 20.8667 18.9252C21.2839 18.1985 21.4928 17.4285 21.4928 16.6154C21.4928 15.8023 21.3433 15.0184 21.0445 14.3583C20.8775 13.9462 20.661 13.5417 20.3921 13.1845C19.8796 12.5038 19.1767 11.9932 18.2943 11.4757H24.8355C26.6186 11.4757 28.0289 11.9424 29.0659 12.8756C30.1028 13.8087 30.6213 15.0689 30.6213 16.6554C30.6213 18.122 30.1155 19.3786 29.1036 20.4251C28.0918 21.4716 26.669 21.9948 24.8355 21.9948H23.5836V23.8789L33.3756 18.9684L31.475 18.0162C31.5354 17.7225 31.5757 17.4212 31.5957 17.1126L35.2993 18.9678C26.7281 23.2661 18.2826 27.5012 9.70244 31.804V6.14551H9.70117ZM14.3786 14.8952V18.495H15.7064C16.3007 18.495 16.7719 18.3217 17.1196 17.9749C17.4672 17.6282 17.6412 17.1752 17.6412 16.6151C17.6412 16.055 17.4704 15.662 17.1291 15.3552C16.7878 15.0485 16.3134 14.8952 15.7064 14.8952H14.3786ZM23.5071 14.8752V18.575H24.8161C25.4105 18.575 25.8848 18.3985 26.2388 18.0451C26.5928 17.6917 26.77 17.2285 26.77 16.6551C26.77 16.0817 26.596 15.6753 26.2484 15.3552C25.9007 15.0352 25.4232 14.8752 24.8161 14.8752H23.5071Z" fill="white"/>
<g id="Group_3">
<path id="Vector_3" fill-rule="evenodd" clip-rule="evenodd" d="M9.70117 38.8548V35.0232H11.9999C12.1777 35.0232 12.3285 35.086 12.453 35.2114C12.5774 35.3359 12.6393 35.4877 12.6393 35.6645V36.6513C12.6393 36.8281 12.5765 36.9799 12.452 37.1044C12.3275 37.2298 12.1767 37.2927 11.9989 37.2927H11.9523L12.8914 38.8544H12.09L11.1417 37.2927H10.4375V38.8544H9.70149L9.70117 38.8548ZM10.4371 36.6132H11.6881C11.7414 36.6132 11.7875 36.5945 11.8249 36.557C11.8624 36.5195 11.8811 36.4745 11.8811 36.4211V35.9004C11.8811 35.8471 11.8624 35.801 11.8249 35.762C11.7875 35.7226 11.7417 35.7029 11.6881 35.7029H10.4371V36.6132ZM13.3953 38.8548V35.0232H14.1424V38.8548H13.3953ZM14.5592 35.0178H15.4311L16.1969 36.31L16.9703 35.0178H17.7476L16.5211 37.0393V38.8548H15.7851V37.0393L14.5596 35.0178H14.5592ZM17.8311 38.8548L19.2525 35.0178H20.0072L21.4277 38.8548H20.5962L20.3276 38.0962H18.8547L18.5861 38.8548H17.8314H17.8311ZM19.0735 37.4727H20.1025L19.5837 36.0242L19.0735 37.4727Z" fill="white"/>
<path id="Vector_4" fill-rule="evenodd" clip-rule="evenodd" d="M23.1279 38.8547V35.0231H25.0371C25.2139 35.0231 25.3657 35.086 25.4901 35.2114C25.6155 35.3368 25.6784 35.4876 25.6784 35.6654V36.3947C25.6784 36.5725 25.6155 36.7233 25.4901 36.8478C25.3657 36.9723 25.2139 37.0342 25.0371 37.0342H23.4143V38.8544H23.1279V38.8547ZM23.4143 36.7818H25.0107C25.1145 36.7818 25.2044 36.7434 25.2793 36.6675C25.3542 36.5916 25.3917 36.5008 25.3917 36.3951V35.6658C25.3917 35.56 25.3542 35.4692 25.2793 35.3943C25.2044 35.3194 25.1145 35.2819 25.0107 35.2819H23.4143V36.7818ZM26.4598 38.8493V35.0235H26.7462V38.5966H28.6226V38.8493H26.4598ZM29.156 38.855L30.7413 35.0235H30.9248L32.4698 38.855H32.1618L31.6496 37.5796H29.9653L29.4551 38.855H29.1563H29.156ZM30.0663 37.3269H31.5503L30.8124 35.473L30.0663 37.3269ZM32.5482 35.0292H32.8796L33.9312 36.7821L34.9875 35.0292H35.2984L34.0661 37.0805V38.855H33.7798V37.0805L32.5485 35.0292H32.5482Z" fill="white"/>
</g>
</g>
</g>
<defs>
<linearGradient id="paint0_linear_53_178" x1="22.4114" y1="1.14522" x2="22.5918" y2="44.6279" gradientUnits="userSpaceOnUse">
<stop stop-color="#E20B7E"/>
<stop offset="1" stop-color="#351024"/>
</linearGradient>
</defs>
</svg>
