<svg width="45" height="674" viewBox="0 0 673 674" fill="none" xmlns="http://www.w3.org/2000/svg">
<path fill-rule="evenodd" clip-rule="evenodd" d="M0.0200195 0L227.61 114.01H177.08L22.6499 36.65V637.14L122.95 586.84L124.84 409.37H149.75L256.74 519.74L346.12 474.92L247.38 381.54C266.97 369.99 282.25 354.67 293.21 335.59C304.17 316.51 309.65 296.29 309.65 274.93C309.65 253.57 305.72 233 297.87 215.66C293.48 204.84 287.8 194.22 280.74 184.84C267.29 166.96 248.83 153.56 225.65 139.97H397.42C444.25 139.97 481.28 152.22 508.51 176.73C535.74 201.24 549.36 234.32 549.36 275.99C549.36 314.5 536.08 347.5 509.51 374.98C482.94 402.46 445.58 416.21 397.42 416.21H364.54V465.69L621.68 336.74L571.77 311.74C573.36 304.03 574.41 296.12 574.93 288.01L672.19 336.73C447.11 449.6 225.32 560.82 0 673.82V0H0.0200195ZM122.85 229.77V324.3H157.72C173.33 324.3 185.7 319.75 194.83 310.65C203.96 301.55 208.53 289.64 208.53 274.94C208.53 260.24 204.05 249.91 195.08 241.85C186.11 233.8 173.66 229.77 157.72 229.77H122.85ZM362.56 229.25V326.41H396.93C412.54 326.41 424.99 321.77 434.29 312.49C443.59 303.21 448.24 291.05 448.24 275.99C448.24 260.93 443.67 250.26 434.54 241.85C425.41 233.45 412.87 229.25 396.93 229.25H362.56Z" fill="url(#paint0_linear_5201_1023)"/>
<defs>
<linearGradient id="paint0_linear_5201_1023" x1="319.03" y1="16.41" x2="347.46" y2="829.78" gradientUnits="userSpaceOnUse">
<stop stop-color="#E20B7E"/>
<stop offset="0.52" stop-color="#7F1A55"/>
<stop offset="1" stop-color="#E20B7E"/>
</linearGradient>
</defs>
</svg>
