<svg width="40" height="40" viewBox="0 0 40 40" fill="none" xmlns="http://www.w3.org/2000/svg">
<path d="M20 38.3334C29.5 38.3334 37.3167 31.1001 38.25 21.8334C38.35 20.8501 37.5667 20.0001 36.5833 20.0001C35.7333 20.0001 35.0167 20.6334 34.9333 21.4667C34.2 29.0667 27.7833 35.0001 20 35.0001C14.8 35.0001 10.2167 32.3501 7.53332 28.3334H9.99999C10.9167 28.3334 11.6667 27.5834 11.6667 26.6667C11.6667 25.7501 10.9167 25.0001 9.99999 25.0001H3.33332C2.41666 25.0001 1.66666 25.7501 1.66666 26.6667V33.3334C1.66666 34.2501 2.41666 35.0001 3.33332 35.0001C4.24999 35.0001 4.99999 34.2501 4.99999 33.3334V30.5501C8.31666 35.2501 13.8 38.3334 20 38.3334ZM20 1.66675C10.5 1.66675 2.68332 8.90008 1.74999 18.1667C1.66666 19.1501 2.43332 20.0001 3.41666 20.0001C4.26666 20.0001 4.98332 19.3667 5.06666 18.5334C5.79999 10.9334 12.2167 5.00008 20 5.00008C25.2 5.00008 29.7833 7.65008 32.4667 11.6667H30C29.0833 11.6667 28.3333 12.4167 28.3333 13.3334C28.3333 14.2501 29.0833 15.0001 30 15.0001H36.6667C37.5833 15.0001 38.3333 14.2501 38.3333 13.3334V6.66675C38.3333 5.75008 37.5833 5.00008 36.6667 5.00008C35.75 5.00008 35 5.75008 35 6.66675V9.45008C33.3073 7.04473 31.0609 5.08189 28.4502 3.72723C25.8395 2.37258 22.9412 1.66586 20 1.66675ZM18.5333 9.80008C18.5333 8.98342 19.2 8.33342 20 8.33342C20.8 8.33342 21.4667 8.98342 21.4667 9.80008V10.4167C23.25 10.7334 24.3833 11.6834 25.0667 12.5834C25.6333 13.3167 25.3333 14.3834 24.4667 14.7501C23.8667 15.0001 23.1667 14.8001 22.7667 14.2834C22.3 13.6501 21.4667 13.0001 20.1 13.0001C18.9333 13.0001 17.0833 13.6167 17.0833 15.3167C17.0833 16.9001 18.5167 17.5001 21.4833 18.4834C25.4833 19.8667 26.5 21.9001 26.5 24.2334C26.5 28.6001 22.3333 29.4501 21.4667 29.6001V30.2167C21.4667 31.0167 20.8167 31.6834 20 31.6834C19.1833 31.6834 18.5333 31.0334 18.5333 30.2167V29.5167C17.4833 29.2667 15.3167 28.5001 14.05 26.0167C13.6667 25.2834 14.1 24.3167 14.8667 24.0167C15.55 23.7501 16.3667 24.0001 16.7167 24.6501C17.25 25.6667 18.3 26.9334 20.25 26.9334C21.8 26.9334 23.55 26.1334 23.55 24.2501C23.55 22.6501 22.3833 21.8167 19.75 20.8667C17.9167 20.2167 14.1667 19.1501 14.1667 15.3501C14.1667 15.1834 14.1833 11.3501 18.5333 10.4167V9.80008Z" fill="#2B4285"/>
</svg>
