<svg width="20" height="20" viewBox="0 0 100 100" fill="none" xmlns="http://www.w3.org/2000/svg">
<circle cx="50" cy="50" r="45.5" fill="#D09F00" stroke="#FFC50C" stroke-width="9"/>
<path d="M48.8508 26.7689C50.0316 25.5881 51.3033 24.9977 52.6657 24.9977C54.0736 24.9977 55.1636 25.1112 55.9356 25.3383C56.7077 25.5654 57.2981 25.8378 57.7068 26.1558C58.1156 26.4282 58.4335 26.9051 58.6606 27.5863C58.8876 28.3584 59.0012 29.5619 59.0012 31.1969V69.1414C59.0012 70.186 58.9558 70.9807 58.8649 71.5257C58.8195 72.0253 58.6151 72.6157 58.2518 73.2969C57.616 74.5231 55.8448 75.1362 52.9382 75.1362C50.1225 75.1362 48.374 74.5458 47.6927 73.365C47.3294 72.6838 47.1023 72.0707 47.0115 71.5257C46.9661 70.9353 46.9434 70.0951 46.9434 69.0052V44.6852L46.0578 45.5027C44.1958 46.9106 42.6062 47.6145 41.2892 47.6145C39.9721 47.6145 38.587 46.8198 37.1337 45.2302C35.7258 43.6407 35.0218 42.2328 35.0218 41.0066C35.0218 39.7804 35.8393 38.4406 37.4743 36.9873L48.6465 26.9051L48.8508 26.7689Z" fill="white"/>
</svg>
