<svg width="40" height="40" viewBox="0 0 40 40" fill="none" xmlns="http://www.w3.org/2000/svg">
<path d="M18.0156 28.0453L17.9151 27.9488C16.6661 26.749 15.4836 25.482 14.3727 24.1534C13.6621 25.0055 12.9194 25.8341 12.1446 26.6392C8.08071 30.8625 4.58832 32.9477 4.43678 33.0372L4.35071 33.088L4.29985 33.002L3.66396 31.926L3.66391 31.9259L3.15365 31.0643L3.15364 31.0643L3.027 30.8504L2.97611 30.7644L3.06201 30.7135C3.09031 30.6967 6.43854 28.69 10.258 24.7057C13.521 21.3019 17.7634 15.7592 20.0887 8.225H8.66107C9.72421 11.6684 11.2484 14.9523 13.1923 17.9873L13.2288 18.0443L13.1895 18.0994C12.6741 18.821 12.1371 19.5268 11.5791 20.216L11.4938 20.3213L11.4184 20.2088C8.94933 16.5277 7.06878 12.4846 5.84416 8.225H1.25H1.15V8.125V5.625V5.525H1.25H13.025V1.25V1.15H13.125H15.625H15.725V1.25V5.525H26.875H26.975V5.625V8.125V8.225H26.875H22.9044C21.856 11.8712 20.3246 15.3609 18.3509 18.6014L18.0156 28.0453ZM18.0156 28.0453L18.0749 27.9192M18.0156 28.0453L18.0749 27.9192M18.0749 27.9192L19.2018 25.5244L19.2318 25.4607M18.0749 27.9192L19.2318 25.4607M19.2318 25.4607L19.1819 25.411M19.2318 25.4607L19.1819 25.411M19.1819 25.411C18.0895 24.3218 17.0541 23.1769 16.08 21.9807M19.1819 25.411L16.08 21.9807M16.08 21.9807C16.8914 20.8825 17.6484 19.7561 18.3509 18.6014L16.08 21.9807Z" fill="#2B4285" stroke="#2B4285" stroke-width="0.2"/>
<path d="M26.072 15.525H26.0078L25.9811 15.5834L25.534 16.5612L16.2668 36.8334L16.2021 36.975H16.3577H19.1066H19.1708L19.1975 36.9166L22.0279 30.725H32.9721L35.8025 36.9166L35.8292 36.975H35.8934H38.6423H38.7979L38.7332 36.8334L29.0189 15.5834L28.9922 15.525H28.928H26.072ZM25.625 28.025H23.2622L25.7159 22.6575L27.5 18.7549L31.7378 28.025H25.625Z" fill="#2B4285" stroke="#2B4285" stroke-width="0.2"/>
</svg>
