<svg width="512" height="512" viewBox="0 0 512 512" fill="none" xmlns="http://www.w3.org/2000/svg">
<g clip-path="url(#clip0_251_4694)">
<path d="M480 426.667H32C14.3573 426.667 0 412.309 0 394.667V117.333C0 99.6907 14.3573 85.3334 32 85.3334H123.307C129.195 85.3334 133.973 90.112 133.973 96C133.973 101.888 129.195 106.667 123.307 106.667H32C26.112 106.667 21.3333 111.445 21.3333 117.333V394.667C21.3333 400.555 26.112 405.333 32 405.333H480C485.888 405.333 490.667 400.555 490.667 394.667V117.333C490.667 111.445 485.888 106.667 480 106.667H388.693C382.805 106.667 378.027 101.888 378.027 96C378.027 90.112 382.805 85.3334 388.693 85.3334H480C497.643 85.3334 512 99.6907 512 117.333V394.667C512 412.309 497.643 426.667 480 426.667Z" fill="black"/>
<path d="M352 512H160C154.112 512 149.333 507.221 149.333 501.333C149.333 495.445 154.112 490.667 160 490.667H352C357.888 490.667 362.667 495.445 362.667 501.333C362.667 507.221 357.888 512 352 512Z" fill="black"/>
<path d="M224 512C218.112 512 213.333 507.221 213.333 501.333V416C213.333 410.112 218.112 405.333 224 405.333C229.888 405.333 234.667 410.112 234.667 416V501.333C234.667 507.221 229.888 512 224 512Z" fill="black"/>
<path d="M288 512C282.112 512 277.333 507.221 277.333 501.333V416C277.333 410.112 282.112 405.333 288 405.333C293.888 405.333 298.667 410.112 298.667 416V501.333C298.667 507.221 293.888 512 288 512Z" fill="black"/>
<path d="M192 320C186.112 320 181.333 315.221 181.333 309.333V202.667C181.333 196.779 186.112 192 192 192C197.888 192 202.667 196.779 202.667 202.667V309.333C202.667 315.221 197.888 320 192 320Z" fill="black"/>
<path d="M224 213.333H160C154.112 213.333 149.333 208.555 149.333 202.667C149.333 196.779 154.112 192 160 192H224C229.888 192 234.667 196.779 234.667 202.667C234.667 208.555 229.888 213.333 224 213.333Z" fill="black"/>
<path d="M320 320C315.285 320 311.125 316.907 309.781 312.405L277.781 205.739C276.096 200.107 279.296 194.155 284.928 192.448C290.56 190.763 296.512 193.963 298.219 199.595L320 272.213L341.781 199.616C343.467 193.963 349.397 190.784 355.072 192.469C360.725 194.176 363.925 200.107 362.219 205.76L330.219 312.427C328.875 316.907 324.715 320 320 320Z" fill="black"/>
<path d="M256 138.667C247.168 138.667 240 131.499 240 122.667C240 113.835 247.168 106.667 256 106.667C264.832 106.667 272 113.835 272 122.667C272 131.499 264.832 138.667 256 138.667Z" fill="black"/>
<path d="M298.667 96C295.595 96 292.544 94.6774 290.453 92.1387C271.744 69.5894 240.235 69.5894 221.547 92.1387C217.813 96.6614 211.093 97.3227 206.528 93.5254C201.984 89.7707 201.365 83.0507 205.12 78.528C232.085 46.0587 279.915 46.0587 306.88 78.528C310.635 83.0507 310.016 89.792 305.493 93.5467C303.488 95.1894 301.077 96 298.667 96Z" fill="black"/>
<path d="M341.333 64C338.261 64 335.211 62.6773 333.099 60.1387C312.405 35.1147 285.013 21.3333 256 21.3333C226.987 21.3333 199.595 35.1147 178.88 60.1387C175.125 64.6827 168.427 65.344 163.861 61.5467C159.317 57.792 158.699 51.072 162.453 46.528C187.285 16.512 220.501 0 256 0C291.499 0 324.715 16.512 349.547 46.528C353.301 51.072 352.661 57.792 348.139 61.5467C346.155 63.1893 343.744 64 341.333 64Z" fill="black"/>
</g>
<defs>
<clipPath id="clip0_251_4694">
<rect width="512" height="512" fill="white"/>
</clipPath>
</defs>
</svg>
