<svg width="45" height="45" viewBox="0 0 45 45" fill="none" xmlns="http://www.w3.org/2000/svg">
<rect width="45" height="45" fill="#2E2E2E"/>
<g id="Frame 7">
<rect width="45" height="45" rx="10" fill="#FFDD2A"/>
<g id="Group 30">
<path id="Vector" fill-rule="evenodd" clip-rule="evenodd" d="M25.7907 4C25.3219 4 24.9535 4.3293 24.9535 4.74791V8.83349C24.9535 9.25209 25.3219 9.5814 25.7907 9.5814C26.2595 9.5814 26.6279 9.25209 26.6279 8.83349V4.74791C26.6279 4.3293 26.2595 4 25.7907 4ZM17.4186 6.23256C16.9498 6.23256 16.5814 6.56744 16.5814 6.99721V26.3981C16.5814 26.8251 16.9498 27.1628 17.4186 27.1628C17.8874 27.1628 18.2558 26.8279 18.2558 26.3981V6.99721C18.2558 6.56744 17.8874 6.23256 17.4186 6.23256ZM13.7907 14.8279C13.7907 14.3898 14.1591 14.0465 14.6279 14.0465C15.0967 14.0465 15.4651 14.3898 15.4651 14.8279V22.7535C15.4651 23.1916 15.0967 23.5349 14.6279 23.5349C14.1591 23.5349 13.7907 23.1916 13.7907 22.7535V14.8279ZM11.8372 17.3953C11.3684 17.3953 11 17.7302 11 18.16V21.0958C11 21.5256 11.3684 21.8605 11.8372 21.8605C12.306 21.8605 12.6744 21.5256 12.6744 21.0958V18.16C12.6744 17.7302 12.306 17.3953 11.8372 17.3953ZM20.2093 29.9535C20.6781 29.9535 21.0465 29.6242 21.0465 29.2056V25.12C21.0465 24.7014 20.6781 24.3721 20.2093 24.3721C19.7405 24.3721 19.3721 24.7014 19.3721 25.12V29.2056C19.3721 29.6242 19.7405 29.9535 20.2093 29.9535ZM19.3721 9.79628C19.3721 9.36372 19.7405 9.02326 20.2093 9.02326C20.6781 9.02326 21.0465 9.36372 21.0465 9.79628V20.5293C21.0465 20.9619 20.6781 21.3023 20.2093 21.3023C19.7405 21.3023 19.3721 20.9619 19.3721 20.5293V9.79628ZM35 15.7935C35 16.2233 34.6316 16.5581 34.1628 16.5581C33.694 16.5581 33.3256 16.2233 33.3256 15.7935V12.8577C33.3256 12.4279 33.694 12.093 34.1628 12.093C34.6316 12.093 35 12.4279 35 12.8577V15.7935ZM31.3721 19.907C31.8409 19.907 32.2093 19.5637 32.2093 19.1256V11.2C32.2093 10.7619 31.8409 10.4186 31.3721 10.4186C30.9033 10.4186 30.5349 10.7619 30.5349 11.2V19.1256C30.5349 19.5637 30.9033 19.907 31.3721 19.907ZM29.4186 26.9563C29.4186 27.386 29.0502 27.7209 28.5814 27.7209C28.1126 27.7209 27.7442 27.386 27.7442 26.9563V7.55535C27.7442 7.12558 28.1126 6.7907 28.5814 6.7907C29.0502 6.7907 29.4186 7.12558 29.4186 7.55535V26.9563ZM25.7907 24.9302C26.2595 24.9302 26.6279 24.5898 26.6279 24.1572V13.4242C26.6279 12.9916 26.2595 12.6512 25.7907 12.6512C25.3219 12.6512 24.9535 12.9916 24.9535 13.4242V24.1572C24.9535 24.5898 25.3219 24.9302 25.7907 24.9302ZM23.8372 27.2019C23.8358 27.3096 23.8129 27.4159 23.7698 27.5147C23.7267 27.6135 23.6644 27.7026 23.5864 27.777C23.5084 27.8513 23.4164 27.9093 23.3157 27.9476C23.215 27.9859 23.1077 28.0037 23 28C22.8923 28.0037 22.785 27.9859 22.6843 27.9476C22.5836 27.9093 22.4916 27.8513 22.4136 27.777C22.3356 27.7026 22.2733 27.6135 22.2302 27.5147C22.1871 27.4159 22.1642 27.3096 22.1628 27.2019V20.426C22.1642 20.3183 22.1871 20.212 22.2302 20.1132C22.2733 20.0145 22.3356 19.9253 22.4136 19.851C22.4916 19.7766 22.5836 19.7186 22.6843 19.6803C22.785 19.642 22.8923 19.6242 23 19.6279C23.4688 19.6279 23.8372 19.9795 23.8372 20.426V27.2019ZM23 6.7907C22.8923 6.78697 22.785 6.80478 22.6843 6.84309C22.5836 6.88139 22.4916 6.93941 22.4136 7.01375C22.3356 7.08809 22.2733 7.17725 22.2302 7.276C22.1871 7.37475 22.1642 7.48111 22.1628 7.58884V14.3647C22.1642 14.4724 22.1871 14.5787 22.2302 14.6775C22.2733 14.7762 22.3356 14.8654 22.4136 14.9397C22.4916 15.0141 22.5836 15.0721 22.6843 15.1104C22.785 15.1487 22.8923 15.1665 23 15.1628C23.4688 15.1628 23.8372 14.8112 23.8372 14.3647V7.58884C23.8358 7.48111 23.8129 7.37475 23.7698 7.276C23.7267 7.17725 23.6644 7.08809 23.5864 7.01375C23.5084 6.93941 23.4164 6.88139 23.3157 6.84309C23.215 6.80478 23.1077 6.78697 23 6.7907Z" fill="white"/>
<g id="Group 29">
<path id="Vector_2" d="M12.2 33.1923C12.2 33.0331 12.1368 32.8805 12.0243 32.768C11.9117 32.6555 11.7591 32.5923 11.6 32.5923C11.4409 32.5923 11.2883 32.6555 11.1757 32.768C11.0632 32.8805 11 33.0331 11 33.1923V35.7122C11 36.4124 11.2781 37.0839 11.7732 37.579C12.2683 38.0741 12.9398 38.3522 13.64 38.3522C14.3401 38.3522 15.0116 38.0741 15.5067 37.579C16.0018 37.0839 16.2799 36.4124 16.2799 35.7122V33.1923C16.2799 33.0331 16.2167 32.8805 16.1042 32.768C15.9917 32.6555 15.8391 32.5923 15.6799 32.5923C15.5208 32.5923 15.3682 32.6555 15.2557 32.768C15.1432 32.8805 15.0799 33.0331 15.0799 33.1923V35.7122C15.0799 36.0942 14.9282 36.4604 14.6582 36.7305C14.3881 37.0005 14.0219 37.1522 13.64 37.1522C13.2581 37.1522 12.8918 37.0005 12.6217 36.7305C12.3517 36.4604 12.2 36.0942 12.2 35.7122V33.1923Z" fill="white"/>
<path id="Vector_3" fill-rule="evenodd" clip-rule="evenodd" d="M17.2393 33.1923C17.2379 33.0431 17.2922 32.8987 17.3915 32.7874C17.4909 32.676 17.6282 32.6057 17.7766 32.5901C17.925 32.5745 18.0739 32.6148 18.1942 32.703C18.3145 32.7913 18.3976 32.9213 18.4273 33.0675C18.8489 32.7598 19.3572 32.5934 19.8792 32.5923C21.336 32.5923 22.5192 33.8811 22.5192 35.4723C22.5192 37.0635 21.336 38.3522 19.8792 38.3522C19.3624 38.3514 18.8588 38.1886 18.4393 37.8867V39.6722C18.4393 39.8314 18.3761 39.984 18.2635 40.0965C18.151 40.209 17.9984 40.2722 17.8393 40.2722C17.6801 40.2722 17.5275 40.209 17.415 40.0965C17.3025 39.984 17.2393 39.8314 17.2393 39.6722V33.1923ZM19.8792 37.1523C19.0849 37.1523 18.4393 36.4011 18.4393 35.4723C18.4393 34.5435 19.0849 33.7923 19.8792 33.7923C20.6736 33.7923 21.3192 34.5435 21.3192 35.4723C21.3192 36.4011 20.6736 37.1523 19.8792 37.1523ZM28.7591 33.1923C28.7605 33.0431 28.7062 32.8987 28.6069 32.7874C28.5075 32.676 28.3703 32.6057 28.2218 32.5901C28.0734 32.5745 27.9245 32.6148 27.8042 32.703C27.6839 32.7913 27.6008 32.9213 27.5711 33.0675C27.1495 32.7598 26.6412 32.5934 26.1192 32.5923C24.6624 32.5923 23.4792 33.8811 23.4792 35.4723C23.4792 37.0635 24.6624 38.3522 26.1192 38.3522C26.6568 38.3522 27.156 38.177 27.5711 37.877C27.6008 38.0233 27.6839 38.1532 27.8042 38.2415C27.9245 38.3298 28.0734 38.3701 28.2218 38.3545C28.3703 38.3389 28.5075 38.2686 28.6069 38.1572C28.7062 38.0459 28.7605 37.9015 28.7591 37.7523V33.1923ZM26.1192 37.1523C26.9136 37.1523 27.5591 36.4011 27.5591 35.4723C27.5591 34.5435 26.9136 33.7923 26.1192 33.7923C25.3248 33.7923 24.6792 34.5435 24.6792 35.4723C24.6792 36.4011 25.3248 37.1523 26.1192 37.1523Z" fill="white"/>
<path id="Vector_4" d="M30.9192 33.1923C30.9192 33.0332 30.856 32.8806 30.7435 32.7681C30.631 32.6556 30.4784 32.5923 30.3192 32.5923C30.1601 32.5923 30.0075 32.6556 29.895 32.7681C29.7825 32.8806 29.7192 33.0332 29.7192 33.1923V35.9523C29.7192 36.5888 29.9721 37.1993 30.4222 37.6493C30.8723 38.0994 31.4827 38.3523 32.1192 38.3523H32.5992C33.036 38.3523 33.4464 38.2347 33.7992 38.0307V38.1123C33.7992 38.3835 33.708 38.5971 33.528 38.7531C33.3384 38.9163 32.9856 39.0723 32.3592 39.0723C31.584 39.0723 31.2048 38.8227 31.0704 38.7339L31.0464 38.7195C30.9212 38.6265 30.7647 38.586 30.6101 38.6065C30.4555 38.627 30.315 38.7068 30.2183 38.8291C30.1215 38.9514 30.0762 39.1066 30.0919 39.2617C30.1077 39.4169 30.1831 39.5598 30.3024 39.6603C30.4896 39.7875 30.6744 39.9003 30.8808 39.9842C31.2288 40.1306 31.728 40.2722 32.3592 40.2722C33.1752 40.2722 33.84 40.0682 34.3104 39.6603C34.5313 39.4682 34.7074 39.2301 34.8264 38.9626C34.9454 38.6952 35.0044 38.4049 34.9992 38.1123V33.1923C34.9992 33.0332 34.936 32.8806 34.8234 32.7681C34.7109 32.6556 34.5583 32.5923 34.3992 32.5923C34.24 32.5923 34.0874 32.6556 33.9749 32.7681C33.8624 32.8806 33.7992 33.0332 33.7992 33.1923V35.7171C33.7985 36.099 33.6462 36.465 33.3757 36.7346C33.1052 37.0042 32.7387 37.1553 32.3568 37.1547C31.9749 37.154 31.6089 37.0017 31.3393 36.7312C31.0697 36.4607 30.9186 36.0942 30.9192 35.7123V33.1923Z" fill="white"/>
</g>
</g>
</g>
</svg>
