<svg width="61" height="71" viewBox="0 0 61 71" fill="none" xmlns="http://www.w3.org/2000/svg">
<path d="M42.3357 17.75H10.3857C9.08025 17.7539 8.02294 18.8112 8.01904 20.1167V67.45C8.02294 68.7555 9.08025 69.8128 10.3857 69.8167H50.619C51.9245 69.8128 52.9818 68.7555 52.9857 67.45V28.4L42.3357 17.75Z" fill="#E8EDFC"/>
<path d="M42.3347 17.75H38.7847L49.4347 28.4V67.45C49.4308 68.7555 48.3734 69.8128 47.068 69.8167H50.618C51.9234 69.8128 52.9807 68.7555 52.9846 67.45V28.4L42.3347 17.75Z" fill="#CAD9FC"/>
<path d="M42.335 17.75V26.0333C42.335 27.3404 43.3946 28.4 44.7016 28.4H52.985L42.335 17.75Z" fill="#A4C2F7"/>
<path d="M36.418 37.8672H24.5847C23.9312 37.8672 23.4014 38.397 23.4014 39.0505V41.4172C23.4014 42.0707 23.9312 42.6005 24.5847 42.6005H36.418C37.0716 42.6005 37.6014 42.0707 37.6014 41.4172V39.0505C37.6014 38.397 37.0716 37.8672 36.418 37.8672Z" fill="#A4C2F7"/>
<path d="M36.4172 42.6005H32.8672C33.5207 42.6005 34.0505 42.0707 34.0505 41.4172V39.0505C34.0505 38.397 33.5207 37.8672 32.8672 37.8672H36.4172C37.0707 37.8672 37.6005 38.397 37.6005 39.0505V41.4172C37.6005 42.0707 37.0707 42.6005 36.4172 42.6005Z" fill="#7FACFA"/>
<path d="M36.418 28.3984H24.5847C23.9312 28.3984 23.4014 28.9282 23.4014 29.5818V31.9484C23.4014 32.602 23.9312 33.1318 24.5847 33.1318H36.418C37.0716 33.1318 37.6014 32.602 37.6014 31.9484V29.5818C37.6014 28.9282 37.0716 28.3984 36.418 28.3984Z" fill="#A4C2F7"/>
<path d="M36.4172 33.1318H32.8672C33.5207 33.1318 34.0505 32.602 34.0505 31.9484V29.5818C34.0505 28.9282 33.5207 28.3984 32.8672 28.3984H36.4172C37.0707 28.3984 37.6005 28.9282 37.6005 29.5818V31.9484C37.6005 32.602 37.0707 33.1318 36.4172 33.1318Z" fill="#7FACFA"/>
<path d="M41.9458 10.9584L31.2958 1.49168C30.8443 1.0809 30.1545 1.0809 29.703 1.49168L19.053 10.9584C18.6908 11.2875 18.5687 11.8057 18.7457 12.262C18.9227 12.7183 19.3623 13.0185 19.8517 13.0174H22.2184C22.8719 13.0174 23.4017 13.5471 23.4017 14.2007V22.484C23.4017 23.1376 23.9315 23.6674 24.5851 23.6674H36.4184C37.072 23.6674 37.6017 23.1376 37.6017 22.484V14.2007C37.6017 13.5471 38.1315 13.0174 38.7851 13.0174H41.1517C41.6403 13.0166 42.0781 12.7156 42.2539 12.2598C42.4297 11.804 42.3073 11.287 41.9458 10.9584Z" fill="#A4C2F7"/>
<path d="M41.1516 13.0165H38.7849C38.1314 13.0165 37.6016 13.5463 37.6016 14.1999V22.4832C37.6016 23.1367 37.0718 23.6665 36.4182 23.6665H32.8682C33.5218 23.6665 34.0516 23.1367 34.0516 22.4832V14.1999C34.0516 13.5463 34.5814 13.0165 35.2349 13.0165H37.6016C38.0905 13.0167 38.5293 12.7161 38.7057 12.2601C38.8821 11.804 38.7598 11.2864 38.3979 10.9575L28.7266 2.36652L29.7052 1.49559C30.1566 1.0848 30.8465 1.0848 31.2979 1.49559L41.9479 10.9623C42.3062 11.2918 42.4261 11.8071 42.2502 12.2609C42.0742 12.7148 41.6383 13.0146 41.1516 13.0165Z" fill="#7FACFA"/>
<path d="M13.9357 17.75H10.3857C9.08025 17.7539 8.02294 18.8112 8.01904 20.1167V67.45C8.02294 68.7555 9.08025 69.8128 10.3857 69.8167H13.9357C12.6303 69.8128 11.5729 68.7555 11.569 67.45V20.1167C11.5729 18.8112 12.6303 17.7539 13.9357 17.75Z" fill="white"/>
<path d="M6.83496 57.9844H9.20163V67.451H6.83496V57.9844Z" fill="white"/>
<path d="M8.0183 63.9018C8.67183 63.9018 9.20163 63.372 9.20163 62.7185C9.20163 62.0649 8.67183 61.5352 8.0183 61.5352C7.36476 61.5352 6.83496 62.0649 6.83496 62.7185C6.83496 63.372 7.36476 63.9018 8.0183 63.9018Z" fill="#428DFF"/>
<path d="M10.385 71.0003H50.6183C52.5789 71.0003 54.1683 69.4109 54.1683 67.4503V28.4003C54.1683 28.3754 54.1553 28.3541 54.1541 28.3281C54.1471 28.2212 54.1256 28.1157 54.0902 28.0145C54.0791 27.9768 54.0661 27.9397 54.0511 27.9033C53.9958 27.7807 53.9202 27.6683 53.8275 27.5708L53.8204 27.5625L43.1704 16.9125C43.072 16.8172 42.9574 16.7403 42.832 16.6853C42.7992 16.6711 42.7656 16.6589 42.7314 16.6486C42.6255 16.6107 42.5147 16.5884 42.4024 16.5823C42.3799 16.5823 42.361 16.5693 42.3385 16.5693H38.785V14.2003H41.1516C42.129 14.2001 43.0058 13.5992 43.3585 12.6876C43.7112 11.776 43.4672 10.7414 42.7444 10.0835L42.7337 10.074L32.0932 0.615628C31.1966 -0.207231 29.8205 -0.210822 28.9195 0.607345L18.2612 10.0835C17.5388 10.7411 17.2946 11.7752 17.6467 12.6865C17.9988 13.5978 18.8747 14.1992 19.8516 14.2003H22.2183V16.567H10.385C8.42435 16.567 6.83496 18.1564 6.83496 20.117V57.9836C6.83496 58.6372 7.36476 59.167 8.01829 59.167C8.67183 59.167 9.20163 58.6372 9.20163 57.9836V20.117C9.20163 19.4634 9.73142 18.9336 10.385 18.9336H22.2183V22.4836C22.2183 23.7907 23.2779 24.8503 24.585 24.8503H36.4183C37.7254 24.8503 38.785 23.7907 38.785 22.4836V18.9336H41.1516V26.0336C41.1516 27.9942 42.741 29.5836 44.7016 29.5836H51.8016V67.4503C51.8016 68.1038 51.2718 68.6336 50.6183 68.6336H10.385C9.73142 68.6336 9.20163 68.1038 9.20163 67.4503C9.20163 66.7968 8.67183 66.267 8.01829 66.267C7.36476 66.267 6.83496 66.7968 6.83496 67.4503C6.83496 69.4109 8.42435 71.0003 10.385 71.0003ZM36.4183 22.4836H24.585V14.2003C24.585 12.8932 23.5254 11.8336 22.2183 11.8336L19.8445 11.8419L30.5111 2.37525L41.1516 11.8336H38.785C37.4779 11.8336 36.4183 12.8932 36.4183 14.2003V22.4836ZM44.7016 27.217C44.0481 27.217 43.5183 26.6872 43.5183 26.0336V20.6069L50.1284 27.217H44.7016Z" fill="#428DFF"/>
<path d="M22.2178 41.4169C22.2178 42.724 23.2774 43.7836 24.5844 43.7836H36.4178C37.7249 43.7836 38.7844 42.724 38.7844 41.4169V39.0503C38.7844 37.7432 37.7249 36.6836 36.4178 36.6836H24.5844C23.2774 36.6836 22.2178 37.7432 22.2178 39.0503V41.4169ZM24.5844 39.0503H36.4178V41.4169H24.5844V39.0503Z" fill="#428DFF"/>
<path d="M24.5844 34.3187H36.4178C37.7249 34.3187 38.7844 33.2591 38.7844 31.9521V29.5854C38.7844 28.2783 37.7249 27.2188 36.4178 27.2188H24.5844C23.2774 27.2188 22.2178 28.2783 22.2178 29.5854V31.9521C22.2178 33.2591 23.2774 34.3187 24.5844 34.3187ZM24.5844 29.5854H36.4178V31.9521H24.5844V29.5854Z" fill="#428DFF"/>
<path d="M12.7493 27.2177C13.4028 27.2177 13.9326 26.6879 13.9326 26.0344V23.6677C13.9326 23.0142 13.4028 22.4844 12.7493 22.4844C12.0957 22.4844 11.5659 23.0142 11.5659 23.6677V26.0344C11.5659 26.6879 12.0957 27.2177 12.7493 27.2177Z" fill="#428DFF"/>
<path d="M11.5659 50.882C11.5659 51.5355 12.0957 52.0653 12.7493 52.0653C13.4028 52.0653 13.9326 51.5355 13.9326 50.882V30.7654C13.9326 30.1118 13.4028 29.582 12.7493 29.582C12.0957 29.582 11.5659 30.1118 11.5659 30.7654V50.882Z" fill="#428DFF"/>
<path d="M0.91748 69.8151C0.91748 70.4686 1.44728 70.9984 2.10082 70.9984C2.75435 70.9984 3.28415 70.4686 3.28415 69.8151V65.0818C3.28415 64.4282 2.75435 63.8984 2.10082 63.8984C1.44728 63.8984 0.91748 64.4282 0.91748 65.0818V69.8151Z" fill="#428DFF"/>
<path d="M2.10082 60.3492C2.75435 60.3492 3.28415 59.8194 3.28415 59.1659V33.1326C3.28415 32.479 2.75435 31.9492 2.10082 31.9492C1.44728 31.9492 0.91748 32.479 0.91748 33.1326V59.1659C0.91748 59.8194 1.44728 60.3492 2.10082 60.3492Z" fill="#428DFF"/>
<path d="M57.7178 69.8151C57.7178 70.4686 58.2476 70.9984 58.9011 70.9984C59.5546 70.9984 60.0844 70.4686 60.0844 69.8151V65.0818C60.0844 64.4282 59.5546 63.8984 58.9011 63.8984C58.2476 63.8984 57.7178 64.4282 57.7178 65.0818V69.8151Z" fill="#428DFF"/>
<path d="M58.9011 60.3492C59.5546 60.3492 60.0844 59.8194 60.0844 59.1659V33.1326C60.0844 32.479 59.5546 31.9492 58.9011 31.9492C58.2476 31.9492 57.7178 32.479 57.7178 33.1326V59.1659C57.7178 59.8194 58.2476 60.3492 58.9011 60.3492Z" fill="#428DFF"/>
</svg>
