<svg width="45" height="45" viewBox="0 0 45 45" fill="none" xmlns="http://www.w3.org/2000/svg">
<rect width="45" height="45" fill="#2E2E2E"/>
<g id="Frame 6">
<rect width="45" height="45" rx="10" fill="#7000FF"/>
<g id="Group 28">
<path id="Vector" d="M35.9943 19.0043C35.9937 21.576 35.2307 24.0898 33.8019 26.2276C32.373 28.3655 30.3424 30.0315 27.967 31.0149C25.5915 31.9982 22.9778 32.2547 20.4566 31.7521C17.9354 31.2494 15.6198 30.01 13.8027 28.1908C11.9857 26.3715 10.7488 24.0541 10.2485 21.5316C9.74819 19.009 10.007 16.3948 10.9921 14.0194C11.9772 11.644 13.6444 9.61421 15.7829 8.18676C17.9213 6.75931 20.4349 5.9983 23.0058 6C24.7128 5.99925 26.4034 6.33514 27.9806 6.98847C29.5579 7.6418 30.9909 8.59976 32.1978 9.80755C33.4046 11.0153 34.3617 12.4493 35.014 14.0273C35.6665 15.6054 36.0015 17.2966 36 19.0043H35.9943ZM24.49 10.5173C24.0029 10.4714 23.5043 10.4513 23 10.4513C22.4957 10.4513 22 10.4714 21.5129 10.5173V17.4508H24.49V10.5173ZM31.3668 14.5587C30.2818 14.2021 29.173 13.9224 28.0487 13.7218V19.546C28.0487 23.7366 26.2722 25.9407 22.9971 25.9407C19.722 25.9407 17.9513 23.7366 17.9513 19.546V13.7218C16.8261 13.9228 15.7164 14.2024 14.6304 14.5587V19.5775C14.6098 20.6899 14.811 21.7952 15.2223 22.8288C15.6336 23.8624 16.2468 24.8037 17.0259 25.5976C17.805 26.3916 18.7344 27.0222 19.7599 27.4527C20.7854 27.8832 21.8865 28.1049 22.9986 28.1049C24.1108 28.1049 25.2117 27.8832 26.2372 27.4527C27.2628 27.0222 28.1922 26.3916 28.9713 25.5976C29.7504 24.8037 30.3635 23.8624 30.7748 22.8288C31.1861 21.7952 31.3874 20.6899 31.3668 19.5775V14.5587Z" fill="white"/>
<g id="Group 27">
<path id="Vector_2" d="M33.7694 33.7274C32.8812 33.7274 32.2121 34.089 31.8795 34.6394C31.543 34.089 30.8091 33.7274 30.0449 33.7274C28.5469 33.7274 27.7734 34.6843 27.7734 35.8629V38.6927H29.1778V36.0609C29.1778 35.496 29.4747 35.005 30.1545 35.005C30.8342 35.005 31.1906 35.4801 31.1906 36.0451V38.6967H32.5935V36.0411C32.5935 35.4762 32.9261 35.001 33.6007 35.001C34.2753 35.001 34.597 35.496 34.597 36.0569V38.6888H36.0001V35.8629C36.0001 34.6843 35.2769 33.7274 33.7694 33.7274Z" fill="white"/>
<path id="Vector_3" d="M20.5538 33.8224V35.0064L17.7517 37.5088H20.7214V38.6928H15.8867V37.5088L18.6941 35.0064H15.9963V33.8224H20.5538Z" fill="white"/>
<path id="Vector_4" d="M24.2139 37.5036C24.8633 37.5036 25.2989 37.146 25.2989 36.3738V33.8265H26.7032V36.4266C26.7032 38.1253 25.283 38.7852 24.2179 38.7852C23.1527 38.7852 21.7339 38.1213 21.7339 36.4266V33.8265H23.1422V36.3738C23.1422 37.146 23.5645 37.5036 24.2139 37.5036Z" fill="white"/>
<path id="Vector_5" d="M12.48 37.5036C13.1241 37.5036 13.561 37.146 13.561 36.3738V33.8265H14.964V36.4266C14.964 38.1253 13.5412 38.7852 12.4853 38.7852C11.4136 38.7852 10 38.1213 10 36.4266V33.8265H11.4043V36.3738C11.4043 37.146 11.836 37.5036 12.48 37.5036Z" fill="white"/>
</g>
</g>
</g>
</svg>
