<svg width="56" height="56" viewBox="0 0 56 56" fill="none" xmlns="http://www.w3.org/2000/svg">
<path d="M51.2551 33.3275C54.2065 20.4764 46.188 7.67235 33.3442 4.72946C20.5005 1.78656 7.6964 9.81952 4.74494 22.6706C1.79349 35.5217 9.81201 48.3257 22.6558 51.2686C35.4995 54.2115 48.3036 46.1786 51.2551 33.3275Z" fill="#B9C4E1" stroke="#B9C4E1"/>
<mask id="mask0_275_886" style="mask-type:alpha" maskUnits="userSpaceOnUse" x="2" y="2" width="52" height="52">
<path d="M51.7369 33.4805C54.7455 20.3807 46.5524 7.32694 33.4398 4.32245C20.3272 1.31796 7.2571 9.49966 4.24852 22.5994C1.23995 35.6992 9.43302 48.753 22.5456 51.7575C35.6582 54.7619 48.7283 46.5802 51.7369 33.4805Z" fill="#B9C4E1" stroke="white" stroke-width="2"/>
</mask>
<g mask="url(#mask0_275_886)">
<path d="M28.0273 36.861C33.0065 36.861 37.0429 31.2331 37.0429 24.2908C37.0429 17.3485 33.0065 11.7206 28.0273 11.7206C23.0481 11.7206 19.0117 17.3485 19.0117 24.2908C19.0117 31.2331 23.0481 36.861 28.0273 36.861Z" fill="white"/>
<path d="M27.8938 36.7217C20.1456 36.7217 13.2203 38.5747 8.61328 41.4823C10.8016 44.571 13.6996 47.0931 17.0651 48.8379C20.4307 50.5828 24.1662 51.4998 27.9598 51.5123C31.7533 51.5249 35.4949 50.6326 38.872 48.9101C42.2491 47.1875 45.1637 44.6846 47.3726 41.6105C42.7693 38.6296 35.7522 36.7217 27.8938 36.7217Z" fill="white"/>
<path d="M29.4019 27.2733H26.6532C24.7517 27.2733 23.2102 28.8251 23.2102 30.7392V38.6258C23.2102 40.54 24.7517 42.0917 26.6532 42.0917H29.4019C31.3035 42.0917 32.845 40.54 32.845 38.6258V30.7392C32.845 28.8251 31.3035 27.2733 29.4019 27.2733Z" fill="white"/>
<path d="M20.4357 25.0033C20.7041 27.0209 20.2603 28.7683 19.4407 28.9088C18.6211 29.0493 17.7407 27.5289 17.4722 25.5113C17.2038 23.4937 17.6476 21.75 18.4493 21.5951C19.251 21.4401 20.1637 22.9894 20.4357 25.0033Z" fill="white"/>
<path d="M35.629 25.0033C35.357 27.0209 35.8044 28.7683 36.6204 28.9088C37.4364 29.0493 38.3204 27.5289 38.5924 25.5113C38.8644 23.4937 38.4099 21.75 37.5903 21.5951C36.7707 21.4401 35.8903 22.9894 35.629 25.0033Z" fill="white"/>
<path d="M19.3267 23.7968C19.0213 21.784 18.7183 19.7712 18.4176 17.7585C18.3067 17.0379 18.1993 16.2597 18.4642 15.5679C18.729 14.8762 19.5092 14.3322 20.1964 14.5916C19.9208 13.1901 21.4598 12.1561 22.7984 11.7093C25.0371 10.877 27.436 10.5737 29.8097 10.823C32.1949 11.0892 34.4084 12.2002 36.0551 13.9575C36.5737 14.5099 36.9745 15.1635 37.2326 15.8778C37.6943 17.2577 37.4008 18.76 37.1038 20.2012L36.388 23.5986C36.3547 23.8599 36.2548 24.1082 36.098 24.3192C35.8189 24.6326 35.3465 24.6542 34.9277 24.6578L21.5135 24.6867C20.676 24.6867 19.5772 24.4777 19.4663 23.6418" fill="white"/>
</g>
</svg>
