<svg width="56" height="56" viewBox="0 0 56 56" fill="none" xmlns="http://www.w3.org/2000/svg">
<circle cx="28" cy="28" r="28" fill="#E7FAFF"/>
<g clip-path="url(#clip0_272_879)">
<path d="M29 26.7143C32.7875 26.7143 35.8571 23.6446 35.8571 19.8571C35.8571 16.0696 32.7875 13 29 13C25.2125 13 22.1429 16.0696 22.1429 19.8571C22.1429 23.6446 25.2125 26.7143 29 26.7143ZM33.8 28.4286H32.9054C31.7161 28.975 30.3929 29.2857 29 29.2857C27.6071 29.2857 26.2893 28.975 25.0946 28.4286H24.2C20.225 28.4286 17 31.6536 17 35.6286V37.8571C17 39.2768 18.1518 40.4286 19.5714 40.4286H38.4286C39.8482 40.4286 41 39.2768 41 37.8571V35.6286C41 31.6536 37.775 28.4286 33.8 28.4286Z" fill="#3F8CFF"/>
</g>
<defs>
<clipPath id="clip0_272_879">
<rect width="24" height="27.4286" fill="white" transform="translate(17 13)"/>
</clipPath>
</defs>
</svg>
