<svg width="56" height="56" viewBox="0 0 56 56" fill="none" xmlns="http://www.w3.org/2000/svg">
<circle cx="28" cy="28" r="28" fill="#FFEBF6"/>
<path fill-rule="evenodd" clip-rule="evenodd" d="M34.7303 23.7788H39.6666C39.6666 19.8154 37.2918 17.5 33.2681 17.5H22.7318C18.7081 17.5 16.3333 19.8154 16.3333 23.7282V32.2718C16.3333 36.1846 18.7081 38.5 22.7318 38.5H33.2681C37.2918 38.5 39.6666 36.1846 39.6666 32.2718V31.9078H34.7303C32.4393 31.9078 30.5821 30.0971 30.5821 27.8635C30.5821 25.6299 32.4393 23.8192 34.7303 23.8192V23.7788ZM34.7304 25.5178H38.7955C39.2766 25.5178 39.6667 25.8981 39.6667 26.3671V29.3195C39.6611 29.7862 39.2743 30.1633 38.7955 30.1688H34.8237C33.6639 30.184 32.6497 29.4098 32.3867 28.3084C32.2549 27.6247 32.4399 26.9192 32.8919 26.3809C33.344 25.8427 34.0169 25.5268 34.7304 25.5178ZM34.9065 28.6218H35.2902C35.7828 28.6218 36.1821 28.2325 36.1821 27.7523C36.1821 27.2721 35.7828 26.8828 35.2902 26.8828H34.9065C34.6709 26.8801 34.444 26.9694 34.2765 27.1309C34.1089 27.2923 34.0146 27.5125 34.0147 27.7422C34.0146 28.2241 34.4123 28.6163 34.9065 28.6218ZM21.8608 23.7788H28.446C28.9385 23.7788 29.3378 23.3895 29.3378 22.9092C29.3378 22.429 28.9385 22.0397 28.446 22.0397H21.8608C21.3723 22.0397 20.9746 22.4229 20.969 22.8991C20.9689 23.381 21.3666 23.7732 21.8608 23.7788Z" fill="#FFA2C0"/>
</svg>
