<svg width="56" height="56" viewBox="0 0 56 56" fill="none" xmlns="http://www.w3.org/2000/svg">
<circle cx="28" cy="28" r="28" fill="#FFF3DC"/>
<g clip-path="url(#clip0_272_917)">
<path d="M38.2307 34.7307C37.4326 34.7307 36.6861 34.3381 36.234 33.6804L35.0483 31.9557C33.6515 34.4601 30.9963 36.0769 28 36.0769C23.8191 36.0769 20.3698 32.8834 19.9632 28.8077H20.7308C21.0307 28.8077 21.306 28.6415 21.4456 28.376C21.5852 28.1105 21.5663 27.7895 21.3963 27.5424L20.2189 25.8298L18.4348 23.2347C18.2842 23.0155 18.0353 22.8846 17.7693 22.8846C17.736 22.8846 17.703 22.8866 17.6704 22.8906C17.6378 22.8946 17.6057 22.9006 17.5742 22.9084C17.4953 22.928 17.4201 22.9594 17.351 23.0012C17.2543 23.0597 17.1696 23.1388 17.1037 23.2346L14.1421 27.5423C13.9722 27.7895 13.9532 28.1105 14.0928 28.3759C14.2325 28.6413 14.5078 28.8077 14.8077 28.8077H15.6412C15.8333 31.8117 17.0951 34.6095 19.2428 36.7573C21.582 39.0964 24.692 40.3846 28 40.3846C31.3081 40.3846 34.4181 39.0964 36.7572 36.7573C37.3791 36.1354 37.9297 35.4533 38.4025 34.7241C38.3455 34.7281 38.2883 34.7307 38.2307 34.7307Z" fill="#FFCE73"/>
<path d="M28.6155 27.1923H27.3848C27.1515 27.1923 26.9617 27.0025 26.9617 26.7692V26.1538C26.9617 25.9206 27.1515 25.7308 27.3848 25.7308H28.6155C28.8488 25.7308 29.0386 25.9206 29.0386 26.1538C29.0386 26.5999 29.4002 26.9615 29.8463 26.9615C30.2923 26.9615 30.6539 26.5999 30.6539 26.1538C30.6539 25.0948 29.8419 24.222 28.8077 24.1248V23.6924C28.8077 23.2463 28.4461 22.8847 28.0001 22.8847C27.554 22.8847 27.1924 23.2463 27.1924 23.6924V24.1248C26.1582 24.222 25.3462 25.0948 25.3462 26.1538V26.7692C25.3462 27.8933 26.2606 28.8077 27.3847 28.8077H28.6154C28.8487 28.8077 29.0385 28.9975 29.0385 29.2308V29.8462C29.0385 30.0794 28.8486 30.2692 28.6154 30.2692H27.3847C27.1514 30.2692 26.9616 30.0795 26.9616 29.8462C26.9616 29.4001 26.6 29.0385 26.1539 29.0385C25.7079 29.0385 25.3462 29.4002 25.3462 29.8462C25.3462 30.9053 26.1582 31.7781 27.1924 31.8753V32.3076C27.1924 32.7537 27.5541 33.1153 28.0001 33.1153C28.4462 33.1153 28.8078 32.7537 28.8078 32.3076V31.8752C29.8419 31.778 30.654 30.9052 30.654 29.8462V29.2308C30.6539 28.1067 29.7396 27.1923 28.6155 27.1923Z" fill="#FFCE73"/>
<path d="M41.9072 27.624C41.7676 27.3585 41.4923 27.1923 41.1924 27.1923H40.3589C40.1668 24.1883 38.905 21.3905 36.7573 19.2427C34.4182 16.9036 31.3081 15.6154 28.0001 15.6154C24.6921 15.6154 21.582 16.9036 19.2429 19.2428C18.6211 19.8646 18.0704 20.5468 17.5977 21.2759C17.6546 21.2719 17.7118 21.2693 17.7694 21.2693C18.5675 21.2693 19.314 21.6619 19.7661 22.3196L20.9518 24.0443C22.3486 21.5399 25.0038 19.9231 28.0001 19.9231C32.181 19.9231 35.6303 23.1167 36.0369 27.1923H35.2693C34.9694 27.1923 34.6941 27.3585 34.5545 27.6241C34.4149 27.8895 34.4338 28.2105 34.6037 28.4576L35.7812 30.1702L37.5653 32.7654C37.603 32.8202 37.6468 32.8694 37.6954 32.9125C37.8415 33.0418 38.0314 33.1155 38.2309 33.1155C38.4968 33.1155 38.7458 32.9845 38.8965 32.7654L39.9658 31.2099L41.858 28.4577C42.0279 28.2104 42.0469 27.8894 41.9072 27.624Z" fill="#FFCE73"/>
</g>
<defs>
<clipPath id="clip0_272_917">
<rect width="28" height="28" fill="white" transform="translate(14 14)"/>
</clipPath>
</defs>
</svg>
