<svg width="56" height="56" viewBox="0 0 56 56" fill="none" xmlns="http://www.w3.org/2000/svg">
<circle cx="28" cy="28" r="28" fill="#FFF3DC"/>
<path d="M34.7637 28.6139L34.2829 20.3829H30.4014V24.079H28.7608V20.3829H22.4423V24.079H20.8017V20.3829H16.9202L16.0581 35.1409C15.991 36.29 16.389 37.384 17.1788 38.2213C17.9686 39.0586 19.0375 39.5197 20.1885 39.5197H29.2887C28.7577 38.4858 28.4578 37.3146 28.4578 36.0745C28.4578 32.3319 31.1896 29.2158 34.7637 28.6139Z" fill="#FFCE73"/>
<path d="M22.4423 18.7998C22.4423 17.0578 23.8595 15.6406 25.6015 15.6406C27.3435 15.6406 28.7608 17.0578 28.7608 18.7998V20.3829H30.4014V18.7998C30.4014 16.1532 28.2482 14 25.6015 14C22.9549 14 20.8018 16.1532 20.8018 18.7998V20.3829H22.4423V18.7998Z" fill="#FFCE73"/>
<path d="M41.9494 36.0745C41.9494 32.8072 39.2912 30.149 36.0239 30.149C32.7566 30.149 30.0984 32.8072 30.0984 36.0745C30.0984 39.3419 32.7566 42 36.0239 42C39.2912 42 41.9494 39.3419 41.9494 36.0745ZM35.1368 38.9766L32.4722 35.963L33.7013 34.8764L35.1897 36.5598L38.2722 33.3669L39.4524 34.5063L35.1368 38.9766Z" fill="#FFCE73"/>
</svg>
