<!DOCTYPE svg PUBLIC "-//W3C//DTD SVG 1.1//EN" "http://www.w3.org/Graphics/SVG/1.1/DTD/svg11.dtd">
<!-- Uploaded to: SVG Repo, www.svgrepo.com, Transformed by: SVG Repo Mixer Tools -->
<svg fill="#50e26a" version="1.1" id="Capa_1" xmlns="http://www.w3.org/2000/svg" xmlns:xlink="http://www.w3.org/1999/xlink" width="64px" height="64px" viewBox="-69.92 -69.92 372.90 372.90" xml:space="preserve" stroke="#50e26a" stroke-width="0.00233058">
<g id="SVGRepo_bgCarrier" stroke-width="0" transform="translate(0,0), scale(1)">
<rect x="-69.92" y="-69.92" width="372.90" height="372.90" rx="186.45" fill="#e0ffe6" strokewidth="0"/>
</g>
<g id="SVGRepo_tracerCarrier" stroke-linecap="round" stroke-linejoin="round" stroke="#CCCCCC" stroke-width="4.661160000000001"/>
<g id="SVGRepo_iconCarrier"> <g> <path d="M116.538,4.05C52.284,4.05,0,45.321,0,96.043c0,28.631,16.729,55.208,45.889,72.911c4.525,2.737,7.635,7.283,8.572,12.478 c2.876,16.045-0.991,32.948-6.758,47.576c19.239-9.134,39.064-23.161,54.8-36.63c3.879-3.314,9.055-4.701,14.087-4.354h0.023 c64.191,0,116.445-41.259,116.445-91.987C233.058,45.321,180.792,4.05,116.538,4.05z"/> </g> </g>
</svg>